<mxfile host="65bd71144e">
    <diagram id="_0TIUUE1FtJtV_I6h4HB" name="Page-1">
        <mxGraphModel dx="530" dy="384" grid="1" gridSize="10" guides="1" tooltips="1" connect="1" arrows="1" fold="1" page="1" pageScale="1" pageWidth="850" pageHeight="1100" math="0" shadow="0">
            <root>
                <mxCell id="0"/>
                <mxCell id="1" parent="0"/>
                <mxCell id="2" value="" style="shape=image;verticalLabelPosition=bottom;labelBackgroundColor=default;verticalAlign=top;aspect=fixed;imageAspect=0;image=data:image/png,iVBORw0KGgoAAAANSUhEUgAAAO0AAADpCAYAAADI3LCZAAAAAXNSR0IArs4c6QAAAARnQU1BAACxjwv8YQUAAAAJcEhZcwAADsMAAA7DAcdvqGQAAP+lSURBVHherP1Xk2xbdt+LzcqqysxKU367Y9s3AKJBEhe8JKWQgpKouKJCoReFvgTJCJF6ueQbPoxe9KAnhWhEeIDdIIBumO5Gm+PP2ab2LpveVpb+v/9YM3Nl7tqnGwyNrFlrrbmmHXO4adfW9Sd/c7e1tZXuElDx/7u7u7QdHvbfkrvVP4fTO563/e4uLYowQEVvtvSwpX8LXQkbsfP/CDvX/4rSIj39pcodqRTh7bET4XnmHX5ypLlF/iRSAtLJV9L+MnCeRRpRPl3ld0cWyiCXK78Dlve8i7sl8I632T+XpRwfWFTCv3J3m+a3t77frlTSXVHXioITZyHnkPfkpRDOi6SL5ATEiTIvFtEaFaVLG0QZSEf56J4n6hdp8N/Z6H3cgweSzUkTZk58Agleq5uuxAB398E2KeWwghwfII3bu3nxpLBbCr0V5Vy4PFvyW7UD11VKAbkuACmDO8LtbG+nW+MiwqyVm2fulzEXqTcYOO9atZqquzvyqTitgLs0m83Szs6O4uuNcKtUjeuK8uHqdnT4rTSdDFOv25G/clBeh4eHqVbbW5ah0+ulP/zd30//4l/8H5RmJf2u7v/h3/+NdPzkcbqbzNK2/C6ub9IP/vKv03A4TDPRymJ+m8bjcdqp7qbZdJ4qZi4ntw40hJ1+VN9ZUjC5QGAQCGhTkcOJULZEffxARjj5FYjLbh2RvhjCLxoqGoCnQFJByvqf04AwV+lsgstYuAwOX6RThijvCspxgJzHZpq+L10VMJ653wR5lvOONFblz2mCG6dTPBuQMIWDGStwePHMjxQIT9zMsBly2ZZOz4R3G+iK7/InogyWWf1gHFqAsE5Wzvc4yhmJRD73uPvgXn/XxcnrPR6r+Dn0Ml8540nwpnxyuE3Aj5ygL9OYfJrNpuh2K40nkzQcT9JcTLqYz8WAY91PUqd7kybjYZqKcWAeFImFphiqojTms2kaDPqp27lJz54+07Ur5t9NJ8fHaW9vz/nmcu7v76e333krffjxB+npixfp6uoyPXr0SEmGsEF4IOzGyns4GqbF7Tztilkpqf8QFrkh7pbiMggptE92QpLCUMDQUkQiXEUJrBzpIOAyQnAIJpyz4VnpBWFFPkai/O0cavWsf8tr3L8eFlj6EaCAZfpyZSjH2wTCltPIkP2cK8mpxSzQirR5Wy6Dnd8ERBnwW/lG2UrxSv4Z8A8oyqW/wFi4eF2qo660A23Ju8gjYvh1vhb+y3ZwWnqbnUMSRu2qqx3pKVFoIGhBzmE20srPTuN+4D2wZDw5lEcwUVGEUnzuymk7vgm3EDCBCENOexlOkHG8vFeKZdrmTb1eTxMx6023l7rSlDfXV+nm6ipdX16li1fn6ennn6dXL1+ly/PzNBr203g08LXf66bLi/P0wc9/ln72s5+aCRvNhhj2JO3uVq1xXa+S+0e/+Zuu8M8/+shp15Q3JSXc7e1CAmAg7T41Tg/3D8z4jUZD725TV5q6su2GKVCsSFGFqCygqhd38heiLMVxRQPT2JhnflY6JIHJQOFolCjoQvH0Wv8o2BrILyOYsAvMYbz9P0pjINvidhPKDfRlkJH2WhH45fhFOTKs3fNuzckPkYvTsxMuO0G5XKHJAlb+q8bkHVfe+G0RJpKjXHJuK6QgpY77nNYyHTs8ch6bDJJLIXAY0gjBu0xTDv9fBOX6UaK4FijxU4QphwP8jIBRKIoDDVEUXLwrAt4DvDeNEbugSX5lyPmt+waAHyDCkD9piEEODlO1WktzadleX4w5neh1RX7V9OriKj0/O0svxbgfffRJ+gwmPr+UFu6myXSapnJ79Vr61je/nd5+6x3VI0zszLBgckG3CK2m8v6DX/9O+vrXvpp2ZXYjsEACTDocj5THS737WvrOr/1qOjrYt39N5Wq1WtK61bTV/eTHroEbmhu0iG7iyT6G7eLeFTRGVQxV2ojmSff0CelL3N7NHNZEUEjgpfQn5QKhALek7QqqUqRe2dm1RCdC5KpARV6QU2j6gHyXU6RPmxss8l2FzYDMAYn5ncujelP+7EdcUlnG1wM90aU/fvyLrHxB+5RhFVdEpsCqoesFjkiHvpDu3GiMITi5Iv0y4J/TMp7lyuUEymkikXlLWPBKowOYVjwTxZYRZYpkIt8irQwOW9zfB257AiiNIpnAQ46VExdspg0wTgLzRZnU7qUy8J/2AMppGxRmfjujyVw3MHu3iDoClYKG+cclC6wM7rjJK/veLW6XdFqpqD8s/E1knvJcF5PMzMSDdH1zbRyORjKbFYayt2Raf+2rX3F7wFiUB215SwHIgKtc9M9VV8qsF7XtnTTb2Ur/r//H/zP9n/+v/xeZxpjFlfSJhMGnH32c/vn/9M9tGl+8ukgffv5Fury8TP3+MF1eX6ftf/d/+5e/TeEysjLClUVkKKDSOFDgcNzbRUgucUuIQlMiAfmZOJwasXWrZ6ULwoF4I5AfFedpR2k7Vf3leGQLOE+XIb+LOJFKxCPt8tVR/D6A6A6/vMZb/y/5Od14pcdIKZe38DZwn/MBcj2Wz/wzPsKP95FevLM/Aq4oBxB+8bx2XwoDRGkEpFd6tQyXr0WeEUMue8u57I6/SiCEAvVY4WFpXfiNwPe+c3K0dGYdqGCVmu5fSxsggciB16E1uYlUlvnmXDbzBwr6krcgh5TLDQeUbjOQTS6rhYWuOQ0YmD7ptvqYBEQb1mu1dHx0lE5PTtOD01NrvZn6u1fXN+no8DDtt9rW0MgZmBkgPfOO7jJ+eQNjO4yuo9EozSQ0KMt0OksfffypQi/S+1/7SrrV81gm+2A4SDu7YnLdb0mouNwZiSRqgpKzFLMDAZIQRUEAowYG5VX8C+2HaSvn+Poh9cmgSN3pA1QiHG+Kt1SO8C5D7qtwrxCKxrOFgjz8I5z9hST7rcLxnF2Ruv8DLkOOW1x57XRxvFfF4z3pxVV/rgvoyC737SIQeRVpZCfvDNQ1E4mLoCthlJOd/QsXCRYQHoaMvzLkvPTP0XxfQPZfhhFEGroHl+V8BDncMiwlU/AlHooYZT+A8heGrosbYSMMHss8s+NRsKKziL/Mu8h/GUNhVmUIB2Pd4Ypcs5nME2mYEQu3DtQq8iYfrrSlXfYX0E2DDskNjTefzzzgNJ9PpTUrqd1qpK++/77N12fPnjqsS1Lk7fZWUjiXgGSXCBHTquxbev72r/2KtfAXT5+mn6pP/OLF8/TgwQNrdN5f3tykTz/9TH3nXjo9PU7Hx8dLOlpCriQVd6X1g/jzEDoQyC0eokigKvz9w9skrvtII4cjJJXiuZBB4Q04v5w+MfEqQhTluq8hys/GjV2UY3klzGY8fkV696UL2O8e/wy8j/oElNOyb3EFX9QpvCScEFCFkNrAgvyEO3k4fES5F/IrrvcFy34uHy5D+V5wX/xVHdbDrgD/wom4XDU5BC1+OW7Ej1bACjMjFJnlPKIvHRCtFcA7p1X81gGfoLFwEZ5RYOMUHPtaxHWyxbNpMxxphJUT90vp4FhivaLNMLkjLnVlwOjW00Bo3QgjuoYRCet8o30B3i/TkX++RzDs1evpyZPH6UhaHN/ZZCLNfZDuZGI7vlR3v9dPn332uUeum3t7LvkSAkkBzoir78Nl5MSVilIJwlCo0I78bW1hVqhwdgpQhAsXFQhNmNN1tIBleF2Xj+vPZfA7fvl9cZ+fDRtxlrD0J/cowZuC3gdreQjI21eXKWDVYHHF5XfL+MXF+CtglcIvBpLZLAvgcvhlhCEHLqQdv/AvlxeItOSX4669DYh4ON6VXYbSPWos179UR+4ibZGh05GfPI2vItgqjxWsnlEsy6gG0uM91AhknPuJdAUEXzJ04Sw4inunSyjdhxAKZstMSSoOp/QYpGLKCCZ2yo4T+bkeGSIZXtuf+FivCIudnd309ttvpW9/85vp7XfeThX1b52Lwo7VfwYO9g9ksm+ndrtJuaOgZEMiOUGPfimWm5kKyZb2s+5Vev2t4plhKSj5OCyNgIGg9/JbFT6u2SwNF4zNm+yWIP8MqzTCb/UsWAXzfa5Tdm+CKPPKbeS+hPx+mV6R5P2h18FxdY14Uc8MkWcBvPuSBDfrwfOS6Px7HVZ+0ZJREuJCFBBgdtRllXnGxbJ8FN2hVuB65dfL9/q/Uc43AeGi/SlZ4MUp6MYma6k890OULzv7lJ4zLVM444hykVcRFsj3Dl/QcH52YQS5PpmpAd67rHreVV/T00XTKS/sSIUwkRrsQlxwLiilEflRJp63UvvgIL33/nvpxauX6eLyQv3law9AnR6fpH/8P/6j9PjRI5WDshSJkENOKDIsEtPVI2tyOXEaOsJR0YJhyV5pMfpmxi3S5Rr3q6tz5p53MHghaUnDfhHaV4B84+oCxIMgl7UM5XLpacMF5DhRhHjHPXBfmrkOWAcGXdxfLju8i3sg6rqKC04yk22Ca6p4970rQznNDKQJRB6vOwrrMjlYXPXGt4WnwX4lKNfFQDzSXAu3eh99yuJhA3Iy6+WyR8G4PAg//ul9KdtNyHGN8eI++y3TlluWX87+vHcovFZ1y/f5OUP5GXrPkcM7LEW6jAxS7e7upuFoFBqyKEs5Ta4IEdPM/Db6q7msJYBGWGixL6364UefpL/+0Y/S5dVlevjoQfrqV95Pu6zAUvzKWuGKhDYTA5YFMLLizq7wJ46lUaB96ecrP9/yL/yAXDGnFMnE23vyB3J65TID+TnKgJjRs9POQmUlXFZQ5L3mildvgGW44j5HyP73ASU2s3J3p0bFCUcxyFb4FVI4M3UWCL8M5HC5DJvuPljiseQA/PM74N609DqHi7CRAr+4z2MfhY/iUfegi3D4lYWegfT4gRLH45/frEEObwZX4NxvLEOkUygBgfMq7lewKWQiQ7xeVzq0G+1lr7V35D8ej9LZy1ee6vHgq1y+UhaXuXBOn1sxbmjgSCPjolary1R+O337G99Mbz15YvMbf6aKbjo3Xq21HPykA78sIAnpSmI54ex4jhi4VcEdT4jUzfJtRrBLWkB4lRss3DJvnuQlFlvGd3TucYVmBIgD5HBcSSHSIqjSxc/RQJhuHLa4brhILurpLOwd77jy2mnn64aLKPFbJmAgPslEOnEfrni9DL0kZr8IvwzZ12Uqrvl+HfAr+atsKyCVeJ/j2xXPNhPzOwfXfznXGad/y/sI4f84YuLiKcLEEyHLTn5FumvO/r4IYP7CWtIfaQVECrlLFfhCIOMKYaBfNuZcj7IjCReeO6Ul4vBMiH6uOf6rzAyRD2mRaKTJIFS0O33SHa9ienVx4fnbbWXOmoMRyxDzHPDSbaVtaWRnT9pKCyAtupyUf1t93JOT0/SNb3xDGvYr1uKX15fq1x6m45OTtHX9yY+K6AW4IEJIkdibQRUsgriOxCueQACQ0whGj+dIG/OA53KhfSli8hIRoIr4kdG6eQRyWqQR6XoqSg+usBBEGAQO6RDGyTpxwpEmb/TsFwIFwsdgOy3q78h44VM8+4pf8S4DT/bhNXXjvkjVWKHITP4rPuXNJq0biDqQnvxKJfGz45KvPfTOweIJoBw5jbUybYW2C1wTLswx5yOI/ItUCz+8yI/hFHxyLhLbDsMz+DZpwyB+qzSXIYHsS2L+X6TPc/hTx5ynNxRkKPwA3pNPZZuwylO4o8w2TO5kHgqVi61dh1NvTOTBPCeMWklz8Exa8uM9ywgz/VGmW71iioWSZ4i7CEPOK+URZVpvd1zUzbgXA9Km9D1fvjpP++1menB0nC7EwOeXV+ndd99Jpw8eOm/ikxYujz5zZT7Y75wydYs76jyZTJTuSy+tZH1zW6bz1vWnsSJqEzYLDHCf/V97X6TiMFRcP66ECyaKe96X08Qvp7UGRTzQV8hAEpe34hqpd5Jq81hJIn/mz+hPkzPJgQgaLBcsE641bin/Mixkg4Ao1+G+Mt0DOSwNT9FcMjUiAgRfCCAkK319NdZ9TItf0XBflm+51DmU/Yr0gGX8QpMAd6qXy8mz/rjHxcsIE48qXzkTgVdqLcPwUrUSLgsP1XmdwDMs0xfwLj+X02K3CtfNuDxb4xmrKitYJYzy8uyDftVtdt3cGp9XNzdpOBzblGzttywMGBwi7el8bnyD4+X4ieJDkRmgGdNUUZb7yrQJORwQ17v09Nmz9OLFC25Tp9PxqqrT09P0a7/yq+ng8NDtndPNcVltxe4igE0DFIWybiONlBA/gOme5y+ep4Hq+aVMu16oFfAuv8flZ2Ap1QTZ/5dh2uxHwY1aPco7Ci2PXEgzASPZJhwkqQjeadC0qmjl1ojwmk4aqkj3djEvEBHPudxroDQ2pWwGnnKpy+V1OoUf/Q4IhvtsrsE84GTLfdlYbgijAjSiNQhX+TkN4rwByItcnX54BUGCrHvA+RfXXF7AdzlfBclCBKAOOW3ilJk2XzNY85XiAjmMy1rkkaH8DriPaXkO4kZQh4DLYQi1XdmRENyRydjzQoTPPn+evvvfvp/Ozy/FsE2ZlF9Pjx6ept/6h/8gHR0dOk3owAKSthXZOHtZI4HNog5u98gnl+8+KJc1A+FxaM1ur5vOzl6mXrfrvi7hWUn1ja9/3RsJ0tb2cqsfbY4mZSAr54uiuYV+1aY7OxLk0IXKZkaW8B/0B2nrqjCP31TQXCDAiNsodLyjsiF9y+nksOX43G+mkcHh9AomjL6AHy1vYTgYaiL7fjqdpJ2qGm93J1V3q2KUbfnRl1A/ozIz0waDkmYwB30Mazw3TkC5PpE3dY33foe/nyKNTNxl/wwupzxRECY0fiTpdFQDKFxQZtp8n9MmjVwmykOMjC/nWfjlZ4B4b2LaDDk9Iq1ihj9dECyVDGWmBTwekMsgBzgtgY3kUtwyLPMsQY4P8C7v2b4PIFLjzaUJobazU7V5C4P+0Z/81/Qn3/teenV5k+5EB429RtpSG1cVrqK4/+M//c30P/3v/7kXP1iwg+dbMaolDVrX2RhMufaI8mYlcx9EHRAstCnmcVYgYaUBOxIqtGsonkX6+YcfSMiM07fEuNtsSFA5USowOXigbNxzJZ3hcJB6nZvUqFVTdW8v7db3ZInB2Kqf+rtrmjY3Thnwy8jn3eZ74E3xsh9IAB9Z8+G/GSfnIU+vBtGNkKmr/Kuq4Jao6ZlMj+//4K/Sy/Pz1JTU+uY3v57efe9dSbJDSaZY6B1TOEisFRIz8BiEsIK1MkDCNBhl0DPXnAaMlctY9s9AqpAZTMCb1VvSIjzprhiVtGLQYkU95JHBaShMGU++4uenFWyatMASnyUgZtQswPUgyeIZcH+q5EGYcr3LUH4H3JfnJuQ0CFtm2s20GMO4FcEzVkG7onUki9MHn3yS/sN//E/phz/7QO920snhfjpoNVNrrx4rhnR/fn6VhpNB+o3v/Hr6P/0f/0V6cHLqrhRV32Hhj7GwssKC2rh/vfyv1Ykyy++W9cK6Uu7AaTAfXaMMrqMUBcz7N3/zw9Rut9LDR08kYPYUL7lMEQarMJgWC3movivb/Lg+efKW4jySFXHotG4lte41j8uIfa3QJcjhNiHHc4XkyuZxfp9hMw3MYxuxqukMk1aSDE3wycefpf/0n/9Lujq/lv9devHyRVKPJv3ar/1K+q3/4e+nX/2Vb6Rmoy7mrVoiA8afJGtIMN3CVkhFZf866QusDcM/M1CZacvgkOV6ygMzy0yrZ5tk+tFgDqc3JAHTstkZ2GTaNwKZKa5x5bQiTQA/tOPrUGY2/kci3Nq3SIeXlnMFOK1S2kBOZwW5LTf918MSZjNuOU2fwLABqzLTTnqv59ls7q1xf/3DH6bf/f0/TJ1uJ+2JAdrNZvrV995Le4qCBXb84DRNRBP96TT99Ocf2ZT8p//kH6f/3f/2f2PGpU2sqo2HdaYta9rNenPFhT91J67C0+j6y+Fp24gRcTLdEYdu049/8hMxrBj3wUlqs8FAmpNwzl9pUD6bzfJj4IkdPbcypbv9fnrv3fe8JnnGtNK/+zf/6redriAjOTsgX++DcrgybPq9HoZ8cmWDAHIQmBZfCJ4rBN656aQ//pM/kcnQS48fnqTDg7Z3WSCJP/n0s/TTD36ertXxp3FBAdq2Vqup8qSlhJW4J7T1Q3KXIZctmJIQ8cxTWZvm5wi1iufrKpiAENTHOa/CiWkB6pobkzxzHsR6ExRBnFbOyuXgWQ5BEcKCfAqnBwsM/ERcES/KlMkzkxTgtoiIcc23/Csg8iOsyax4Xr3PsOmXn6O9V/HuGxTMz+YJMWC3N0h/+7MP0//7//Of0ne/96cW5m+9/Th94+0n6fHxkZC4SEO1+1B9QwTOnrpLO7o21Y+8FtG/eHHmZYZvP3nsTekx2EM7rvJ2qXy/qs/mNQN1CHqVfykMfqFgXPDlO7bo0VVjkBRTvSs6Hams2dSFHqdiTCJl/JAOA5Pj6Uwa92fphz/8GzF7NT18yCi0TO9//2/+9W87eYWHgCjAmwr8ZVBukACeXXr/rQGSShd7L+P5UuQPOd15BchoOE5/8Rc/SJcMNDSakj7nkmhzVaoixm16Vz8jh589fS6mvZOJNFTDwrQMWEi+yfSInAoG4W+jXjBPNIYe5Pw6gm6US664z+B7xYEI+DHVkP1tLvGghHl28mRS+BM+M21I+5XL77mSa24bIPLxrf2I60fe47B5FacIYgYoouoq3+V9XCMe18KVwQwfzO6XlJ/65GfFzeXKkJ+J6R+PRbYhKPDl3vrOaTgdPUHE1JU6nV9epD/+0/+Wfud3/0Dtf6Vu0EH66nvvpPffezsd0O7SQPQVp9Kez1+9Stc3XY/YVndr6fThaapWd9P51bWF/uMnp16/u7MN40rDuRj+v8SdS1Vcg1aK97n9qDvvVEZu43X4u611df9ZCOed4+Evv9DCW+lUgmYqpmWp4ki0iuk/k2XwxdMvRK9M8Yy8LbBaq5t+B6rjhx9+mGqqy1e++jULnu3/+d/8y9/OCxCQ1iBrVcCA/MzVzgUN//ysy/I50CDSWiVhyO8ryoTJHMcTUWBWBqPqXo4/D46ooj/76c/TBz/9UAysjvh8mvrDYbrp9tNsPkuDbk9ad99HcQzUn/n8+StnXdlig/JEaW6n3aoqT+ddyZXLE+WPkgImFDEcDEFRQiMXb7ktHld1DCjfEyW/x4Ezp0Aj6udnB8LPgQsiFrhRecVPQAHtCLZKD9WJouY5AxqGfHBOlxS4Fs445h3mXJGL/cld1+jHFi6/LxyDghYY/gkowurJ6ebylcvke8XFJ6yA4p5wuo9ZAnVwGItwDKW0mKUdGEJPL2UO/39//4/TH/zRn/jsprefPElPTo5TY3dH8W/TYDBMV5fX3ni+yyjrXWyKJ9/dym5qN2rp8LCVbjqD1JG2brd305EYptk4UBjleAdj5VooXpEvQF+bMoMut5kcQPiwknJdIzb35TA50Zy+r4TRPVNZrXY7HcoS+PCjj9Pl1U16JYHzwQcfedT4pnMtRdQQTe+luupW1z0WJIst3nr7bdGytDnmsZFKZk60yHgDcqGAeE8cngrCjOL5Dj8ARrwvLariCviBJ8Ksp8KqkovLS5kGP7aJPBp00/n587StzjtzssPpJFXUd11Iu+5WGD2sm5HPzy88l4X0ubuLsHu1RtqpVqV1RTiqYMzf8p7/agjKIEeDeNWKS7ACB9M/l1ThqHGkQPEjrP+vRzMQDudRS+51yeYxYF8VZLPPTA7LMhV+hogQCXGneOVpl9fw7QIEw6yBPKhPlG897zKYRDfTl8tXYub3ZRoBgrzjfXaA733jWrqMO8gPWWAL0cwLWVW//0ffTd/7b3/uPayPHx2ntx898IAkJ0gMx9M0kEZl2SB5LKajtKO2Hg56trQajXpq1sXM9Z00UfyLy45NUPqSWGvslslMG/iLMkEWGd/GTRR3WXYcsFlPIPvlMGUox8dMnogJq+q+vfPOO579aKl/+0RCiU0H9GkZmGLOOcPBgSyMr35FAqfpQdrtf/9v/7WZNkMuaBlcsVJBo2D5mXfFraGcwD2JAWJIm6TcKy0PPPkBqQ7ittRY8/S3f/uzdPbihZ5T6l5fpOm45w3J0ynLw3SVZIJBkdnV6k46PT3wvNf1zUim1Y1MiYqk1EhIqKQajSgTg6M6o1w0SzBFXizATibKQ1FMTNQTteurHC94r+saPoprUSMFyT4RBSCvuCka0M9OyEIDf8pC3XNY/puIijhLTy5v8HsdIo/73uEXIwerUmZwn1yPWdjk+KYF30WsMmFvAl6u2z0Qebto0pQyIZmOMcNepD/4k++mP/6vfypGrsisfZAeScNyzO5QDMsIcUVtuCNT8nY6Tp3ry3QHPcyGMjtHNie39K4hwt9S53a3upUuL/tpLOF+dNi2Bm41W8LrbhREYEtPV2iScoWwWTEtUK4f92VX9ivf3+eoM1NC1Btcttotn9rIIgx28UwmUzMvpjLdvKasSJgWDYvpPefdv/u3/yr6tAVQUBIHNq+A7fVl42Zmzs9xxasch/uyI04mRr/XM7fxHB33s5fn6cc//qlTvJ1N0njYS7PJUP2AsR0SmP4A5Z2pMhw5yTQQZ/bMRQCdvswn9XFgSNVXDbFwx5/+Tpi+ztBEFaOBeNHLCqblve9VtqWf6+qYRZgCHBlY+ea6hTiIOMtr8S4EVRFWLofBexke/yI84NL4kfD5XXHPnf6RbpSea37LO11LaQGx8igK4riFy8zp1t6Ik/EA7rl77b0AvzVKybgrhfVArh4ZOMKf9vqDP/6v6S9+8Fd6sUhvPXmYTg7VD9W7hYQ4o8FMBW2LmKtbczHtKPV6nDE8FXNuW8vCgJ4H3RKBK/2D/ZpoYztddLuig0o6PWmLTtqpXttT2cEl9aPdXRRD0HjU7z7YrG+ksXJlMAZKXlmbIyAsJPSDjunz7oo+d9QNvLy6kolcE60yHiM86T00zWaBbu8mmNaoXzZEKXN7kWxkbP/iPoBwEaJ4KgodaZUhhzEZCxvRWQ+mMN0EpblCmD0ffPBxuji/kplTl7Z9mgZqHI6VnEi6cm4ODTKf0xuaqX809aHO/dE8HdRbqb1f90DVdWckrduXlCI/hVUYzBK0rqehyNvlJf8oN/9dD/zAiREL8ZZAYc3sxWNAlB8oLgaHIe0yBeTbAucZDzm9fF1Lh/eEl2dRVMfL7wCeMqNEHYqfwi3rCZRuo1j5fTiSs9OP0VDSKMMqvcDBWtqC/BwhVuUzELe4pS9Nn5nwY5m8fyZm/SNpWQZm3nr8IO2396RZJl48Q0q3t2rr+VjmsLTpeKD2nIqYZyJ+tSsEvqCvGmWGkZWkmL6pqLX0XIyA/+F+I9XVXzxoq2+rVEVurgMOmoAOrWmFmFKp7wXXJFemgIwbO/1WrVqEN0Qe4GIN9MzgkwenROtYjzv0+cXQaOAp9C/lZKZdk4hFhkZ0/LlguSC5ENwHbGRsuM8vAyms8jMoL8xdAKbtD4bp448/VeOIOSVNz189V6MO3Gdl5JkSLGQiTfTModJ3ajgqGxPo2+nooJEOWw33C667g3TV6arBkvq9NSHg1tNBrPf0ziZKEn8uB9VCEXOltjierZ2j6oYVPvJzpGFXvFu+5yU3cvhlfK/iEjnC+7lw9iuuBl+jjFgFxVtLbEOOX7rme2B5nzMG5Of2gGCdXhHGF7ou8VxOJwN+92mjVdho6dfi8kgZhFPahem6Dz/5PP3n3/k9ac5+evxQpuKD41QTI45Ho3Qr4UyfdC6BvX03k+m7SDUVdzqfml55x1pkRlhhYvLj9P7ecJaa1ZqyqqTOeCQBETg7Oj4QjRyo+8QAVpSS4lAXl7fAj8133iq97IDlfTy+9n5NSG2AB3yL147jOyxP1s3rnfq0dejUtBxLGhEmnFFVUR0bLZn2kfky97gKcmJ2RSZLwKvst4xWhH8tQkD0k0S0YkwG+4EwT1U4OU9+C27UiDc3HQ8YoGHn84nt+7EkMFq4Knt3l0El5Tu9lZSe3qXJaJjqaZSuuhepd9NLzW119B8eS2Ifp77Mqp9+8EX62Uefp2fPn6Wnz56mXr/rYlOeXJdAuppJHuHs6Xe5v7OCqCdeweTrDbmE/JzzwBXplIMu74t07AovzHeIJydSJGU/fsuwRUUoKz+6Br4v/DeJaZmP3BKKIJC3R/CLV6R3H9yXRs6nKFXE1PtlCsV7zF6CfP+v/ib98Xe/l85evVQfbi+dMCNQq4pBt1JNJiMCfT5TX1YMW5dC5cMdaCLMYPKNRRMLhb9LDWmnLZnOc8Uh9/FAGktWVkNCejKeqNt1afOzr/bP7UwJSYf7XI8o4bLESyjXM0NOZ9PdB2DBO5WUTBaTLLBZxWOBxW465rDznZq7DD3107ES9mp14UdMS0IK6mkDWCZ6dYzKhUYggAMV4ELrLxeK59w4UQT+I9tIJxBiP6JJ0iHtGFRYVkwvkJYsSWNCeSLtevbsTEjteY8ifZZbSVQaBC1L/5Vb+idVhc9MzzMal884vLo8l3a98fTBezKzHhwdpu5wlH7404/TB2JcdmK8eP5F9IcUN6QcZVnVy9nZK9KPstKoFJnQxY93+lHPHDcDz0jtwErIbeLncOtplSAiGJwyeZhxw8qIFgow7klTjWTLocAH/iw+cSy9j/D8lysKhXlKUXjMGkA+pbYnYUfUXaR7HwQhR94ZXGZdnYd/5KzSOG+VT+XdFvGyeOKPvvtnapePva3t5LAl4hTjKTzjELTMRG2a1Lb7YtjK7USadZ6mYsoawlt13lXb8w0caK7GiiIx+62EeWOX1VSTxDhsW1qYzlRHAvzZ8+eywK71jhVpRdvLUUfSiLIKVPYYe8Gt1y9DtM26y1C+jzRUI/ChPNk44LdONzjMqSsOz7u7TPe0VK+qrQ8WivCZEMrp0eMocrg4+YEEClaVJ4XNRLICZ7mEcoVoJj+5QDzzr3jv9Gg+5WWEhH8gpZKuLi/TT370U39siE8vdK7OZQJP1RBEpHECyZOp7H5JWswrNZGJYLFQZdWAYzVwfzRO9d1qaqtPjDAYqYFuRCD93tAavNHYVVlkZuk9E9bl6kRZojxm6lz2ZTVWgXle1p17/pWApxAsMAt1xqcIA65zcCUJPoBlegXArPzHFwHnygpgKvxgTH6ciMvVDa+0YNrIINKjXTKQDk9uK924vn4R5c2xMi6AfF/22zSP197nd76nXAuVSxpcZWMtcUeC9U/+7Afpe3/+g7S3V08Pj/fT6dG+mLbm2YM7MSbrb9kEvi0zsVkR3SwmHs+YzBEAtI9oU2ljPu7tqv4IdWU8kaTaFXFQvj1pWXe7JgufLbxYzHxA2unhabHzRmmYwbAuMrbxzkxLJdYh13+tvgXoac3PV9pMV8qWBQEh8Yur/4qwiguORJf1es1+5xfn1rhe6VeWBhS1LDHKbhNygVw7Ac9lP7yX8cOX1H1Fs1Fo3tHpDr+KV4p89vkXqauG0gs3GCSJWcCyB0UQw3Hie5wAP1dD0pdlRG40ik84KJm0SyNOh+ny8pUk1FU6VMM8OT1xn+e6P0off/48nZ1fpYuri/Ty1TOlNRChKqLn7pgKoBFZnUO9qAM+sMgGqL40djbraSz+vwk23xhn/O6JssTla1DyB7cUTuDwCMNi4bmFhP3j3RuTKyC3VYaoywo23y/hHq8MZgTHEbPqijCAVD1XOZml//g7f5D++E++a0Y5aDe84onRf9KcypS9VZi64hw3auoSqXskExlqmQvfUzX6XO8mooFd9fVkjqmOIWQZwMGawypjTr4r4d9QdwrNy/RfrztMz1+8VFfqSkwshSCtB474sBlMRSmDscRkSq/syhB4XXdluM/fAlHOOWXLiHtdc57gDJqiDVk4xIaBh48eW+C8fHlmHN5boCWQCJeyk58TF5Chr0V8p+V3JJ0rTQGiYCq1EVlOA+Du6uomffTxJ2lP/RoWgF+LqRg4YsULDUAgtthBmAw0MGDIyev4Qwi7MquYp2WU8XY29BQRU0V3atCGpO5hc8/9hVeXnfThx0/ThfrNZ69epLOzp2ksxgVyeSkafSnKGHWLsuZyu+wOKwQX14A349HxinQA58XvDVGAVej1vHHLaLoH2zQ0SzzRFeAt4haEIMjXMrhEZf98W/Ja1W393qBw96ULYG6zSCZWQ+lBV6weNVr6s+//ZfqzH/y1Tb6jg3ZqN+vSiLvu0iCQ2X7JNB5zr9W7edpTNExrssd4rjMjIP8d9sVKc+639lz/qTRw2t5Nh3s1xam6TwwuqkJQq6ZSiHmnUtXX1710KYHOnCjMjgXEKDSq+Q3VcT35AW67TVwIjIsvwQn+98UzkL5dtGXmG6zLJ2+95S8ZjAZDGD8HDLecilFEm1DFFT2zdEWehKOEuQI4EGDV73e8dQjf+0l/aEbn4fBhLk0n0/TBhx+5v8KxlCyKEBoDkUKoncIz7F2ryqRVJ10GkJkYU4uGwTzGQGQnxEwFp8O/g+l8O/IAxYPjw9Ru1dyX+ezpefroE/Vtbnrp2Ytncp+Z2aEp8qSPfKuCUsYwaVd1zBD4Crzl+mYoh3MaRTilUPiWYd1vLR+Sjru4L2WzvFVQwjMwwzSYB6AQcqRRSmst3eK+eIo6cOW3UZcvg1XY9Thk41dkoAfC4VhS+tkXX6T/8nu/7y4MWvJov5n2WfTQqNvMZWcLiydG44HX5/Khx7ragxH/mvp6bAqoi0aY363qX7OuZ9EA9OK8PVi5kxpF1+hOjAxOjhpVL4NEs/bUVbq4uJSAGPkd5afMK4wELPEl8L3yLPuVIddxhZN1ALdvgnKaxIfmuIYlB+PupPfffdebH6xpy5mhslHT+heMIj+uZJcd4AZ3RusVIHgGZy4GZhQy/Is4So+rC4VmENJYS8oAEdutYEQ+zMtqs0ZNklLPVWlSGIlVMvSP6O/UarFKBE0MDNXIld2Gyrid6jKp+erZeDq26UR/51TE8fCwnZrqP41ken386fP0xdNXXlV1fvEqvTx/HoyrPEAUjRuSV4VXnveC6xb4ybDZ8MAKX+vgtNdi3w8RahXO6RX3kCtv8MsChjYE9wjZMkR+hAgov83vNsH1K7lfDtD3CMBo5yibaEFM+nt/8IcSki89X1qv76aDViM9ODoSikPQeM5VzNsUATSlMdUaIlpMW9Ydx6AT+0oZ0GFJIIJ6IWG+awbe9aDTnZgeM3okpvTh+dK+B2LiB3J7EhxjdadgWr49e3ubte3OCi9FPTfrSz3e9A7Ifgq2hGW76xW3m/F4LvvlPIiFVck8LQqk0WilVns/+rTLRIHNZ0F+zmHz82ZmS1hG1/viziq7gBwfhrOA0PMrMQ3D+Jzts5DJwmhhWwxb03vmqmpqoL1dNKvieinNwgzMCQDTMdqWTQGVdHkzTL3RVEHkpzhXMoGfK+3FfJKaauzHMjHY3leXVO8NR+nnH32azs+v3V/44ulnYtwzpeMiLZk2phZW2gJYwwWuBNQ6h81uPcQ6LLX1BjjuCoNLyPgrQy4LAowYMG8wcIYQxjkf/t+XJ5DTui+fTViFez0s7YFV5UEYLtJ6F5fsi/2x0FpJ+xKiPjUfRqrJAlIb3IpZGfGla8MGgsF05Pn5XbXFLjt0dIW5d0lb7ULy1ItZB/ZZi6PF73fS0BP1e5kWortQSYMZr3albevOEya4vLzxvmzWAKgWSkntbcRQWsp/P37KkMNs4ipH3Ww/FBSwmTbPxiX38ARXqqN7HAKYkecHDx+hadcJhiTXsw9wv624AhGF+5XkASLjIozurd71yH0ZQHTMV22JP+f+3ufx8ZGe79JESGzuyZShj6PyoWHbew1/dnBXnRMGLpRClEeNslNV/iLQmUcUKQNa9zZ1aDgx/7DXlVQ9T52bG0/KPz45TIf7LVsV/cE4ffTps9Trq/8kYnl+9rwYWgdUNxM+CC3qVjiAelOPzAxlPGzCOmMSP9IwbERzuDW/eI4Y4JvHXAbJsEIaxzvw6ltbC263orxFDELFnSLjl9s2uxwnwssvP7/B6d/yStNE6jyGWcorVqgJW+m7f/rnnoNnGmoqPJ+qy8J3XSfjsYX4WN2kmfqyCOy64tZNrJXUkYD12Upqjx7rj1U6GVqpaj4L83Givmq9cZgq1YbM7YYHKfeqNc8cjKbzNFb6e2LammiLJa03N930OZ+RZP2yBAAlBJ9RlahTbteyeyMo3hJpAoU2MjbjGFfFNd8D+Tb7rUWTH5YD5yJDS2sRGUK/lVtFjJg+W5CwQhpzgtFJjo5yOX4G+4NOiMiIL14ISDNLHEo2E0LZL/n49ET9z2ma9GUaK7zteuWF3GH1E8P8aFYzAO9kRtGH296upbH6MeS5UIe7tbeTDmoysZR/XxJ2oG4xAzS17YXMp5102Kqm43ZDpre0usTC589epb/9+cfS0MN01blKT58/VXhWoIT5DrGxAivKvWpI17tUd9e5eM5hgOy3fG/K3vAr7jModnFHWryL9x6FFe4g2hjtpN50McL8tIAE526kSMVl1ZVYC/nkNnF+pC1c0j4cW8M0kTcoismU8rIOCAWYqiwEAMY3zI7kr2dC289BivEI5QUDff7F5+kP/uCPhNfdJEs0HQr/LIyvyAJiQJF0mabZV/vtS7q21FbEu5EATur20FXa3ZqlloQ32/WoLPO0/UE/7beasqS2U0Xtpp59qu1UzeScyXS7JWZVGcZT0Y/6w/ti2joKAcbt9tIztfdANAeGqEFuO/DIM9UN50othTTPuBye1uCXn41bhZeP4wGbQt7xinSg93yPWwpT3wsHokXvJSehcgK4MhAB2PQPIHwUIIN8ltc8pL2ZbhQKkgigAZiaYfMvRMnCabWWd/GQjifTJQkxh2u7dQ/3T0WQVzc9v6shUWkYcTpHzWBC76nR96t3XrvcnVXSp5f9dN5h6xYT9cHYrYakuQiB0bmff/RFevbsXKWppKdPv5AZ91JEOluW0XxWqkvZARnRRfUNZdxtht/0y/7EWKZVgN6ufg63uhpMXL6J/3qHYFsSR35TSrPIaFU/pxdkC6MY5AejEsZpQnCkV4Tlv6U+4PRIMsoe4cSMes0uHubH//h7/y29uj73lMzJ/lE6UT+WbZcQ62jY9+DT0dGB25kuyURtcbuopKO9uvqjEiLM0ao8u3rPjq3qXlN0oTwru+mqO1Bh1FWaLcSIA8WX9lXaVbU/4xtoYg52ozYt9aVbzYbpjP2sz5+98NnCjGdklJZhWd9S3TchsLyC19qwlEaGN6ZV5LOZJuAuZXG/Bm9KDFi94/p6uCUZ6FUudK5AdqTBlRE+pCVn/tBQSF1LXHHIXAzrfglmi6Q+KWO2ThlNFE0hbcVuaaa0buTH4MV+Wx11PU+lrW+Gk9Sd3FlDPGzW0p1M34tu34MP/W7XUwbM37ZqLKxQU27tpo8+eqr31+Lpefr4k49ST2Y16UKAFIEy5/pkyHXiR52N6qJ+OZzngH8BRBpxXZqnhQs8k0ahQTeulC8zFA4oLo5JLzdrv5UTY+laKHzn40UPBcNyoiVpljUr9cqCoAwuXfYvhTdKhFva9o++92fpz//yr63FGwwW1RgwTOn4YF84Vj3UZg2Zybcsih+xi0t91MlI7VNJDbUfCyrYa1pnDlbMdqi2Zvs8I864moiCFVJbajtGkyu7zO3WlIPajnKhhXXPghz6zWxEYJR5Jq4fDEbp1fmZ+sXMWKy3Va5rvrpNFMras9DE2WXNDBA+4uRr+JWvGcrPa+90Cz35Vv5uY5wLUXKbCZev+V7B8Cnu9VC00X3g9xuQ8/ImZhHdF1889cFbL1+cpbOzs9Tp99SQ1bTNwJOkMMdjNiUtka51tCmTbqw9xqySZp2PJSHnYt5ON+3vztOjg5aZeVZR40ni1mVSnTYWqbUzkWBAy9bSfj0WXDxU/5bT8bAKesNxOnt5oXsGNkbpg08+8BRTRXRsKVyCXK8lfoofcF+dN2EzjPFbXAHeQh6+l190S8JhymbHM3Ey4y5B3Ji7Lzk19Ki7Jbjs52cxneJ7YAcTGEFJOUplzMJgE0h/rS6EK8Iyd74j7Ueb/tXf/Chdqg/JGb8H+22P4Daa9VRVN2Y6GSocYxuTdHN9LdxPLNAPWVSh9u4NB6mvtrmdsYB+IZOXwZkk7TxUXmJ4sW+1Wld6LXJVv7Up3FSUz1HqDSTQRSNshgePCHFmD473W/7WK4zNqScoBPrSUmXLOpXrVr5fmq1lB7rUghEiwG1auCzUcH8nMDojHoNn5O1WLhcIyAlvXsuQE/K70uvlbZFcOZzD4lf4Y5aOxqP08w8+SIdHhx4lZM0xuzoGo5FNobkaid0NmAV1NXhFzExD4EiDeb0ac7CHB5LetXQ1knk0nKZd2f5HYuC9+na6GMzS5UhmuM8alckraVyVSbUnwmAqiEl9GWQ+l+fZi1fS/CIGERzL7D79/FPlzSqj6NNmyPXBLbXMBuT3GSn5eem/AZai8l+5Vbr+v6SQ8nMI2vvSC5t+5UxqG37iFV10D6M6Cv1EMYHKwnzpJrOW6YQ7nnPetBF3OPwZRLwWDv/LH/5hOr+6FGNJWLZaNpnZkH58vG9GpQ4MRjE+wQ4vgKmcwQyraSvVlP6hNC69bObwb8XkE/dX69LA22rXlHr6N9H9VJLsTvQynjJqnDxwgwZk7t79cqfOjq+q3rEZYSGhcp666tt2utcxIHUPLsv4ff3tCtZCwcl/Byjj9j5AmfgwuOL5jXA/QcivXPRlXm7G4i4Ewb0FkR+xmcphWxXI5BCuGWuMRUU0bEXP0xmd70hxrjgtMWV1W1KycZzqujKaXJO2ZWamNxn4+uigJs0a8UZT9ZXo84oxG/U9NaSEgaTzoN+V+cVXtXfT0f5eOmztpX31cyAI5NjPP2Dq58ba9/Onn6aXFy+l0cJszOB68VeqH3gyY2xADpPx8SZXhox3fPkfAz1YJpvu9bgZot3uTz9DLNfUOzEwgxzMW7K9jXusPdJ4E+PiG3mEX9ZAjoMg0/1PPvjIK5/QlrTVg/19MfOdhDSju/Q7xUBM84k5MfU5E2kq5h3eytrZUvsqwD4DUCpLZYsN8Kz0wkSk7rc2kbdEP0x1zSeiH+WJmc0cMIOq0AHaHeadS1MxZ4u2tjWhetPvZYqo0+l5d5k6ZqZB6nCfAyxQucrZB3zIMfORH301NgLehP8y5PTfBCSBIiNfZbwK/KYGLifIbblARckj1Xsgp5fTxrShn0FfB7OE3TyMjrEEkQEIMvD0jjShR56F7Ngmhj+T7ZKcYnDOjT2VqbUvhrzu9dJYjXGrVmqKuckHpqupn3wnBqWvg6YeDCZe97q9fZtEK+oH19OhGLdVk4lMvZTf+WVHjPuxR1Lnt+P09Oy553Fzw+V6ZBxwHzegYoUnYPnuDZDTKvcdl6DHeM/wCTqC92RS5F1oyzdBTjunu5l++R27XRBozKNaYxZaH8j1vh9cko0wgfvPvvg8fV/92Ktu34L5qN1MLWnHw1Zbhsxc+bDVciZra+yznzqdvkxjpvA4rI1dOsljD5xSQr9zNlN7LEQzyGTRBBsBEPwcUM50IZsO9qRBMZvBWF7KyQZyowtaUneJDe6e/5TQ4MSLuuin0xl4Kmo4ZMte1scBZaxFHWF+nnizchmXGQ+bOCvjv4z7ddy9GRxEcdQuiiAEl028v2tiAQqnv1ysHLecxvJe6WMKIQiRwByxsdds+jycprQsp0vsCMFMDeypgVm+xhA9Erg3kdksictKmh0hl+X9bIQ/ULiGJDMbn/uS2pjUrHq6nizSKKkhpWUZxUSyjoajNPamhKnN56YkeUt512V6sG+Rz42MxlOPNFPyzvVVev7yWVEPGmwdL8t7XfRm7V2GHGfz3cqfJ2FPTJjvYdSsa3M8fN3gvndplu+WYfQexvOOF8IWbhkOp/vsDKKB81evTPxYPQgREYVFRdmRZ5GAr5Qxlwc68rPqwFjAH333e+knP//ADHvCSYhiKvquHG/bUH+VaTXnLkbitIqh+pSc09Vs7qWmmHUx6KQuh7WpfdGMav40wqlLxOwBA1JYULvqs3Z6Q9MLXYp6vZmm47mnEj1yrPakpIEv5aWEWDjjjfN6x1G93V4/tsDdXIcWJuwSdzHVBRSXN0JG5yZ+y/ek+d8DxMMKWBuIAsqJb8KmfzluvFNVhcxyegGreAgHFlVwJCqarD/se6SQ7Vd9n6gey9Lo0yAZOcgKE5q+LLbUTA3cGYyVZCXtM5DAwJIYryH76bbCcTOVdNIUk28v0sHedmqLqxtVEZ+K0BMjepJfZZsojeloqntpZon0NlNAEg4s3EBCI+0vLro+7XEh5n5+9pkXsquCUVfqXFRxra5FVTMecRkfr+MlgDBCi1Iu2EIJm/h5LphYIQjp8AyowM7uQQoP5XT5D4HRD2eQCTbiXS6zD+sW+FlAWmTQ60vLydJhswbh0LTW/kQrO8oJc7qpSZdyKj/yVH6JrolKxtzn58/O0mA0sZXE1BtTPTW1yeFRU0I5cHM7mae5hCOa9eCwqerKVuK0Co4VEtPxeRdlq/d0T9SdUjdoLia2YSzmayrNvd1tCV9pXbWT5/EVcq+mPEQznF4CzSGsEWRMI7KVj3p7HbPCM2vBcTcctcpGfBb3VFSvrMiM3yJO4C1cxmEAz6s2yrAKvXpDvLK7D+4LI7S7LORiKDc8kJ+zX/l501/J+t6g2/y8CrcK66ucC+OnAEwxBgM4ZoPdHQwcsLSNyXIGm+ZQjCTjrZiOIznoMU1FmB017kDmT09MeN2XmSVmp3HmtzseTIFhRRpuWE5nx2C6U19mJPN6Mp6lxZQ9tZV01KqntiQ8UpZzZsd69+LFKxPerhp+4q99P1e5qa9rQCVUp1U9f1m3Cb/Ue/1ou8BbQUjkTQBe5HBLxzv8VxaUmdDaN8ICCDBM488++zxtq57eFRMB/H6lY0OgvJ5HCA0IiX4mEyuYmd/7s++nl5eXaUvtVa9V1Y9NnpKxCSs8z9VduZW5S8lgCITkVMy6K3/4k7EIkYBkgNpSwkQtxQSBzGf6sru6SjMr/lAWFHlDN+r0pMWO+jxoUFliCCC0P+2HOc3CipmYE2bHwcjsV63xoSu5a5W7Ixq8kvJwF4GyuZLhPGC3hPI9wPMKLwbaqnArnN3vMuTwGdbCRBbwyirhHOgXQimI463yCMCrlHEG+ykuEokkeEaaYRafnBz7wDWQy4IJbwiQmVar7lk7sFxxMrtNNcV9fLhvk4ZwtwskKMMRO7G+VOlxHAmDS5BSd3QnDStNLQkule5lcmzrU/c39aUFbtVX3ZHa2KvzTVNmNPVCf+zP7UoInF/cUFKVW9rjxRe2DKgEn9Yk/ZCu1OZ+vCmkrxkfZbzch6My5PcxMKK03HiURn0y5W1GIZzyQJhkE85AubyKK5gWB649512kBeQ55JdnL9Ph4aGZljeRrv4TrnDOp+xIh5KQPgyrZ7o9P/ibH6Uf/PWPbD2xA4ulijX1HTmji69CeCePmELyWGi99Wo3BhrrKt8Jc+pq+zH9UUaKJWh7sq4uZBV1hlMVg/6oTFu1YdCAWl75t0Q72zsyuVWebVlxQ/WTWevM4BNzz3UpALAZ38oR/Vl43dofOmMmgxkL1jCzrJExE+oHGG+ODYCdwB2QcbsEbuUcSnVahiZMOVwB5fhr6RSQ3/sdr3WFHOJthlV5DJsJRuT1ggYxrUdcPheXnA/+EJcZV+8wZ3hDv9Ub3GFE+TPJzgYC5PueV7XQIKyOUmNXJDklTZGGDcWvMTpI34bRX73rTCmPtKuk5776Ty01CFah2gZZ7OWQOzLHOEN3IMk7U3gGh+vSyhwIt8dopYiXPjGMe3nddTVGMs04X2ougoKRch3Bhd3Gz+/4FbhaXgu/JYryzRuApi/jk/hxwoi0gZglz8dmR9pmJDNulDP7l59JkTB9ESvhOa2ftBmhzGFg3rJD22RHAly4lx60Vvvi2Yv0/b/6oZcHkj4jwy11Y5pqCywZ8E66nNfEKC59WMYwvOSQejKfqvcY2aPpJPUnYiRZP3SX2MnTVnvubEvQsuhfZV+IqbujcapU62lK64pxF2Lare2qTGmm91TGgnHjsLSFrygHrCoWWhhX+o2UDub8TedGwp2pJ6gPvK0EX8aLK1c4P3Orq1MqwmY/IPuV3+cwhe8y7U23AsKrbeUdzwAFyM/cO1I88rzKrPC7B3JBDKX0uDo9/1RA+4oJZfpwXjHMaoYVIvHHHPb8qBBHX2ksicpIIekzR8fQ/Q7mLipTDbizu5UeiuHqO1WFJbw0s/JDirYxf8S4zZokrsLx/Ze5JOrdYiKzeiSmZeuXmHuvmh4ctdPJAacnxIZqFqHzAajBcGKJe3l54cEKTomIIX7qo//Luq1+bwK/NWKLMBv4zA21ec34h5gifXAjAnQCwajWCg6HD2Hk5FcGjwzLOV29upQZe3x8LKEW4wz0QUOwFhEKIPzyR1w58sK8Jb3OYJh+8MMfpafPzzz2QO7MArBQgrl0ysJUUgz0KGPdM2DIkkOENOXlfF9WwS1k/ai7K4Zd2LzdF2O3VD4ONBip7aZitpm6RnUx8TbC/nbL/VeEGAI1f10d4Us50KQIdeZmMYspS179JUJzfRZq7776tZyfPBwOldZt1FlpOhGguBZY8C9Dpn0Y0Fc9Z7/AF55+XIO1dFbJvQFCkBqcOH9FJitQchQ8X8n8lwKFQxs4OSRWSK3wD4Ihr5/+9Ofp5OjY4WBYm8JyuzKL0Y67amzC2tzRz59LEJLFe563ZRDBh76pcRlx3tteiFBkFqlqrKIZiRhEWUSxSUyZKEpf5tZiS8QD0SvMdMp87rY0bc2mNUvrkLAID0zkq6uua8CI8tnZC2UnjWB9gLbA3F/HW26w7DahwISBer0JwDuwSiPagitCbTrjCwswDmt4WSkUgy7cq/iKF3F5BnIYwMyrsHxLZv/o0PObbP9iS6NzJcvNopULLoDRYBIw8eOffpB+8Fc/8sg7TMLgEJvVfVYTbSqmMyzUjoz0MrZQaMO52pfNGTDpcEzrifHE7Fg9XrqoIk/ViAMxLINTc8WDHZnG22seqG1ZxriT6tRdbUb7uS+tslHgfKyRp3yEGExkHJYe04iMJCO0OIyBcvBh51zNTP9AuU3XXdAL9+Cs/C5DTuPLAGulHG/9SvwS02YAgYZSRGeHtNmAnPgqHPEjYVz4Ejec/eypbJUeh3fBAIcHB3pU+rwUwaA5aCQPNtCoet6ij6O7oZDKV9K4Dm4xn+lViYlFAP3pIA3EmUze0xicRN+XiTWUHycWwNS3anD6POgn2rG5p35fZZYm0qQzEQ7TP8ztNkRwHJXCBnlS5OjNfp9TDlgrfZO6vY7qFISg7NbwtapvwAoj4TwgtBFGCRS4YeVO7NoxbvOvuCdQMOCtTbj+oOtnLIXQoAqjZDE3gVi8QljhYTSUCTjykbKdTsejxcPhyJ9fBI9ol7HMUe9pFd7CfOQ8asqKZQHTk3+UhzZDXFEszOEf/uSn6YUEAJZRXfhrSKjStaG07GGty5Jh6SppMpZANdjMzviBzyBWmgOpV9qfOVhmBjgKleWl17KOLlXevvrMfBiaPj0b5IGdWiPt1JsWRqx0oh8N09I98tcTITfVhalFRgOUkfGIctCdBzyxyOgjj5XPncskTat30efnrmgz3cWz6l9qQyUXbVRywGYbFwn80pDzwOU04zTGIuF8zZkun7nKRRXjPVBOqAwoMyQlbyx9+MkvrkpXL9S1STfDfvrJD3+Svv2NbwhJvfTxJ5+k7njk9yCZBQ3kKRyKwSeWuCx15ESKicwkvjTAxmcGI7hnO1lLyGd+jngwB8fOIJn3ZRozGML4Zn2nrj6PNIAadF+albm62zsOjJvLNISxF9LQi3R+07FW4AQ8BikggsOjA0tikN9q7StNvuodOFBOJkoGzTIO9Q/UmRAJQTxjUvkstR9EKKeaSEv1vLST/j1hzCxmEgg8GHoiZu32OzLTL726S7pRZuU8XZyfiyH7PiL0k88+N4OCU85C+vmHH6i/+VTuWfr86Rfqmz+T9XDl7/sycsyI72effeYzgTsy/z/7/NM0GjBv2fGHrW4kqKj3WGVj5JW0YXKYg8GnH/74p+m7/+0v0oC5bZX30Fsfq14i2pblwneWMOVnY46SkanqlWyyFoQc0mNueDReWNjsMUUnP6bavPJJ2PM5xsLHntqqVWhgrC52+VT39i3sg/GEDfrN0gEIMvq+bP0D73xDhzZhUQ9+Ss7PNAsHvCE06IY9eMQhgNX07lvvKB3CIZqiBR2Y/0TTP8qEX27rfO/nIizXFe/4YlCo5a8MxIW3yvwYwFXl6Xz+E71bBQBWgQK2hQEkMejL7zbDl5+l4Ajg+2V4sFYEWQgJdQX6QET0u//hd9Nv/cZ3pL0u0o9/9GMx8tAmcYP+lZiTNb+x42OYDlp1J3F53fHwPydPwLQecZZJtqN4D0QgHAaGlBjLvzcRusRU+7Kq95ussopDsBmw2mnW00G7mo7qktS1ZtoSo0zVT6KeF/1p+slHT0UUMLpqL1P68elR+s7f+0Y62m+I0avpK+9+Nb37zlcsFFxNad7lVIGcmVIEqmKIMYUBboQXzNdAD325sGDoy910Xno/L1MTx4cPfSYw1EdfbC6BQl+cr4Kfn79Sv44dKbIkvCRTTCAT70bMyRlCZy9fiqDj+6b5g05Mo7mN9EcfkTKikZifnItQGVXG3IahDthwoTjtVivxyUVGpgFOS4RwOKOLqrAf9eT4QHF30/f/+odyPzLzsDOK0xX35M/XHt5++yS1my1vdGeNN20Tck916o1t4ZhKFrsSQjdJzeK+zLZMfw4mwM1hXiEZExgeVGcm7Uq7smhm//BYLSRzvMHZYRLAqsdMBILpv6WuNANrAJtT6AZRm6osAfjNNRM9MEd7KQtkoPff/tb76cnDk/TP/hf/a72XNheeZhIgaHKOu4nCArpRmZb84uuKCct8Ef95i8AuHkqwyU/QdI61TN/pKvXMtABXZ6i/7EcEyJYniPmXgTyy+BrgXxSgLgn9R3/x5+mTv/0wffP9r6Snzz/xbpCeCJO+CNqP+TlCQ0xzMS3yjj6NzwUSImOxA3xR8ceZmLxH6zG6yyQQ/aqLPh/0304n9UpqS9MyBNLQlemB3QYEJ1NYUnufQSwR1kwai5U2o9EiffT0Ij277noXCP1d1kS3W7vpt37z1631j/eP07e+/i2VN87OhRipN4M59I3QHgy0YClwaqDku7UT3x9lYTybI15dXslvLKJhM/Zn1gCjwVha/EBarmvTDrOU9Oj/DaXJeoOBV/lg8pLHQGY7/UXCYdKzpZGdSywkwGpgcAUGRlMzL8lZS/iD29kto6cyGVV2GJZptKPDfQtK2p69qzAhTA8TowkZBEQ4obkQsDDJlQQp7cJcr81N1YPTL999+6EXU9B2LKhhRw9ajZF7TOB+R0w77bsMfByNs65ZMDGXFXY3k+muurC6ClOZbg+jwvS7mYfnG68INerDYFbr8FDMzQyCuguqHbhnKx60nAUVfVt2EdUlqPm6nusjQcPA2SfPX6SOTPWT41b6ze/8Wvpf/uN/klrNU7aYiKawEJT2rTjEWon2JkUu5Wt2ZVAceZm//Ir4AWU+i1vCrJh9HYL/zLTc3B8oAKYFIPgM5YTvzSRSlStVgDAKyyL3Wn0n/cff+Z00uOylR8cn6YsvPkxXMsvYNxmjxspPRIlpeMcCCzU0/Z6uCJq5t8lc/VkxGKPCdfnf6j1m1FjIPx/QX8KU2vIE/ELEeLg9l7atpsHsLrX32C2B1m143+VC0rghDcURNBxFgtbbWlTTFy+v098+O3OeEOHJ0amIrZP+h3/wa+mtx6feDfPeO++mJ4/eUkPGh6thSgj/5vpGfTj151QOCIrFGQx0fP70mb9Hitn6XP35Xn9orcWupYHMUNbR9uVHA6FhWyJ8YUBIYdCG/jyryCIOc4qMvE9EaOxDZjAFgmqJubpd9XXF8ayzpi9LORDILCLgSpvh5y4B2kt4pP/mVVEqN1YBYw4wcmzmkDBDKqjtOAANDY7pjmbzvKqI3yuQxLD0ZTkd8fHpfjo9ORJu98SwaPFKujy/cdqtluIpjV5XfefFRKb6QP1fBgBFtGrb6bir9sVsnRWjyWIuWTI7wnNtW5YOXZt2U/53wYBqx9utWppKtbKlc4dJYNWHI4iwQig7Uz1qMgtAxjVYpINA4OwoBik/e6G21jvOE/tn/6t/kv7+3/uO2vn9NDXdUm9xgtqSdjbNm6jjHhfwumJbvQOCl94EX8aHajESezPTulCFHwsTeIaV1guwAof13+uS4rVnEd5OfTv97u/9ftrdqqY7adeXL9QHkxnE9i02oV9fXaeJiJPGQZp6YERpsMwRrTEWsvPkPZ8H4SjOsYgTSdpRC4zIwxpB5iCDESKsQ2kZSoipc9BUf1TaFqaviqjGdzILZVo3D2RWKt5kOJeUX6Qffvos9dWQCA1Mzh1J/IcPDtJv/Pq3vTNov72fHj94rHR3RID99Pnnn6tZFl7dxSJ3tCFf/n7x8szfYXl1cSEExJGxAzEyjINGgGnRXjQpJyzQz8Pcox/NwA6aE+3XV5r0ecEFzGezVvXFYuCjwyzAZ06baSm0Kf1NrhAt2thxlCdWCANNMAb9Z3kLl9JMqmeY79Fmd7IQ6DtirpnoRbjZ7ObqrZMKQ3ruc6qc7FdmeeDxYVNMe5AODw/EPAz0ycxVHRjxpe/5/OkL0/Dd7VB+7JdWutLAl5fstglLaWs+U9sJH6IhpvHaSvfhnsog0/iW9pVr7HMu1J4EueqmulDXHQkvBAkqBwalc8emFPrR7qaor8pXLLwOmXqIGV9cXotppdmF33/w9381/co3vp5+5VvfSXfEF37Ah0UfPFDwQeaHFV+smNY0L3/M+gwxoBs8kqHMG2XY5Bv52Hkgyo+lRDLkCMx9AeyAAe4LC7jfKoAwAOITdjM8x6EuhLyLl+fqn1160T/9UHbtQKwVvePK6CTmHkwLkQ8ZBFGaEKznIvUjDKmzEIMBgyFabqzGkTY45gBsTqZXQ9BPJKmmGmqh/Ecyc3bEtGhj6sfqGcwsBjPQiMwFX/dkwo5nNtv6MklJH6IEIC40WkeM+oWIj11BP/nZz9Mnn33hr9F3ev30SnXrqA96Ka17yWittAbm7Y3eoQ1YCQRO6atyzyZn+phgEWbE7KcvC+PRb0TbcR4SzwwKsfsFSw0LhHlOdrggXFjNgxXiT2vwg0iLtsHEA7BmMA0DveSB2QsuaTMW8E8Uirhqh/JVP0akeYeQgehpXvq3aGqWBDLNg3XUlNB5+PBYzJd83MzuTj1xYN+Wyta96aQbdQ2OD9X3lTnMRhHM1qGsGo6dOWD9uOihtiMTVuQ3nCKEt9Khuic7atPFnfITozNyXN1ricWZ5pGwUT1qzAeqYh7sE1N7ugcv+WGRQI8IIQbMwLNemXHHdL3koAMOT2+py/Teu++pjZSGaIRBSgSeK1xApu24Zhdg2i/dx3WdYTMEryFQN+OvnhVT4aJq4eFIr0PZP99z3XRroCSdYalw5XsQRgGYH+OekwamHoxQX0UEwQAUnwLZ398Xorb8tQGIqbnXTPvqd7LSBRNZfKc+rkwpmFtIJ8yOiAKNw2AT/ScWkbPmNbZ4Tbx9j3RgfD7ipIJJNqo8ytdEjEhVelUx553SRIvHFLzCi/knE0ZQb9PTZ5fpZz//LH308RfpJz/9KH362bN0cQVjzj1NNVTji5vSSESNIGG+l90qog7jgi2IEBOjsAy0cLQKm85RfdtiHtGfwi2EW/Xn9b53o74vX3oTMyxuJ2Y0BZawUTdCWoxFA/1eV3FE0GIKa1XaAawglJb4p61C6EEgOMoR4wFzVX0qgaW2EOOgnVjIT3+chQwICXZU8QZcUW7iYO1gJtsEV/Kcv/Tw9CQ9enRipmDRzF6j6m2QkkzCIwNSM/Ud23Lqosja6nS6KtdCggfzWlyuMvHhrbNOL13zseg0llUkfEhDjsfSyFPKXFW7S/MoUw5442xkKAsV46WwujIXjBAIZoBZad5gWvrWrpM8mYaC1ny+Nmaz3nGQOV2LjLlNyDiN68qVaT3DazxSwLr//WECaEnVA8FBJe8D8rXpRkOoIvq3KkyR0SbD8j474E0F9cZrSeZY53nlHSYsngBRLrgQCgIZjGJdMkvh8ifv6RdVq4xg7vicIHJiZJG+CP2ZvrTYkxa7e2apJ+bpTui/yuSG6JRAF4ZXPkwB1X30KtJYREIdSU2NyjNEi1ktOnAfDUGANKaxOXb15maQPv38hfqoZ9K29DEVUGVmBwxaGo3alXZGEzG4hWZDOw+kKVlxw9m+QwZb5A8RQzTBiNKqZjxZDnpmIojuBCuB0H4MJmUNsr0ts1ZmPRYAjANzxkAL+08Hbjs0NVoZ5o8VXKGl8xyzm0h1Z9sjU2fMSTOXjbm4pX6/F+KLAWgX6J6pOCJB2PR3aQ9rMN9v25w/PtpPx8eHEhwx6s17+sWY2v5sqa4cTFCtHaTRkFMVMZlZ8kiYLW8CeNYZpc97Ej6VanpXWvgrBwfpsb8pq+7Utiwk0QXz6dWK0pwMVCT61aqX6OqO0W3TNdSNVqauIbgw56FLBvyMDdWbcoM76IzyUjdbPxLAZ6/OJJBUVtGfN1IYh0HrK+AeuucekYE25R6IcpQdSXAHHvnxTHqWKyUwf/kuXpCmwyFleMlDdgDzY9nfx20WTIuEjlUm0DvEI3OBQpBB5OB7IKcV74qXAvOHbJ56q23/ihiQBRBeygjxzOl3SkNJC3W7Inyp1G2ZQpgvZ+rrXolpBpPb9PLyRo3H4AV9K/WXZBZu7TbU5xuktiR2U2YTc3J74jwGjXyCvJiEQY0DSX5M5eb+UdqqN1LzsJ1aDfV5hcGxGApGYfF6U33v/YOmNQkMy3woRFBRnlsyWVVsaVIxqBiQOWTwCdPS50NzogVYTwvz0X/mQDG+7EdHA23VExNjFoNLcIHFAHgEHiYWMRrFvBc+wSnahc9hyGizFmQvMBpbocyY7DHFNLZZLV/aSFFshrbYZWOtqrbVW7LbEj7UnfQIuTWrAjPnzBTWHAbWLZ9ctGmt9BFA4DHW8IppxOD0m1kG+vD4wH1WhMtoJEYaSRCrzDAt5UMY0l4wxEQ0cHHJ2KzwKG37qjNOX7w6Txe9nq2F48ZuOpV2Rrbe3u2ka1WRo4PmW6INDjGXsJvTZZIwXIjR53eVxKHm0+kQ6a5yUzYVXvERUgi+inAdVCnFofDbFcoaTI21gmlPV+Pqumfhcd25VPiJ4gnfoh/MZCDTM+0BmVvH+538/Q7eiWvZKXszqVeeCf/kTBeHQtFWLpvjk2L2wQUPhfB1pitmjRfhNp+Xfi5A8a64B4okllBOu+zyIMeDB6c+yAt45+0nkqIwFuknMd7YJh4jsNZyerGj591aQxQkaSsETmd36bo/TD1J6y1pR8xQ1ggvOAdZErNZuU2tagw8tUXYoIjyvlT/qisTl1FHnxFFP0faib4tWpC+FYzRliZn5wuNyjQUGoNyI42NRhNFmLks+BjIlKLfaa0qgoIpeUd/u8fJGnQBFJH+Y1emLO9IB6YK4UkfPoQjX0tjVJc4hDdziAk9si4BRL4YgpiTAMyeP2sBAwFodvLAauEMJq/NNdNhfkMQInSV110LhUELqYXMMMhlTGGsIsJ7FRN5qv70+WgPKpMHpjzOoHvqd3V1mS7VX0WjonHrLEkVtbJJgKmqWmM/VRvtNJM1tHfU8Og9izo4PHy3IiatsOClmUaTRXpx00+f92fpo+44vZAVBS5YW34rpmf7Jm0NTfDBrgZCx5o/pncQMlYsxik4gv6gAAbmxOBqU2iKdoXWqCsDiwzQsWqMTfFDzqyCzmFICSdot0zLwCYflO83w9GfuRWeEKcMokn6e0CNs66kvYx/p6f83G3TvQfQXCM5pWWmvQ8i4irzDOG/KozjO61IJ8crxy37ld2hEMR2PIgKyc3IJauPnCD/UTGAkIqEg2APqpXU3LlLNWkHFlIwJYIGwqQdiok5++myO1JfsuK9tRAYjXd7O06PWzXFZ4Kefpa0XLeXXklzs/gcpgfXDDRh8nmSXsR7JFOPkU6IhYYlHmWn780oLsQCgjGzIGoY3ghXmSH+sTQg5WZ+lOkg7mEe5j4hZNIEbB4rXeJxSgdp2Nzck7BRWZhPhcEgGrQ4jIQ5ByGiZSFCBohgPDOq4gSximFFnHwjiUE9BA3CiM+vsGyPerbVDkxDgftoRjGm4qLl2fmDBUF6TI+QnplXoVioQtcJHKtFzbjgB4up3W7LQmnZMmFOuivmY0CMcQHm4mcLCeRtMazqdHV9Y9OzJgG0W1P6MnkHqu/leJ4up5X0YshB9SqL6PrubpJ21PZYFyql0hFpS1hZcMjiYXEMWpFlkjGYCa2JgYVvVkcxIo2mh7QmLKRBA1NnaFABURYITKbSGFBECJ+fn7stPDiocEu6/xIgrU3AD6GB9bXl9hynbeHYo+8IUCkXcAx+wSNAM9BO0D91QUu/dnIFsFmgXMg3FXTzXU5rM938nMNCvGgKEB2MRf+J+ViZrSIyD9KIkVkHShi+zwNSGYTyV7wVx4SqSnpvpYiLA6xZ1XI1YP6PnSIYIFQWhkjpkcyt9w72UnNb/eDhwCPJu3ttEw3ECcHRb4MpEBqqmRlNBddd1rLUAYSiabZcRvqJlJ0FE6xfJQ6MB6PQpbCpqgKEtiMeTIHWQ3MpHz8Ll/gJD2ZaMYrnQXVPeUKWKZDCMErLvuDhMA4OIF3K4c9D2lKIfq5S1ZWvOMR0i4WLrqPRQPfSdEyDqezMI2PpkD5bHVls4gX/rB0WjuJcahG7UqSs+NGW+AHscYWoKQOnWgL0CxkN7l4P0kCC1Es81YZoNBZiXJxfpc8+eykrRaZ5cz+N1V4/e3aZPnh5lV4KjyR90NxNbzUr6UDdlJHM2fHWXrrVi7HqQTeEbxHDfLQfi0qAuXDCFCDoov0QHCHwaDfRgXGzY5y5PdUelBuhShjGA/ZkHXRuOmqLRTpnM7+Yii4DYQnzy8B94SAlf0xLAk9okIDBIlBFaV5p3GjzGImHRmBUz6XrnQWG0qBNXZAyROXW/dZhxehllyHH5Zpd+RnzBEIEYDyY8/joyMvj8pQKwEAGCKZ29NPoj81lOnUlhC4HYhRVnMUGSCUzgQj7RlKZ6QcGJXqYYyImRm4HtxxsvucJ/GNJ0iM5zDeWQvKl+Roa2NovRqLRNGgBFhs4bQFl9weL9ezFDGp0NBEfQuY4lNUoquqlKkMgaGgEkiW1/GkU6k66MDQMBtP5e7t0D5QHDI/m9RQPgkv1A7+Ep7/JaixPTclRFra+oUERdqSPxoNBjTfP9UqD6R345Er9yMdMqDD04bB0aCUcAtPlFGOMRcgN4Z02t1WgMiiqnwmNkOGRaTJ2CVkoyQ8r5lxMyY6fzEzGrdIlDJsdWtWU3n18kJ48aKe56qmKpgOPHkuQz7bSlSzT874E8BgBO0zVJA27o76nyuBFOLqm+cTfIHYbYW4K59VtugShocjP5Ua1KgxaNXdHcMSDdGlPFALWEwzPO89SiL5eXUiwTOQvjQ5zAZv0vnT8inugzBvk5TXX6sQ+f/FMtNdJz55+JkvjIvn4VpZ4Kn5XXalX56/kf2UBAqqhR4QPx/r+0n3aDHpaC7P5nkzL6WUo+8VFRCCEPn70xH1LGG1XEpojYJgPs3bBqaAQ9Uhake1bO1uzdFycAcVieb6wh8l40RtI026l06Y0h5jHI6DyvxbByAAREai/KtNxrKZnnyZEXmdRgRqdlUgQLdoDzcfOE7QCq3FYgH98fOpGRFsiBHKDx1pUTGNMndCk+IVmlPYTseBgMDSyTR694z3PMQcd+CMezIeGhMiW4YXP3G9E3DEIiAZkUIs4/MAnZif4pHyYgJlJGVzxiLv8ADQKQoBFLBAqZdiXKciha9FNCaHFICDMS3zUAwIJRuad96iqzEGEodEQWrlM1Mmj/upr0p4IjjoHk0soV3f3bN6H8Nm2oGRt+8PDRnqi/u27pwfp3ROZ1tjCsni6spi+6EzT+VDtrbZkPvtmFPuc2TTCSLkw4HLvigxdLpVxoXAITb7E509dehAJdUGyssxUTugs1wl8OJ7SQujRp4UG4H4YpyfBoNTdFmV636RzI6MEhMUt6V9lXsg0fvn8mRj2afrP/+E/iEFfpouXLzF73eYff/pJ+ogVc89feP82Qhzrhg0eH3z4QWjanDBAwjTGZmHWCsqvKEQOt4rvyxuB8LkS2Olcfd6s8oTwWQgBk5IMxB3EIGkphGK2MZjEd0vbMt9oArZbbe/W0o2IY6I+7fYdI4mKL2Kg0aRMPdrszj5EgOkq0yft8JUBRp6r6abbl0bD9A4mQfsPGdASA2MF0MfJUwVRdlNHlE9lwsSCqMELfVoAfwgpj67Tp8WKYIAKLWptqvKANQsAMwXOJOh70mUU2IJEuMFU8nvlH2Y39xVPf7i/JhzNlC518NcYlCcMy44V8oPBcAC4QKActJsoTxMC7e53yhdtiHbCQqCN6O+SDveU1f07OdJHcNGloKyUnU0GXm2ldBRdz+ori/gZ/e92RmoT5r9300Rts6uyMzDDbACbOLpilrEYca+2k04Pat4kwgelh9O7dD6upOtJRZaWhOlY4XRlUoyBScpQU94IJT7xYtyoLuDYuFN7gUeWNSI02IqJJcG7PHYCs2IB0ebcw+wwEXSGcFCLOyw4wAGZ7t8Em2HnCA/R3m/+5m+l3/itfyRBNEu/9p1/mL757V8VMli3EMrhwfFJ+tVvfTN95d33Uk1dFJKgLAiZe09jpNHDrcD+Rfny1MOmW8F63Aw5DyrvCkgaHh0dpkv1HVgfihnFGU70TQnFqQccXg1TstSPPEA6ZwX1prqO52psttEpLSUtehayJSkpqky+qqiR7XhMt0CPSOmOzDUY/E6Io7HRLj3leS1zG5KjT9u56aURmktlYgkcfRsW31vbKW00pwkTpoR5lHYMJEU/FIcwsEZW3lMJITQQ0h1GJi7EBIGBKeNFzwxAUR7iiTXkH1MlMBMEh2ZE0rMRX0EcDuaC+cCNV0DJSoDAooGD6RA4vlc4tCofoFLSyoNPrnAETCysp3I7So/yILjQPPR36fdSRFoPLc/AHAKUsnHmEyuHYFZwQR+4aGYx6rYHjGBuBoYYHWZzhEfYVaYH0qgsS92VBr5Tehe9oYhYbar2YXzhVt0WaATc1RE2YphX/VG6kODtK72ZzFc+gXlDF0f1nTF6rytdJiFe91gIQTcsmtkSYXhgSiLKTgVFQeA4ycRh9BsJfxxxA4aoCwIPSwb8BTOX6ZswK/7h2ZBxoLA5PGG81RDNSXsKL2hXVVK0KmGg9rT1JDzyQTpM5JGEfKQvchU+Wd4bIkZQLkgEUkV1X87QPyoh50LqbxOi2gEOU0CkWTghnytJH6kvy0ZzTplgwUVFhMl2O6Qt+bHcj72vC/oTmNAFM3jVkcxcJDQL6CkrX8DjsxBVERWHiHmvrYiDpXBHLTRdI/XVV7rucWqjpKwQNFM5INSREDdSWMxqTOmZpADmGObmzc0NNGDtiVaaqQFFUSIItJuYQenQAJjzVN7mvPpG4IGGjp0mYVWYQURY8vAzeMgNpYvqFgMmHGLHggfjWvUN3G3ZAkADYM4NRKzgEO0OI1srKByFiOWYCA8IDU0a2rqNwFA4TD/CMGg2kOM0RPJEKCBQ0JQM+MHgaEW+mQQu2JlDfRmNpkvDUkBG8A8P2tbsCL25cGnTW9qfLkb3uieiD4uBPiYDVAjEsboznYGYWQLz/KoXWxGVh5ohdUYsjkHgeQREgpj6C4fKe6R4r/pjM9ZFv5fOuh0L+74IHE1I3VQEmcah7RcqEwM+NCJ9eehpC1oD50o3Dh2gVyVBKXxi9ZE2gpj2AqesYw87YskyAhjSXBKPhoLm5bXGO24XQGnIn4U+3NvcdvuKboQffHlG4yN8PC9cxIeWsHiWJXCiRbrkReUwMHCReRSAezue9ZcLkwvmbCPostDLODwXeeSrzUsREY7+DWYNE/qYujAc2/N8kqLCw3CSu5L2dfdZMLdAvhd7qJ/A0D9n5dJons4ge1Wajc0XfJ9HiN+v87kRaVM1Oh8bVqHSwcG+GGuenr58JQmuRq5wmt8snb+6DJNa/VpMQhgUE5HsaEzKYAmsd/QfIcqMBwiXKZmmTHCOb+HQMKpcl2abSyCwr9OmlvyMa4WBIAkDQaNBxdaOZ5OvSJewYa7DeDF3Sr6sLkMLgHzSgkZhVcIfi6FgMhiMUVuYE0sAfKP1Yv1wTIMRnoErCAe84sdINYIqBsJ2rJ3d/1bhrSkol94hTC04lDNzxZxIwXZC6qti2rGDiStl62Ml3e2ks8ubNJO5e1CTWa/YCEwYqMUzWlr5QOQeU1A50YgcS3MhQXCDkFBlr8T8U5nFnlFQumwXxCQXdvReHCxKR4iAA3CWxyA8cEY7FG0A02I+40daCD3amnl6aJtlkUu69v8V5DbadGX616N5ChypkOnw+Ng0ZmGhl1iJdKOOZB6z9RAa8EF7+lEWdmkF0xrvq0wAtAaSDaJXa8Q1sopCl0sc3oYcH8j3qytBySPigxjWF9dkcmGCHOpeeOSFTTNMYfdxISAVmLjux4hIPUglZmY/J4RG4hQJKQoxsfqF7+9AyGgUrv1hLzXEyW2ZdD1PC8mM9KR2JZ2ob8eCjIvBMF3LBKN/OxbBUVeYhvIx0OK+NUxVMKn3euoepoVgY36U0dmYIiGe6MQmK3Wi7h7kQmBQYpUL4oFAwBPCMBgxNLMHT+TAHNXcYTEIQkvvaUTyAB/Ml3oqpuhvEpi+EMBxo+TBABIEzkfD2UxOuT3HjQBy24iwKYvy8f5ipR/LJcU4EhIAReFUCZiK0yMYObeloHQoJz8YhvQgfi+P1DPLOhEOfFOHDRisiBqM+mnMPmgxFofuuVOgtjpqVtNJkwE0JaK0YXI1p+JB7tKA+rENkG2WdIc45ICTRij/jsrJqiesD1wwCxZoKAZzh0IyN0pZeQneEV5cSQO6hKmnMs85tA6TH3zDDxGCMEoHtwGR38q/fE/6kDef2PTXD5Xmr3/n141TUoVOUGKnp6cWnINu1/3rLJgRnvtSMMK1MlHocuKAK2AXDJufbWMUBQccbz1qEW6zwDyHXx7wIFxdWoMNyswjPnhw4oEST2nIpMVUxDyasCNHBNbaVaUk6TicfIimIhGFoU8Es7KvlvWoEAdalwaHKEE0pzDSF5uqHHv1nXS63zRDdEZ8qW3qaQY0GN+dYeM1O3F8PhQEKUaIqQ1GvOPAMJBJfSBe6oPmRGJyD/OgUWFgCBc/GAmsYBqORDzWqkozmI/BoeiTun8lAmKENy+4MDPKgZtYAx1ExRY8mBazCkJDICi4JbV3t0hjUWqmLfiGETKe5XMqmAmExSykYxNe+Rn3pKm8sChod+ZcMXmbzbr93W1RXtSbVWZkCDNkIQMzQZqYdwBTWsThOFTaEKKk4XhmqehBYzsd7El4q00eHjXTsQQqSwkJxNJFyhnLLytqI7pK4EKCSnEZ5WcaBpz1pkzJSEPfTtQ/HapeLPhX+0Hwcu7Lgicyd0tQvaBreduiIU3qEZaLBLXqDzN7QEp4oq6mJoXH5XRcoXsgwuXwXGknhVW6KpHN9t/4je/AhMpbUknpcP9ATPv1r33NJ2S2UWSFQEfgfe2rXydMZOhrkTeZeIQU54JFYbnmzLMDiJsdUPY3+DEKjGOtJQjjNcSBymduyifBg2BVgNFATCOWqrFjhmWAd3PW7XKotBqGdaaMPMksFlWb8FjphBd5sIIGyQ0B0RdjXS3Si8bgdATW2mK+Mm3Al8OvJfH57gvLBomLKU1DMU/KiCyriiBsyozmQfuCYJtUUV33M+OLbDFqTF7UG0JAE3O+EgQCo3gwT0wQg1sF/hQaB/PwbM1F2nKYn7Gah0X8NDnVjr4tzJpFKelh8ilLT3fA7FgQMhbdLtSJMu9LQ5qB5M+8JP1dTM8YONo2vsmnL2Km0rQLz5QBABduK1s7wfTgBGFDfY0oAThA4yH4KBdWhkfYJUC9fHQxcdsgCA8bcpIVwqgsIHVjbnm/kLAWcyr8hP4tuOC90jF96o+vEQzFrD2Z2CwuGc3UNxZ4ZFtX6gsNgGEGvogDPnkH7sDJdUdazQN8kXaZxsFHbTc+mRm0Hc63gqKqS8jxIhyQr7xjsAmrQnVRfRCgVApaoEDOj3YVrcKkPota+UZcCSX64pF4eKyuuIKQCofEy2UjTNkBhHkTKFRxV4DiILUzYLsjjTGDISTVy4hj9BHGghkxb+iL9sSwhINhrIEguNlETEhfmI47g1Dqr4lIQAqNAtLnfDpR5lR9C40NoVMqwqfUF1N21GAMuJweHXtgi7N0KyoL2/5YKcNeTog2T9fQzwmih4Cl7YVMnPGlH4xpQpajXPh7QYXKRXnkEeVX3TDz0XD0Fz2/uVd3/cCTpy50j2bDHCZdCN/M6YaNtcfWmErbWl35MygEkzCA1B/RzwzhwFE84A8BhjamHowO0++mDAgMiAYByokOM+OUPmksxfSpFcIBmiH3qcHlXH7U1yPb8oNaEF7UMYQn3Qzes6Zc/Ujl8fSyIwE6c7eDdbisG6/uxMYKGE28bCHNhhEZLDGwpE4ftEj9scRki3jqSIVOr3rd1JWZDL7pivA1PBSCsnb+ED9WiR4spMAD/gxi+QQR4QdKxXKAOjhREmDRz5HowhaNsJuBJnoTmA6KAEERxbMEjdch6Jn2ZQ950OIqTgjroF1dCOkyW1zJwyXgJoMj6kcyERHn9AsTESjC2z/CADlTfm+CCBvEmPtqfFD6/OIyXVxfeYpHLSYHkYH4qs1lCLBSa4gARJSKu1OBIJDJYkrWbkoSY3Ziuvlre8RRo9O4vdE8BrHUfx2JS4dqLEZ0Ob5kXwwueS6iE1GpDwvhUi/6qhAuROjpGwhR8YBsCpI2TELjEwnrASKm+tST0WqIVm8UFo1P31DaSvFcH/nh/C0ZaSviwoRo5TCXwvxmrhqLBCHhQS8xN8yPdXGjfo+1viiZvhJpRH+T40Ol2VQmDz5NZL2AV5WL8AP13WEypmwoFxoABqa+TLnBWLQBfW2A/jFCCXMRhnIfUD8YFwGDtsUf3CBcGbgCLRCej9sRw3bV9aBvS5p8M2c0uUsNxhLElNdS6OfdkXHflnBg2SILaFjZxppy5qFbfJ9HbXorK6umNlaFLVSgEwR9X0zdl+G1yzlSeoeAgj5gNr4EH1+GQKTB+Go/4Q+Lx10YtQP1Z0oKsxtTGtoDN6zLrjfbqgc0V9C4XMFOa5B5oQzgiaARhzDQC2kI73K0SfHCLtKIsKtc8AsLwEy7KkQBunVEIZzP4HuKpnDxo9oUpcisAOLgb9O6eI4C+EkOBEu/CRGYIYTeVb7s9qFBn7+88ul6IAbThtFK+qb0aQdoLFX2gD6PiJEBCeZg6cc2dY28RLTKhaqw4gbzmUEWH4CtxucoEkaG++KHG6YUxpi7IgCIcaYGxzSW6Xa0zwFmU+8wgrgZ+MESID2IEyag9AySmTAgeuXpASkxE2VBhnukj7roPYeaYcoCEIKxrX/My8KolvyKx/gUU07GJYHUQqRjxlb6NpMhMBG+z6KSaW/LgzTlT1mrNczduRmbdHRR+cA/gzpsjRNzirktuOTbkyVB3ghB6hZ9O+rHAQIx0Ec/2XPXzoNNBKz9ZdXXjgWaorscWAEhxNAYqoz80dy3qhg0FlM+Q6WZ0jtPHqeZ2uOzy57bAmE2VlQvvVS7Uvam+rocII+1xYF8jHWwDND0ISsCrbq7S70WKh8HDqgvKkGyK6HOarm5/NCU4I3D2SgDZYH2QAzdovOrG081Tm9Zux3dKsZKWsoX64uxDsKvvjiQ6brsMgQzuuFIB27xs2jZmhMTX0KcNNQmdBW9HFPXSDfiR4rBLzkPfmhqM22GNcYFFICyuYLhIccTniS0gqhEhHgT5MriIARfRWx8m3ZbRPn8/CJ1h3GyIOYcB1dDODQ0ZhEMTQYsFPCXwvVcU+M9PDhMb7f30tFuLI3DXGa1C58I2RUCGtJ4NC4nOUpoWxBwXCrHiDCXWxWhky7S2FpQ+TPQxNYsTBkGj2AQ0lBwEzdYmGMmQrwqY/RfUS1o9xg44OgYa17FIxyND7XmQQ4WQsB8MLEHbpQXzEIZFF0gjQDDqzz0t9G23jYnP0xynBldAg0Nh6Y4PNh3foFfGl1aUvERJhALg2Us7mCgjJfEHarLURHzkC6ahwUllJFycAoFAoWRdI78YcELgoa8MoMivCgLmp++a/Rpg4nzqC19MRa3sL6XfjLai7nX5xcDCd5qOmlQT9VbWpKwTdW3UYtvACGkEWYdcTTTRMpYaI7+ta0VnpQ/9Zmob9sddVUeCVS3z9xmOQKN8lIHCifZlTrF/HBPV6wqzuxCMdD+TIft7zdlqrN5JSwmeMsNvAbxjBoL4Lq6D54q+fGshMyn3BJfD3jnNII9i58JQY5XhFHANaYtQ+5LMQ8XB0aTARAJkQZhSInnSDxX4T5wDN9RGEWQE+EWRHpwfOSDys8ur9RAIjYaQ9ry7lYSWBKOCXygq0ZnYBjtweFdNArnPdHfOhLzHkoTttTIIKWxt+tv1O7vLtJpo5YeNOvpKw8P0oN9FgzAdJLEIiiYbb/FoeOqq8rCED+aheWVFhjyR+syTUHfx5LQFVUmYF5OVTFDBJOJoEWwTBnAcGhS+rZoJ4QBpiVxCYsDz5i01khKAyKDwCB+m9V6Z9MWXMvxnns0IgWh3PSz6f/7ywhKj3gzESi4hoExg2FWCJK+JnFYW4zgwnwlD5v9Spn5TNYeY+mQrusiJqaMmMOEYRqNujFqDn7yoQU21WkclRd8YDWBD4SAspE53BZziFmub9JNb5gO9g/So6MDCQNp07228+CggJ4soevhIr2SvXvDKqo7mfhoSqXVpMukLtGukM4SRyTpnhgfy8v0qvoiRCgLCyc8OKY2Al/sDGKsgsU8T5+/SNc37CaSoNiup5FNY5ZQSkiKifeFM9qH/j/ClHanDsDrCq64gnGV4T54Lc4m6HWEIH6kU3YZPBBV9iRhM6uQbX8MPSgSLWJXAOEKCWFQ9FVahddGmuEYmBBxCNdEpR9oaSZtyB5MRvFeylyB4DGNdrdpBObxFEam0Z6QWJVWaKmR98WcR9KwHD/z4qabztXQMP5CjVCp8hEtaVkR0IHSOW6roWVGsZSwrUY4ajW8o0SvZAmp36obGJQvgnP0DYyG5sjzZBA4RMpKJ7QTdQfMeKoXROI+uvwhEurudcO6kg6CwJpRjEscNBWaF5ygmdnjih/9LOY2My5hJISj05M/Ghcc0sc0IYnRSY8BJK/HFlOxkAJN4fT0jrhocpdVjvrgR6OxGgpCpq+MH5qQMnGUKwyEgKHeR9Lg7k8rTUQHIoRdPZSVeWLi8okRystg00AmN0D3AquC/Kkv+TGdxvLDNiPfatseg0fbe+hOd51qEpCHzVo6lXlKXRF2fBaG0zqwsuSZ9hWGwUYp4DSX153als4RWh+GUzG82YNn8E916aejxan5jFVvcpi8LQn244O99PjBcXp8euwZCM7E4ihZlALhwTUA/sDPffAm/78TKAlxSdwqvbU0VQTwDO6LBlxdAe55jGtI5uwylO9zBz0g/F/L1CA/CImmFyK4a9elRdUw7z9524Ry3hmk55cwrxhIZhlmK0eLYB4yCHHTn3qEFUXDOUZ8s2dHRMxHseYVScyFNIXenUsrXsn0o/963hk5XY6reS5tfskpCTK/2u1DD1xMh6xs2vGpizAqVxqNkWM0SGg9NCIMOlbZGVBiEAnm48sHMBXmYCx9Y9UQZjnGDNqIwSz8M8OSHnF4HpnYhTPhyialmCprKXBsE7vAG47FCwxkeTBLRA2KERzgByGoSPRsPLjVbLbEaLsmA39eUmmRP8DAG2KY3TcwY5xmAUErjISBeMSamf4xQocwaGw0GIOSCCEsE9KjnREQMLbNaecVfW3wSV3BJXtTOciPKbXn56/SgPPB7nbSM/Vr+UJERYL4YnSrNuP8ZYTtnkznWnokS+trssYeCtftGl0YdUEoKwwNY4+HiU+Q0EZoQ/BYlVDhSwJgmrJgwbE6ij44JvmDo8P03lun6e1HbSmCWfrqW4/Td771DbcxCoo2xAKh3gADbWWavx+C3u+n/V8GoINVfNxSUBTJRSsJXi8MAUOLAPn9nZjGJqHvg4lz4gD/i7f+fx+wgsWfqBRR0iehvwXzfu29d9Nbp6ce4Pjk+WX68OVNOu+OPeLIvtfhXAyDbK3ILFIDsVCi48EHpbldS9tqjBaHsbFKFEGztZsGEsPD+bb6QrHKaEfUzMAQfTQ+L8JRpzQwHX60KJrGh8yJUGGQQxEKWgLtShltxok5qB+DVRAw/balRtDV5jFMJ5GNqcjcIZrHuCoagB97hLn3V9tErISzyas0QlvTP5bZrDRgBjwI7/2eSt+LLwo877c5uZKPUsnMF2EqoAmVUVtW0XBsThYMTCtBCJwagqYmL3l7quVwv+13CB+YnpVRrERijpl2ojsBMdNu1t6KGMyKZo+5bbJhKm6o9+CTPj8LOVhoQb0ROs5DefMhNTaMVBnFF9N2h7fpeWeSvugO0nRrlt46rqcn+9K6h/vqh1bSQO3GiYwT0RBjHqS3L4HSEp7YZwt+OgNZR2pTykWeWAssefUAm+ppYQKuJAwO9qXVDxppPOinfrcbmld13pfVh7VFHX1on4CuAsLqywA8Zl7474HMUxlMK3bBj9ybafMLIEfyiKgc0iVzOmmx/Aq3CRDEMjO/5v7+CrLDAbORBveKJTU2B6VhivO90aOGzF/MVZVuR4jbk7Zwg4kAMGsPaWD6IUr+WNqwvqsw0ibzu7306qZvLXGIdD7atzm5LU1yfHQqqSstsdgVAbLrhtFlGnCa+uO+v8C3BeEpLYb9GXTiUxehqUSsDKhIYwLMb2JqgRuIm7p7pBhmUpkwY9GUrLLBZESjw6zgkX4rhB99y9t0JGYCbzA/2ILZme4hLA7Lg5FjEjYjqZ4806dcMUwMlmCWgnx+4J6yQLD0gRFCECDpZwKOZZUIAoUWQZIGAoLyYwPBhGwo8LplhUMDccIFJiddCX+53/XkkDV1MVQmvnGEgEPTsjCAuVI+J9JUf1pU5PzZIE/9WRs+EQOi7tmI/+MPv0gfPLtM3dE0HbQP0kHzIF1L43561U2XY6aSVC0JpMFM1pPSZ8fWWO0kRAjHbE6YSOBLaKh9WJhA35yPfunRuEVog0NhGLkogYJFgDUgjX56kprqojBYBg45YD3TvC0Y3TBWIETp/S+GaAOcopDI3wEyLwLQFlWMtHBWpMGw2WUgnwgWfmSMX/RvI2GIBmeMxEu/i0tOK/yAnAeNhzbyAIZKhNRutDmwLaVHjx+pL9NI33x0kN4/bfq8Yhb8O9/ZSCbVTboZjE14SYx2J5P4qteTCStm5dSD9pFMrKb6TDM1+DTJ6E27dUlOaZADvlGjvHpCxJDR6dtK6ktdz3Qd9NkCpQZCSEhyY7Yx6IJJR18MpuJAbWsylYV1uZ5eEWGCERg4zNMwZ7nHLGXZoesuR53RzuASvMF4pIHmgbG4twkGtxFHxAhjecWSyoI5jvAwEcjxDLB+G+BUDRgIs5kBnpyOTW1hnbohCDyHq7xtHehdXXhjCoUzgIfqFjBa6zOYFJ+tYOSH9skDTgzKRTuCL86ZBidBYPiDL0bFfYYWFoPCoYH5Ah/9Y+ZcETAM9rUlnKsVTuhYpFFSl0JmcFsm7WA4T2cXCBn5NU70Hmurq/xl0jN4Ji37UNbFsRiN85fBMB/52leap2J2r8JSXWFUCodACeYRPXGahjT8YBh7dxdJwqZ+kBoy/XfrMReNIEAghuCkHxwj5eDsF4PyoX+ia+RJEUpK7UsA/GXIcTbdG0vAObJMXjPXRkAAE5KRZExPTFwWhnEoeIwwkxj3aOVNtxIIzliIgFmpm6InzpR9/PiJJTC7G/ig1UG94s8/8E0WsodgDsU0xyIeFi347CdpRebV3npwIum5k646Pc/nsTigokZiwKMnk+fq5ia9UD/2jM9NUD74X0TDLh0OuWYDt+tj7csUkTSECN8jpyZStNg08Q1WiJZywzweUlMDE05VV3zX0IyHWQojoKUZRKFfZBNbTChk2OTkiwBjDhdTLDOTLALyJk/CeMma8MeAFgQEUwOYzDABCyu8D1R5zxlllyZUMDMMiGX0k34q3/NBMHrKSm5P4ThIgEGhoerlrXf6oX7G6q97BFr5oPE4BkgYcn0JPxfDMPrLWc3+/IfKRNkQIGHSs0a2JvOy5W181If69WEU+vwqF0fQIE88rSS8IPjazd30+HjPx6WihRmnmFduU1/C6qXa8bw3Sq96t+lyyCdSZTVIYL912HZfd8RHuyQoOOB+eitzdo7gkVIQjhhL4IuKnBYBfvgx8Md8+9FROx0ftyxEmMNd3E3VplgYsRkdK0fNp3uaI9qEc6YzlBlsBfAKzEWto9tVdr8IMmMCpM+AMG1aTmM5elyG/EyHnjs7e6GaRfS65ng5rDMAJUVFNtNch6gUmkc3lr5fe//9dPbipZmzrj7Yi2v1aWYiMHHYjsKiDTuSjiySYOsa6TOAgnmN6Yd5w2AJhIVZirTENEbrgKuRNOYcBjPTMRfHUSxMzqt/pcZhNJYjRtAASF/OU6bhWBVDfw3holK7j8pgjNf8qr7u88AMMjfRluQB03qkWe+Q+ExHMUAEMcPg5Atj0iDMobKSCU2OC4KNaR7SRdsx6IZWMm6Ff+p8xYegVagtlef6+iY0u8pE3akP2htHPWAo8iU98EFdKQtNxAgsa4DJA9yDUwQIZTHTM72ivDkIgLK5T6d00KaMNYAv+qzUF8Zx80vQw+j4wdScSMlIM6PbHNBHGRjZ9WH1Vzdhrs+lxdX9AFcezJJwveiO00VnKAGveorRGNFuy4TnM5r77cP0fDBJn18zSh396bq0JBYQiyQQkAhv2gSTH1p231ZtQiFpUx9/Izce8zkQxgfAW5xWkq0SrAc0LPPhAG2WocwDmd43/bL/Lwu0ceah+4D0zLQZ1iNgGkiqyN7nQGcOaoZh83rIZaEg3RyPqLhSOXO4fA9EZ17+QgYEAB6ODw5t5mFSvvP+uzJdU3o1uUvP1f+8kMnGIAWbgll8cS6tCeFygr/aOp1fd9OFzDhMIAZW0EJoRg98iEFJH+KhQWlMckcrcEOxmZJwHw/TVH4QbD5m9OzspRofomTBBOuQ2d3DuUEsA2T3C2akGlWSHEKgoV1HpUs4+n34Q8Ae7UULCmBahATl8bywHKPQ5B2MH9M4FDKkfsUDT4xkQ2CsCw5TreKBLNoIDQsjeLugiA7GB+feNytiDYINk9hLGxWWDz+3mmJUdUN4ZuUWOLAZrv5jjJzDzBzDyqn+Yg7hmQ0eCCXS91lSvJeAoJx8SoXv+GC5QA5oLPDHHtwmdVXZGPACSXwPyaeVCA+BJ07orKf33nkrvfvkUXp4fOTNDWg/ukmD6cIr5Fhog5VS2Zqnk/0jdZu66eNXN2mypXba3ROtYCVKEFAPGlzg8RPVn3JnAcsnXhjjGMmqYCcUU36cYU37sRMJwRybE5g5gAZjXAPItB0Oj2hzIPNEfv67QjntDPl+1ac1egM2M/TkRCly+d0mOCNK/2UgSczyLRiWC5oFLXF0cCRt+0wlYTChmq6GImw+Ci2CjDlPkMcYLmVSPDVwhwlxCRJGgT34IaKAcZGUSH72e3I4mYsrlQsDcMtglUc/deWjyt6aJWbHwVCkhTYhPFoBgJEgXhoRbUZfkWWSaEE0IjiBOdE+pEt4TFPMUkZReYemh1iIw2AJZYBx0YaYbWaEAr84Bj+sfZUfleCalxzCtBA7o7kIlH31Y6n/lDW4TFmJyTyQJT8EAwxCXjjqyyZ1NCAmdKfXtblNGdjH7FFuYZr6gwtWSfnzoGJE5jGpH31bBA0mG9vgrtUNgVG9Yo3Pn4jhoQdM5SM+6/HwgYRTaFxf1Sf1uIjyAp90BxAsjCP0eh3PzdNn5bOZ0Ax0ZfxLaCFkHhxK0Df2/f1YaEGGddre20990QqnkZAmjr4rn/5k1BgcMrfM6ie+7t9RlwpBjONjaj0JUsx2FEhslaS9wuLBckEoZchtFA6Plf8vAvNJyWXYfF4mWgIzLQBCcuBckJwAEgvHfdjY6wXPkMMrqQ0I/xyUOKSBHwwLETMB/vDBqQ+uvul0hZxqOqjtpUP510QgC/Ulbhc0rrSZHHGRojSOP3fYQNqzQocDzzFpFUdSEW3r3SbKF2Ll+A4vJlC6lAPTjuK6LGpg/CDcPEUD07NNDYJCE3CPmcUOJCoEUaNFiIs/2h4GIV0WshOHd9SXpZBcIR7qDF7QUpiEMDSn71to2JQN3KDBMG09oquCsl81TFsW4Y89CHQgrQXTgg/yZkCFuVbmfwlHGXP92BBxIAbyriJMSohd6XIuEgxBPxAhtdcKc5xlf7W6ugoKxBf7sCwwpRkwQmi4LsIzxI2Qa7baFlTUG8LHtMRiwNrpiKmZ+qEtRGHW5DA7Aov4tA/dDvc5aR+VGSHRgsHVN27JVG831F/WPadqHDXbEgD7aSSztqn7h4f7ZkS29O3ttVJLQoG91qRN3cGjBYToCWHH4B515+ztkxOm9uQnvLNSDhpiIJCTQulmAapuxFmDFf2/CcB9dn8XAP/6ey3ukvteTzR3oiMy07OhcSEA9Nw6lOM6DthQOJG1r+HE9EUh1hdj4JfX5u6IcQcqWAwM9CR5bwa9dIs0X4gxZDZjpucldsKxt9LRMD4RUISLP+YqDBumK1I6eUtZlChWCKH1KCdnSyGM4EO0BExojazysSaVDxlDnBYE8qd2NLxrScJyECn55IE3iIM6wmwQgzxtUoZGCUZGg0a6MX0Cg5A870iDvlicbBhhvF1O74LhYzT65OjQOFUgHzMLsfMeHGO+Y4JjEZAPTBEnfaAp2QRQ8zu6GGyqIG3aCea9kQbi+7qYtOTN+U2YhsTncyMLNQRlJU0WbXjRh9LqqK9tM1zPCCnMUHDGqDTv0bqUkQPoJ3K0I/36AzEYeEJYuquiMnIeNUzLskWOzDmWqYzAOpAwODpopani82lLDpu7lKX19LKfnslExsJgo4uPIirKjwCPKTEUj4hZ+EU4jvgi393cFgPWhK0KxcVEx9Z495233f2A5qgH5c284rY3ZQWUeaAMZTr/RfCmNDIg7JZMS8LlxHPBolDh2JXgX8G0y/ClfEgURsCI5Yq0XHPEFwJIGqTlqCDy5OTQ85Ys/j4+bEtSq4GlQWeSGCx4wFSkz7tThXBnisPoXix0pyz0o0A2C88ZGUYLeYBF+bh+Cke/DS2GCQRDubRqDDQam8YhKJiBMtCHJA9MOxghFj64BmYotJo1oOLDgMzV5vlYCCVPuZA3WhMtbAJSeRAA+KPV0EQQrPvZTp082GIWZxN58IM0FA7NxTwyBETdsNY8B6oglBHLgFYhbeJB5JjImakI483xvFc7sAa3K+ZkLyl1h9Epm/OXIGFe2J/4VBzGChB2NB6aGkZAI8UUDyPmU4fBCun2h+6rYknA2KTB5gOe3X1Q3jAKGxxazRg/oE4wjZePKm5HJnwPE1tlYUCNHV0sjmEHUEX92ukWh9PLvFVerKGeSHOzQ4tTF1mMwwe4GXtACIF3NCaWGEIQvHBoHbMFVdGTiDMNJODoMmD252157zx+ghwz0J7rTFW+D5y/CXiX39/HmNkvh4EuMyz9dIU6lkz7OiiA0gkHw8lLV/e3RAxoYRle8eNe6eKEL1eFejouWaiBcPYnDZzu6djnexDEsj8+2MSnKNm8TV+LtcMM0rAZ4Kil/pMIHtMTxoMnkOoQ/cnxsQ9oo2IQBHsi9WBiRUNhuhKHxgvzKxoSBsM/zB7Kdus5yoYIjAYGvC64SIs4rFyiASmzB1uUH+j0wnK0GkwpwqVcHilWWPqg1NXa3WmhtRkkkvkvZrbAEIOg7Xw8qerOaQ2sUrJAUfnRxGhMmI/ycsA4ZiLMxnww5UAwUCbmYumvMgjFSLmFmdKizAjNa2nOa/a0iqG6ELaEH/l4na7qTF4IIdJDW7PYwGa/yol2xqQlD9Ik/ZjeivqadvTDoqF9KDtpUn9/glP3xCMsc9/QE+HArYWZ3rP7SkZ2ktjE9DBN8IV2jpThk5gIrNstvZdlhqB6dLKf3n5wmN59eCrczNJwIuEjJmVzAHQA3WWBqtY2jhnzCIFXMXPTz2WAbk/dMvZwAxZClEECJT4Vqrbz/3XYfFZlISfD8h1+2dNwX0oFbHhnxgXA32tgJtUriIDYXKmYn/TOxCfxQ8P4ZwZWPKUbjkaTI76QJJswiFbPIM9amPjOJ8qHlEUistwOwoCxcMw/Munvhf5CMgTqPYdqSCWq5CV1lR+ux3d0JKlBNKYOAwg9NQZlg3AYfCEfwAynNMCFzVgToqS14pM/jMGABZoHTYH05fhSzkwiTmgt1ugydSBtKE8fLyrCo3FgWpgHDUw9KasFjRg6EwkF85JApUcamah4xqqAsCBuzlYCyNOWhvIAx1wJxyALo8mMGNNvhPC997coS1g4AuVPesxnv7zu+hQQvonDaDLHuqANCQhZutwygTlZAcuFXVGcXcxb9rEyWETa4BuHlsVS4MgW8EeOxqGth2AaBIItJJXZo8dqCsxmplg4phbCpL8NHvh8CwfSkQblAZ+Yxa32gbo5Czub0UoDweYTTkQLDFLN5McWP3ACPhG+rHqi7bE+UAZQKGuk0bps+2RO3x+5UtvAzLQdK6rUEqqmaAUaVx30V1x9Ey5D8WxcC7iG4xewpHnVNXxVkpxGKa1lHqX7/BzqL7sS5ABlCG6PTGgE3ThbrtHXDb+AXMyAnB5pWOoV18LTCN1WI9FHWzEUCKPvpr6GGoOvA6hLq4ZUgyk8DcogDhrAB6aJYKLfGaOMpI85R6PxTDo0IonS352LkdH2+JvJROSYTZh1DFZRJsrdUV+U0W2PHKo8NU4TlImHIKDspGGGVFiYyma3qs8IKcIZJkQokA8mGmGog5JX/BhhBl3Ex/ylbhCuklQ8/VNipEc8455yKT3WUNOAuZwAAotBM9JD6Jko9Q6mQpthMnY8khrWAIsuIi/6wDNpW8x69T2lAWEE2oC2iD2xyk3hPGqvdNiNdc35WnL98SxddvoWCBx9y4kTtAdloGR54I+y+Uwp2k64RrDAIGhLj9YrffJwPioXA1eUl/JzIsmWmA8risMMOIGRfMmf9kfgIuAPXHY+JB7fBaaLgcXgbZiiU282kKVCfWF8D9pJgCFshDZZJTEuQJmx0mhEKJ32EAG5PdacwNjP97kO4at4NHTcA77Tv3i/4f9LgIyN1a8MPINkiJyiWC7omXI5q6Jg+mcNbO0phwlBmHAblSA8zzi940p1COy1zrqFASFOzgNCS4JUkMW64wsIQgiGubAEshYjHhIdrQuRMngCIdq8LfKhBhBBrNwSU8NANKz6QZ4vFsBsEEZmKF0c3yuBRGSY6YRtiMA8Kqo0GEBS0t5R4pFHEbwtE/CmuHQjrPEUiPeY5fgTn0UcgM3HAj8woLUL8eVcFjnMcczVeM9CeZVP8UiLeGhd8EbepMeiARiYwSDwB2F6BZScAjmOp5mUB2WDgSFoygpRt9uc1kAYhBrlD+LH9L+RELOWFtMwdzqSQOV8YwQrGnAk4kc4wLQwHOdGU3eYxN98lZZGmHocQA4Al0yLMVjHYBRhqCN5Rx2T4zAlw5SXFH9qCucHrT2vR99n+SMjy3KVu7nn5POxr6wVx2LKYyhYgyx95Bkcsymf86nIhzOpYHCAKTkGDh1PeKUMCGDCbcLSz5egOK7wDdYV+A6IcEG14e5Lrwyb70N1LF1IBMg8B/R1M1EVABOHd+VwNL9rtiwgEO+jkPEKRC0roXhIV9IDQZiL9CGRcDCsT4wQESKZGeXEj/gkx0gkREdKELMlmtJC29rcFRF7rg6zqTBzMY9gqEycxEGT4IekRcsSx0eg6qrMzDiYgJSVARJrMzGfayA/4hmUhvNAe8mffqq1ifKBEWE8m9TKG8bykaIQCDhQ+Sk78dD2FkzkLT/SpE6Ei8UC0X+G0RA8lN1x9IwwIF8sC4QW6VAHpnQoLzhhGSh1dMuobvvScPShYUoGYCwY5Lp8pV4CgvzirKfobrC4BfIfs1ZZjBYDUDGdRZqeZlN8BBRxKAv1R2hgwZCWCmUmJG3iwRikgcXifqSZJCwm6hiDcOCn4qmcvSqfv9xNj44P0oMjPdfUbxcOSAv801emfwr+fNC5HCPK4MLpiqm5spyWnUbd3simNQx7sN9UflXR4ZGCMy8ezE7blAdhy64MPENn4R/CGMd9hIz63+/WYRWXt5EmvMIru5ywf0XgHKEMLoyQg7YMNg8oxyEa4SL9MqDpuERjYeLlfjKmpFfWiBlBPMQNseJHHAgeBiZJCg6hUhGbPXrWa2tq0iUchGcngsnajPxDu8TgEwNDEFJACA7CQhxRfvqYSlt+LNvj2mUNsq5oEjQ/GhOhQINaWKihAZgNTWXTXPVg0IOyYAbm/bWkgwZ3fP3wo14FAq1dWVOLkIE5YD7K5Y+SydFv50rdMhPQNozQkj95UycImKWAlA8zGabi/VR14Ds59AtbhSUBeigXYSkPH4VmNdrFTVdCKwSoGZswShehy3NMtzFny/yn2lf5MqcOsyF8qQ+LSqgT9WW1VU9amLlZLCXKT3gEIoWgnmhghLTN96JMDESy5trtY6bCEpvFd2tvxVjqvlzdXKvOnPPVVJkkmxQfyqOtoR8WmjA1BNN2+kNbB6TNQpyDg5bap5ZOjx+5/YgZikWIIZ0vcQpaALkE8UOj/q/ygoPi8ganf/eA0y8SXy5j3LzmuPc+6wGZsXLyl999Geb4ZXAo+cOsXK21eZa3JasaFo0GEkmTL7t53kzSC23CKRfMX9LfYdUN0zP44+hH+jOFagwamSysrYu0KA/aines/JG3GYkpHPKGSN1n1nukPyOc+BHPXwWgjnKiQ6fLPCSMTaNiXkK8pENelIE5ZIfRD+GD5oWo6R+z5ngiMxPCACg/jB9TTQxchZCCcNFYmI8QN1nFCYTBqDAHgDUAUyC4WI9N/pSTKSL6zcxRQ7QwoQdh9J5BONJE4zPgxGdYLNT0Ls5GFtNizio8e1njawbSjEofTY/QzoKR9CCGoANpYmlcNCT9RZg0C0IsE+oVQi/WA/sERMUCB5SZeimw+5Xgn3gIcKiNxQ98PeJWfp5aUtk6vUGKrx/GCjnMZ2YTGCcxYSlNLCswxSO0xA2CkEPpAdqabgEW3PHhifrZB66bIwiMl+IegCZec36jQNzIycv4Cpxkp/9+jkDECyi/W4fsR1jxSzCbHb989Y/AkZSTLxInjEeTCy2kUrlwxdsivVX4MvDOBE4AQQ7DFSlv5hHyaNTQpJhb0zSdjDxSCkGGJoIYh2YEnt0f1XukMEQAQOykl/MCPK0BERTaMJYPMlyBlpXZrDhMwZC/15oimRXfdVY44rFHNM5URoKLYEVlMDqNioMgIDZFcHzKo+a2gEHbusoZB/ojTzZdA9SDtNzPLsJZi0HcInLMR8rClAflZWoKP/AHnojHwgXquH9wYOanDKEFYa5gMAiJfHeoq/qAHHND/9x1UPp3EmjUEW1MMRxPRcrWBmMD9P/MwAqXTVevWJOfK6aICEv6+bQV63rxo6wwQ0PaDnMdYRQC5i51Ol3Vk4+X0RWZWABTL+pjga4yMiAmDLkPjbZ22wjnWCxt9W1V+NTeb7urxVljNVZQ6Yr5b0GjsvLxssvLa6+gYuDPZrt+JycH1vwPHzxUmoVJrvpAQeBBlO78+FnZbDqFAUzPxQ988M5+chGguBTPS+9yGMFm+oCwWyA4iuPIjkNhRZChAUkImVqA/EAbg04ILNYRs7Vt6y4Y2Wk5nch8PWPyKQagBLmQdsqT9a0tETAE8eD42OtmO2gGRXCfi40DrHRSXNJCQ0S/NKZtWD8Lc9E4MB+jrIxOgjg0bBAwZmz0jTksHMbl6BU0HxI6f2SZ+Tq0pAK6PtxDvL6qoSFeGIGy07jUm74S/Ty2r9E3Y0AIJlBNrd1ZBsjILDgHHxAtRANRQqBoJuKhAQAIjBMgODSdqQmmmDhWZXcHIYIABN9oWU44ZO+u0lJ9EUlc0byMD7icxQAWuLDpqvcWEiq6+6zCC6Y9jlHevgibOjKyC97oSqjQQgeCUKam3lEHtDH9V95BJwhGtJo/SK3yYL6zRhsBQL6kyQmY1BMtThlYqMFmeQ8CickRHtSVfNHMhEXYgGWExGgch+xRDpYqNhotW2fEm+sap3fO3A5o3/GM0WEJPf3In498dQacDCk/0zmWEKutWJDTTIcHh0o706YyVT6hbIRve+D0uOEAxyneL2lb7nXzmhARyyTia4lX9Mthi+QM0eK8XgaUl66qQ4yY6Z4YXHKYZaYiBHI24xbvSGsFq/tVXD+Ep8B+uoZjdHU3PTo98ZI1wkE4bNFj/SvR0FYQqNfOijDIAoLIDAVi0bwQKWtv0XI0UuQbzIfAQCMQFsZnTtfzvWpwD1DoR7lgAmtr+WNGQrTER0qTJoVmswHpWBvqvReMKAMGg/DDxEWwEB/tiAmG5ghcxBQRCw7AAmdJUUaPQCtPTH36vpiRWeJTFvxZBIIwioPiVDbyV5li+inyHUrYcU9e4IYrOKScIf3RkixDjOV9jFLDQIA1uK4uq8kErEQ9MeezpULbU558LA2Hrx2rT3gixzd5vF9ZZWH1ER8+u+ncWFvC6AhUBCt4xfR9eHrqM7DB+a7whAXEPfPPAHmDs9C60dfN4wGsQacbwGAXgNnNXmEOwb+6uhbeY8UVghMNDkNPRFdMqSHU6H6dnhx5hdbDh48sbG3VKC3quFJa0W5CxZcCuC5fAdOVErMff26PzDevA+Ez+F5/hC2YdgUk6gaVUwh8CublmeDOzWEz8+KXM/ajIAoT98AqbH63isN/M73v7tKDk+P0+NEjr3/t9cV4ImabSWoQGhnHpDyNtTT3XLbon9LXBWgkgGzjXtpEDyyaQJPRYPRro1QMNiicnJK09oPh33rrLTVgLGmDWHId+E9MGIxyuIHlmTU8850wqE14ER1VxVE+6up09IzgQSPSf8bc5T3MQxi0OcTt7oDAZre0K59bhMjzlw9sRaDFFAYNSVlYBAK1scOFaRYYmnAUHFxl3NM3ZSM/J2pgIrJpgbJx6gQMY+2lvHIZwKPjyrkNjVyVQdg4wIoQ8VeVDYeKc2WvLmuHTw4P0qEsKMqI+d7vdSR4sYTUDVIYVlexyML9eeGZe5qUsnjATExmoSakgSMkY5U+uKwndgQxTnBycuIywZiY8fTj6cocHR6pLowzILRVZpu9UgDQgGjBTC+L6/RUlp207eHBUUxBKu+yc/2V76bfLwuEz3i/DzbTM35LTjk6DDhcg1yYjej6C8a1w6fIPIfPEfBWFvFQgN9vQI6/CUg0TjtgdPRaTFvZroqYMGduvQkaTcjKGE8BqHEgRpDOFW0EUUHsaBzysKa0ScbyQpmaIgbMJBgSqczgUkzZxAhxV8KBSlBmr/YR09E3ggEpMqY0zBuaKjQY+SHZmUvmPkZg0Yrb7quyxJAVPpiNECBTCEj2ODgbTRVz0zEQxmBLMC3dBZgwttvRX2WkeVf9NuEB5hTxMkWDCUyZWNcb/b49Ey5ohzhZX8wKMsrmPrkYMEaemZKqiqgPXDY3M/mK2cEXg0FcMVEZMSe8l68qHeNdeItxAPARfUrSQXhRviO106kspvfeftuMORr0pc2OLQAZ5OJ4HBiXpat0h64uL403t6/SNa7MoNHvpwFsogpYOUW7cFQOWpcysr+WaUFoFDzQzWIXEJraMwwC8IRwenb20gIV5YTlxrwtXyoAd/4yvdKByS2kiOh8C1oHR/IMn3Vn0M19NA9kf66brpTCG4FwvxTTRoK+K1z4wZyvMS8QXq9BDlMOW74HIAg0FWYKycBwmK4gV6+8uZmzhlj/y2CPmUNhGE0mHl+Wx4/+K2WjHxFzlcGINhNFYGghcqVvS3yYyNpanhArhE1Zrq8uxVxj9a+PvMpGnipHjETToBCvG7dICw0Nw8BkhGOhQEcmIR+txiwlL7TW0dGhCdILJ6i3fvQDAQQT9cGsRCthOeAHIcNkmKfEo+9FXVUxv4fIKQ84gFCp69XVVZjbKqP3oSq8hY3CQfQPpZ040xhc846pEYDBIVsNSoe68I6+bWuPpaTRlfDIrspCGJgh2osVXqxAk8msdNlX27m5TneUC20rhnwkE/hQTEe9PAWkdBAoCIULmbOczwVttSTscLQh9QKX152OhOxcDDrzwg1/REzxPZIvB63on3CPAFcXYTy0VeUzo9zOwqvSpr0IB7EiEG4ZkVZ7tJrxaUkaJdM2dUUogWfTlJ/D5TBA0HK05ZdBmd6Jnx2Q+eE+Bzj/fLPp1rmZSFRTV98XTr8Ma/5FBptAusCb3gPxjlG843Ti84lkagmpMERXjYa5xoel+YoZxMIKHxgYRqNvCOFGGjLPRDietJfpR9bZtEOLwTzc07iMzKJJ8fdqIGl0iJqRXghrR0TDIMmJCI1BINqPfADSgKBwHuhQHtYUalCECFrAI96S/Ggm+tlqap+9RKPjjzal7GgLTGUzCwwhrUt6dA0gbHbJYAKiRbxAQeWC2CljTCXFXljSilMg4zgeysg7iNYtpbZkNNVHzajeECv1AYd2WB5KGwJHK2GdwGwMzu23w9qhH4sQAx+4lt5RdnCP9oW5WBPNZnzjkPqIGfBjV4778cpDpTOjWpAdHhr3tB55kFYIjGCUONWxYXMdnKjpPM96u2DDAUcEtdzexCN9tHJP+CDPS/VrYXpGk9GmnLJJ14R0wd2jh6cWiO1m27ThFXumIygp7sMJg8ozOzygURz0E/iNePfB5rucLpD5401AOQDzZo64mSAFKDu/L8KUw+b7ZaarV4ZyYfL9GwsofxC2p8bBpPLha5LsNADJwrwsNfTpA2JYpCh9O69bVYOxDA5ioLHZsM7VJpbLH/1fykv2jJZy/jL9JT5qHWuLQ2tRuoN2S+bdsZ5ZiM7ChYUa96GtALV1oFCFwkwFoUhoGI88ERQMEnFCBkQfm7tlpisvNvl3ZfpjorL/tGgGMzBERDgYkzgQM6Yz87lMs2AfsCCCd+4DinDAJSYezzBaTwSLFup00UqcPBij7QgQj+rqCgNCpJiNCBO0blgKhETgVdPV9bU/LcK8OHtW0ZbUKQ7Fk6ZW/CPhiJMl+JDanFMRVR7qAI5hEubc0d6cjHEtiwN/iJ1jbVjZxJwx5afuXtEmQLvSPggsL2uF4YWrsIa2zLBMDTHqbZyr/PRZz8/PLXzA/a7MbqyU+L5rnBCJGY9wxbbhSB6XheqqzggEBh4P9w8VPsoPUBc2+fOIFsefcuEifoTLQF64TdgMtwn5fY5/nwuCUzlyxpuJrvsTOhzSxE6ViemdeOU0JRFjdCy8M5TTJnNLpI387AVpqUOEeUkDwHQQGKOkYZJikrAkcWazbziUNJU/a0wZVdaDE6JsEB2NhHT3NIau7L1FA0bWKqfys8ZQg8JY3hTutMZizgfWGNzvSwPc3HTFgNIMisyOI/bYop3dZy4a0/1SPUMQ1iwiJAiRPjd1otzkxUmPMOzhvkxEMcHZy5eOh2aFSTH5SA8GJD6DLHuNusOM0CCqMyOeTAVB1JkxWBPdVprMcx4fHVjjxzJHaW/hEaEDw3A2MaYqZz6BA9oE5gfoZzOAg7aF4X2kjNLFoiFc3ipIm8SCjBhIY58rmtdna6k8nFrhQTbVE+1Jf5e8WPBw+uCBV1WhAQH6p94ppLzpx2MeZ8bAgTcEEkKEQTVwRJcHPU08mpO+N23DFk2EOEIMRqafT5k4Qpe2gsF5Z+FN+orHe8YKTthkX28Y96ZT2ltXygBkesev7DIQL9N6+V32A+yfr6Uw+frLgPhnPXIZbL5sOMlRIQmNFMSvqskfhkPyoMXkjMaAXJGyc9WLBjEogdCkaI3ko1Q/+uhjNwzn9+a9oTC7F4GbgaO8NAq5wwRoKExNCAVCj3pF+hClstCtwojJGChpiRGaPvhcJaqEKdtsNTxyyrwtJzcwgPPq8sqrbhjVZIEAe08ZCYUIOMnBx8yqTPpnxkNgKEEPdnn5II0vwqbu5MVhZSxrxI/RWkw2mJqtg32ZjvQLIV69dgOj5Zjb9XypysXAlLAnbVXxAA7b2vzF9sqOzMBL+3P4mi7GCwetiaqtqakz0y/MHXuLmspGiyEEKDuCgrljLJlt+XHlW7LCpCyMQ2tnBgrbTZgwpYEYjb46g0oWKioHQgrGH/ZlYRTtMRr2/ZnSriyLG2ld0t26Yw6YPuadzWjaDmZCKDFwx7MtKTGpT8eEdlRegCN2aFtoiHzRwmhRGtkj4iItyjGku9AbqL6qq9qEaSFwC/4ZmAT/RwdtD4w9lBXFZ2YA6rak18y8al9okPvslx0x4l7l8zMJcBth8TNXFGlyjVjh8vOXgeMJAgOR3BrkApcd4AK6APoxkogj/NIti7GEqNT9sEo/YmGuMrfGN1NjUCkGTayJRHxFgUPaoz1FEBANje3RUDUCiy/wR9uRKmlgynmPqd6jIRmdPuJAb2WMOYvm4NOT7A6B6egbhRZnUzSHf7c8qEE/l32WMYrMoAuHnCueGInTCFmgQXyqnC0StCtaAC2PxlBFbHKxAok+JBIeZsHkzYA/moiy2XRUWdAMmHAIICwL8qGeZAYRo0GoL3OSEI+Pi5G2OVH/n5HcEH57thSYm52gPR0+jnal78ma3NPTU/cbyZdPTR7u801g5kbjFH+W+dG/rqv+nJ/MaO11L06qAM98vY7TM9HSfJGAdvHZUWJUhF5XZjvpue1gMOGCNPMYAINwCBD29/oUScxx1ZnwMCdtiDUDztDgvENIW2PKD5wzVoFQhfaIx0gxabK4BX/olCvdAuKTLvidzYv12/fAilZfd0H9K7A/v+X7FXwZP5SBaDk+jrYCEOnykFjCSXqvXBlyoVaO0yrWY0gS+U1IlFzOXECu5cKuFVyBWVXlUUIYUPeYnC9ePBfhxUmIfNwYosPsglhhAMDHtegZTYVkRoM4r6LhzExqqEM1KFqCBkT7kCeSm8ZyX0lpwVAUGxNqyFI6VkvJQdB8WQCtO1vMrdnYbmbNLIbE/CNtiID0GXnF1OMeogDhc2kewqIl0Rz0O2FIiAiiwQxn+SZxoy5B1BBgTpd0CEs/1AQrRxqY7a6biBntwfJFD4yJ4BFmCBZWJx0fSVOigaV4wSWWCcC3fFm/Dd7on3dkht7p2V8ZEF2gqT0FJ4uDATLGGnxIuuJiFsNcW7I+9M9pIqCYKpsIn5TD021CLPPtjFVgYjNai1DC3KXd6H9ircC4lIN+Nrt24igapnVYDRd9fHAALvDjGabGhKatucdCQzCDG8KCY3cjFBZ80hVibTZlpf97rfoyZ3v28sxCBio2KA/Tktz/P2EzzfxMnTLE7eo5A+EqPhdYIWz0cs3OGp1CE/E+F1DOKBR3LgzSYfN9ZIpf9ue/s+DqAkUaOS6mJ1oExNMISEwkIg0A8cCAnp5RLIgY85xBEog1p8n0CANJfFxJqrDQgEzCxzwpAoDGxFRi3hYNjQBiRRGfXSQ+TOUwMkHdVdCP1VD0mSkDxEx5YyAkttLBRGgr+qEM4ACYxBcXFyKYHRHYJOKJ0UA4p1lA5OSD2Y/WQ1gA1J3RXxie94A1kOqJiQ4CqDOjpoxQM6/qQ+GEK6wU4hMIDRqjsWiaEISYimx4f/zoobQVZwwzgi2cKAa4QoORNvWC6Ty9ovSIT9qMQnOweU1l7apODBDe3fI9HvqKfLw6tD6CFEYxDpX2g0ePQmgpbdqAtsKCiCNNY4AKbQ1NsMEdgcY7T+FIKBIWnMOgjAh7rTLCQgxP35w8wBXCmGcsAdOe/BHoMCy0xFZFXay95/4iYiiyGBgjNHygi4Ayld2b4L53m34ui9wmhNfr/oDrhGYEqR7i5qpn+70GK0byU6kA+MUj78qZxf1m4Tbv4zkc2uHs7MwEcnJ6YtMSU5QGg6iRxhDLkPlLhUHSKgFrAgjCSwYlBegD46cILivTRDAK/UJraoWlpTCZ0aRGhuoP03itstLE3MVcZqSVFVgwLhoBk+xAfVo0nOdWFRYmpbEhboQQTI0JypcNwE1DfWU0JkxsUBz88fM0hbwQEhAZ9YIpgtGCGbl3mQWECQ3Gdj76rWiqkf1tcoup6M+hcRjNpkCUE+akvjAjdabMmLn0melbcpC4qq7gTFtJaKjfmjU+uGNpIwKKtDHB0aysKnOXQcIQJmDrHiO6CFoskQyUHQHAnDdztMwhg2/aj3qDL8xzhExYFTFTQF+XaRu22WVBjCAgPboJHOsaMwrCjdKHoSnnweGBBZ/zFV6wqohvS8V4kxWmtqDOCGHSj3cwdmjyTQd9hnsd4v398GXvNmGVTwC0mx1EyvvKapVT4fLznUKErC0cEVfPQZibbj1DYK3AxetyQZD4UIpf6R+agiF9zooCQLSPkhEz8wU91iRz6iL5EZU5RqQoDeGK6Q3mLqcasLkAs9FEz9SOrsrVzBoj0tE4aJUGJrJecZga0xdtEZzP10VIyI8BK07X54t/9NnuFszTQkRoCepEV1WaUMyB5EejYhZCNEyZwDzsKAEYnGHeE7OQiDGXKfNOmgqCR/O6LgWubBqKuCgr2gUizAwNgWeTkekNxgTQIlgIML8XREjw0Y8FJ2x250vnCKIYmU8eBxAvC58QcvjRN8UsZvkhh6rR+eFcJzQzq5hYJ0zbTYUfGMJ1ID/Vga4NH2zmNAtMfcznGF3GtGaZ5cLTXgho4nAqIwKECtPVAYg3F/PEwhBwIVoRbphTj/OcJXAVlvozT88mDeiXbXmsDQc/pE+a4A38gUfoxLujhAuEMgqA7gNTT7QX1B10tIL8zHXzXYay/5vivwnWeOQXACEl/MoJriKTUE6MMDmc73W1gQhRybmiCssV1uc+Qzl9pRhpyi+HQO5DhGZcBaVPC6G9//57DgeSaUAagpFVm5BqaKYZfIaRUkITu1BK2+tnka56piwQZ2TECp445BuioVgQEGUlavipjytG51DsZk3aRYzJ92757GZLTMsieK61XTGvmJV1wPrzlUPIIAbqS/7ZQRSUxUsAlY8XcihftBDChHIQh1FXprMgeIgzz79GmBBEECL44BkHwVpTQ/hiFiwBRqxhBACTHGsDZkWjIIzqShvGaoiAGypDfMKDPbgxjYMlQ997vx2n/9OvZJwAYQTD4keflJFnwtKV8I4mWZIwPF85xFyW7hP2EYxqHwl7GJN4zIfSl+VweeKOR3HMC851VxloX56pB4oCoUC98/pshNTBwaEZnTDQEhqWtvVYhq7gCn8G96AvzO0+8/YKjxCzhlUIjweYoSX4FN6amxkKAWXQP1/5KdmV/wZkfuFnyPFKYYlPfXLY8vvN5wz4bwIpFLcZeA6CsdPvTZDf5kJsQi5ApENmgiJsDk8lQbIZXw4iZ30q2o8dITCs2t2lgpAxk72JW/cMJjB1EIRdML4C09fkC3exaJwBoVhhRNrkhcOkpDEhVE5RdN9GYdiLSZ8OpkKjMi3RFJFsqY/W2BXxoWVvZ250CJ5+MmuCmYpi/SobEpjugPCID1Nx2gQMzCYCUEK+EBsaTFRtpoJhWVGFNsCBJ/pUEF+YjUyrMLIaiwQYRcZMh+iYokLLYiLD3MaVcMJ0EIzUVHr7YkwEC+MAnmuV4NmryelKGJiCw8jB7eJ2K51f3qQXFzfp4y+ep6teX33FSTq/6qSLqxvlx/116vRZs6s2oXzKkxaMQU3hV+1nBlQ5GGBjbypTR6Isz9E21b3odMQgaq/hdO5jXH0kjByDZt7JpDozQMZYBWY937CFRtzuyhOT2OMCqjuj5ACWCIoEgUD+MDozALSDPIzbvOuKfjBWEf1p3itr1e9SmrxXbJYPBgOwPH1b0DSQ6TiHMXCfnZ/jAiAk8l2GctQMmV+yI1A5n+1/92//5W9zkxmMXOKlIhZ+q0LhxxWpgFvFc0aFU/3WIGtha2bFlVEa/kXcYFqlpx/EDUH/6Cc/TR998rHX8hIak510mup7wcTE5cqoH+/RTkh1NIv7KDI3Pbku4rYZLEJBSwAMEDkvFYrPOnp+UA3LckXxmfKRibxDv1flQhh4+i8Gjbwjh+kaGEv5EY9yIf0ZoKEWMKCCiShiEUBvMPIJ+eAAYRPEA6MU5qTywNBmGyL1gECtjVXOPREkg0dedQVuwZXi68bEyjOMBpGCN96xggyGBReYvozUgl/MWvbh0m3AVGUrHW3CyrAbWTHn1510Jkblg2YvL67Sy/PLdClG4xC38xu+9aP+pcxgVjpddvtxxIuYAsGKkKClIHSbthJstINP0FAefMxqoHQYpGLd8MgmqeorPLJJg28xoQVpUxgWKyIENudhxWAZOKWe2ezGnKWdwQ/Cgb62ChA4oOuBZtYzFgclQ8DzJT3oYVv9cTOqftAzuGGlGwKDA88bjX2lJaFMAioD8/tKWX6IHfkJMr1vuvwublYX/MiteOCuyB8vPcdf8EmR1jIdl8GhYNp/JaYtXqzBPQUogKeyz1riAhBNUbJXmMvZcYEZIg5E57AOI02rRuTEvb/8mx+638OABW8IT1iIN1fVz3JoF0qEtkBjAjQc6dP4EBRXAA2AhqItoH1GnmkYGJ74MDSEQzk4vJptXGyUrktTIfkJrxqa4dFaMsYslZHYJg40DdixUEPSL6ztWQoJ+AtsXEVgmPXZjGYgcCxiZAQT/4aIB21OFwCNYqZQWllLYwZiQWBuI9jAA+8RKCzEYFQX050y49DOdBX29qRZ5SB0Bo0uO4P06rIjzdrzB7svxJh8mXDId3NVVtKbTHUVTjjIDWbEFIXx2JQRO7AURle+O0s/lDpSJhb2M9rrz7YoPgKJnVAwLo5tkf7qvsKz+witSVq0Fc/gD62MYA4LJKaDoAvWoPvER13pOmHd5O/eMsLtfrjqT7uwKIb34Bwhg6aFgMApZMe0IbMO7KclPAt6GvW2CoxGhvdh/jDdUTmwDrRHWTJsPt8H973Pfst3FKiAcvhyuBLTFpys2wiwYkQKtAkwWTmhclhCZz+qiSP9MkB8memcG+JFAJO+eHmePvzwI0/EQ5wwEASJmQhjkVUmYjQZBMkzcb0Io/CzCSpGCsbYUQkYsQThMUhEfBqZfjDTAR0RFwSL1uEjyAPlJ3pNN/JDVy3U6DS4zW1pKwanKiKCPbZ0yV/JKU80vxCrMFxhZMxcTLCMRvplTGEgbCBSyky9mB9m0QXma0PCgZVLaHrj3+WOBQOZecGN+7CqO/ExjxlcwgqAYdGufEy51YhBOT5iXVX/HLFxcdNLnz8/T5++eJmeS6ted4ZiDkyKGBxE+LFSS+JCuBPxCn9bTKa7LAhAzpuKrYgwHw5G9aiw8I21AY4BrCRvm6SlVWbMa3AD7lnGiZZ031VhqQdLMmlDwsCUywElBaDeMBnHtmLZQD/ghgEr+qXkD03MpdnpqxKe/BAYNqlFF2htBKnppaAtumNMsZlp1Z/f3z9WfdHEYeFgQRigU/19GRCav03IPFKGzFv3xdkMn8MUTCtwZFwELNIqChx+cRdPrkJ43wMKo3e8NnP7ufAQgOjMtGQDkfAKAgXBH3z0Sfr0089sLoXmE1FgOqlhbI4SnnLJuYFoaDU84KMzRfzWsEqcBoFgIG5rUzUUWoEpoJnSY/0um+05kQ8zdjgKBsaUGsn8Q8tiDg4xBVXeifrLSG5MV46lqYqQd2UyeZ5RxIr2ASoyz2Am5nEZLYZRqRvaAo3CSDPzg6wwgmkhIMKDJs99YsKKqRE44IH6U0ePIit9/Kk/o+3WtHJoaKYxPAKsMAhLTGQG1mDYbQkXjml5+uIyffjZmfqs1zZz6ZOq+EpbXQVF9LJJMfphs56O27tOk6WLjT0xUq6T/JgeUSlCsCDU1E7Uh7aMzea0eZzrhRBAqFA/NBfrvC003SbMTYelhBCA2VkA0R8OVN74cgECjfrTp7f1orDgAcsGnMKQUBF5cu/ugRgQHDHIB6C9/ZFtheE9p6G4rytgrpt0WJnFJpHDg1MfuaoSuj4Is6DhgjEKIM9NsN/r3hEfftCV1znIPUEjbAERntaMvLf//f/9X4tp9bAMs0quHDGD/fy3XvgMEQdGDYAxM5PhybM1BQXBEaZIy9JZDfPxx5+rP/tJaFg1CuGJB2NwD0PCHPKK9JUOfhASV6QoDY8/kpw0QuozMCLCEtOaedW4NCinBfIlcvcl7mI7HAM8sxmjkJLyxJ8pniQ9x5TYDJRmiWNWmiqX5LEEAIsLmON0/1OE7flDNbz7rBCa8oMhmb9lhNbzuqoHI6qzmbSBTPE4YSGaCE2L0JKH60ofGCKDuMmDunqxiWqG6ccGAfLHDCYPGM2riBSHXS98+uLDL87SR5++TJc3AxE+OJXFIK1+oj43U2k3YhRm798+bKW3mzvp3RNp/Z15aqtXUN+a6l5CSu9F484rBC6tGC2JYEWTedoKHxUcYUC3Ykfx8Gsrn8cPTt1fJ641uypB1wAaIC1wRZ3AIW1nphQesE7M6MoHv6CdGHvAxAUn0AljH7H7J/AFHdAtAt/gNhbisGiFb0FhdiMIt9Lx4aHHQY7EtJK0oh2l6TKtNC3l8C1X/nTNzv729C1Fcxnzuww8g5v7YDOsgSSLPCqbEfOLTcjhfL0nL/w30yrH8a94Jn3uc145GmFY1vbi7MzMC+RdGcyl0aicfoipkxkcjQXxwwxMTzAlBNNF3zD6kdQ4tCB9GEwvaSIRFuEin5C8mL4cOMYcJxP0TM7HOthgHJi72x+lc/UDz0T0n0pjXfXHqVJVX1HhWw1ptKrMLGm1PaWPlkMTYDJTOwsfERxEhbaC8Sg7VodLqTwgMjSKGVNlzRYEWpRwEBlpYhp7Z5KYn+keugOKoJByIFQOU4+TCKsi4MvuMP3ko2fpk2cX6UYWBVYD1sKp+m8PVM8TlV05Jz4dORn20tb8Kh3vddLjvUF6/3Ccvn4yT185vEvvHFTS4wNZNLtz1XM7tZuM0tJyKqcsDhXCDIUP98xns1lA4tLnSD05PkhHKo+iSlA007tPHqSDZk343/IYAYxlTSg8wIgxK4AWD6uJLhNz9tAEQNuAN4Qg4ak/gg9rhral+0EaWaMS1hYJg4TKE6FHGDR4q8WWSykECYPotgUfUBe3nfyys39xLQPpF9EMgYf/frgvj+3/+d/k0WM/C+LGmZdg/VkJkVj24zHufM0hiVOOlwtgIl0WJq6EAjGff/Esff8v/9qmDcjkLZLVfRc9+cRANRSDJBAvjInpSJoQOP0fwpopnHQICMzPyJO00Fr0aUMys665tcep8iyiYH0r0wDM/aG9mNpJ6bAtojZv0ZcTMSgv71QRgaHhWFGkZMyINv0lmVkthKnOKC3mHHERLhBMU6YZ5aIM1EHJWJiwKYFyckA5qAsLIfrKvEcrUE+sEOY7rTH0Y64WfKHlmELi0HAEDn24q143ffDJ8/Ts7CpOH1R4poEOZP42d0TQW+P08IADzdl+V0mPjqrpq+/sprdOb9P+qbTbIdvnJISqmO7zdHIUp02Mx8KByk83ZCKzG+yS77aYd4+lkFsw6l6qCW+MzLteDMip3bACaBNMbFZlmUmFN1Za0Z40FW0D60SzOXXTk9sc3Ouez4HCpJjgo3x+sYQv7QgNMRAGudniUaMSlw0K1DOsrLHphXdN4YMlm28/epQOD49tGCMcsZREmoXFSFEoC625ou0M63yygrJ/vn9TWGDznZ+VLW29/e//7b/+7VUAU6Uh+5UZbeXHfyGTQtMYpMe77Pz2y4F0QYJHW3UP4sYyO58/P0uffvKZ93CyyoYPOdGnyYMcDAKRBaaRmd/lEFGLOWBmNCiNznGunox3GBG1mJ2Q5LPAFN6KUVukOoM0tYoEwGKUWlW9v2X5Id+iYWfILL0jxv3G2yk92N+VMIAZo4/JggIEDS3a2GNuESLDVBO+7nbSVOEGo6m171SFZKSU0rCnFJPQeNNvPpHWEnGjmVmeCQEyhYSZjxDwSifVnZMTEUbUH2Z1H1Dv1dFUejGFwXSR52NrDAZV09nlVfr5Z8/S2UXPg18QLFMop9J6LZVrp3KbDlt36e99Tea8ynbZn6RHB8LHngSTuucnxxI00oTq4koY3Kbjh5xeQRkqaTDZSmMqpjpMRpSFgazb9EDvv/mgltq7k3TQ2E6P95vSojJXUcZ6v7ur+sjMxFyH8Kk3QoTuBm2EQKCS0BR4CqqEweNUEvqenDxB3U0/ikMXI87Q4qTH+FoCQgumZIyCrhP0C+5iEUfQB3nB0Kyce+edJ6kmi6Mhy4mjcjhsYaG+bJjvCFiUA734EALLbl8JwjpY+UWer4fLz0sBcE+Y+4DQ6lrmwF8eISe+BOLI2XcZP9Lw4z2wVjBds+kHAunjwrQsYcRUYWM0GhbmZHSXtNnnyVI/Ni6HtqnFPKAImvk3kGttI6KooHGUDtKTFT9IdgrLx4fRNGqy1BJttLbEqKmX1JtLB5VuOq3DGNI46sftiZhhqNO9eXq0J9Nwf54ebnfTrzzaTod7zP/N01XnJn368ln64rwjJmOVFkeZSDtLw8mAd9+POV/OZ2LdLuY8moZTEj1wo7ot5zqFY2EoWga8iAA8wCXcxJSH+qrqJmBS96U9YWzeIUjw8yZutNB0rLA1L1h4fnaROjf9NJwwfYUW3k3H6qu2d6VBt2/TCQz7jVb6yhPKN07XvbGY/Dr92U+66Q//qiMNzen9B6k/2Ul9pdsZLPQs03vnNj0+BY9hDdC9UFVVdgkQ4fZA+PnWk0Z67+RQ5TqREK6m9x4epgcSTj4vS8KYOiG0+BIB1cbqgA4w94/YJKJ++Ik03zuPH/hriiyG4KuDHKIugvR0GIfcoVmp83vvvmMrifEIcIOwY380zAW4m6OMENyMMYTJK3+V3cJdDwgQTvxgaWR0SdT9IhA0ozDcm4YLMgYyXTuNkn8ZcrzsMtzn9yYoyCI0bXG/BuWEygk7c/lRvkiGwhCGZyAQalcAcaLiKyAtiDLixxTMxfmlB6Deefdd+714eSZtF1vVQIgZWM+8w8RlNJLBikifXS+xtlepe+ADx8J3GIi9o9bYYvb5rTTOfJBqW5NUS2J2CE2NtS87+Ph4Lz2/maT2QS29+6CR9qWJ/uGvikjr1fTgdO49pGirhUy/6w4fIUYzi3CV9p6EBV9xYyAnBlFmEhDbMl1v/UVzhAerqGAwkEid0KQMrqANfFqkNDzIRAB5hFmaA8LmDwamrjUxb7cbW9rQbmhmjqCJhRoL9a1lWuvdh9Kwr646SnNirc9RpvQf26pnWwzRalbS6bHMy8pUvDZOr3opffhslnr9eRovtlJ3uEjHhzLZZ8dpPD9OF8rz7FVVwkX9e1mig4GEzd12GkqFDgdjMyIDZxyl+mS/lt6Slq7tnaRK7TBt78kCUDx+I1X/QGXtsSEd3KkOeuUBvuhOoHVj2SOzD2hDyAt/2pQvACKE4UXjXTjC6oAI0MKYs5xbxTPnIaMIoBkzslxWFtAF1ol3gUno0wWBXhi4a6nLU6vFKRa46G6txh+AMk2TPi6aCh6hxKsw+X05ToY3+b8JViUQONMNKPuRcM7cUzlya9v5CkeMHK4M5Qpwj0Pi8Yy5+fzsLD1Sf6LdbvuwLwYEPO9oE4b0kGQVrxzyABLp4y9EOp0K87UxYMAgzaDfTTOZmyxFZEmhBKeYVVpbz2puxZn58LOxTNnr6Va6EeOccdayTD5KviNi+mf/tJ2++n4/nT6WCbu/SG+/X0/f/tauzMm2tIACqUoQUVd5XVxfi0BGaVtarFYXQxweyaxsmIkhEOlM/WJLGFqFvcKHnJwoAsUM82izhId3rChddhShHZgyAkcQHITLPVoKhkUQUV+IedjvWVMwldHtj9MldRHDit3FmKq/zH9JEDGGkhcetySQnr68SX/7SSd9+FyEuyXzuqqaI1ggDeHprFNNT8966fKa6aIH6hPLfmDBiXA0vY2uCEsRWVRB86Kd1Ci6lzkr7cfjjgRjQ90P6IX67Lfq6U7aVXrM1hDrj7GyEMTUkUEmBogQ2LQz9aM9GE1/9OBEwok10DLX9cxBc2xffPzw1BaHN0coDzbagx8wjvBjzyyDWCzM8FiJ0kTjQk8cxQMzkhcM7eNppMFNv/oLOmXQk4FFxbkH8Lej4Xgurk6jgC+L+8sC9bGmzZFyBr8oEQjPBcQVfoq8Kqj/R3rZ5ecM+Z5G5g4pVq/xVblFOj+/sMSM4zJjYtwaUsgG4RBKDB5sq5E5ZiQWjdOQh2IUGpsG5HulDw4PPZ+K+dztDRRf5CgmYmN8W8wCURG7MxpIG2+JyOepN6/YDHx5PvVI6K9+7VHa27mTBtlLd9Ks7T0RoPhqMN1NXREc00AMjGxvzZQn5xLTr2JUt5UurtSXFKNw9rAHnFRO94tVD86eQspDoDHVIVEif/e1xKhsREDjeLG7GBI8QeR0CWB61vIyms5qK7R/S9qHuV2+cPdMOLzsDqQh1dcXrhdioLr6kS2Zi1KHagAGr0YyeyepJ4YZzbbTZFETow9lvjInrvZUmov5bnr/nUk6aqnkCw50UxkXO2JiVmLN0uXNVPFZD6zSqU0a9e10JBy8dVxJh03VqXEsJqe/zQozrI+JT1C8VCQOURMhCJcM3NFdQoDzraS6V1H1ikEiBBNz5Yw/0MYsGIF4YXBokH4rQh2tSxiYjrK4zytmBLdYZT4zS3EgFvCMkHB80Uv0ad+SNXWcHp2cSLAciKBYERXdE6jbTE7OBe3av+TeBPe9u9ePXJzHG6DIR4rx/kBfFpk33r5Xch4OUIJ23Ct+dsBmIfGHYUGstaaeIeZzNohLUjKxzgQ8m6QzwmBWwlsTCWhMzBr8YD4kLCYkVybJOZOINS07ypoVRgwusHYVbVvbWSS6uXsisgZmkohRXdK02GZ9cQxwDNQ3+5Mf9tMf/NlIfbuUPnp6pz4sB5pLoy/q6VQm4Fce1D13Sdk6g0G66F1J4w1ARpouONFBaYpVObECyc++XPpYMB2WBH1T6u4BEfmDJTQQJjNTTvS7IKhHDx44DINTHjzTewbdEAQssGDRA/6eD5bmf3Z2bmuD9HakPSHq2i5raqVBqrfSmAM5zHSVXYJsNINRij2r8Kfqzwj1zUjWg8zk5y/7XkXVU7s8u7iWqTzxQNSu8Koeg/G1JTyyNrtdqwj3sgrqfLNIL5X+bCLhovIesmhDZdiVgO50bzyFRf1zXxbz+ur6RkzKCRRscZR2QxuqTaEhtKYPb5NQjy+/x/nNWCWcL83JJtSh3d734OXl5ZUZFHpjPMAHpHuwimk/0YvSYdpMiHQ8yPTly3OfY2WrQfFogx0aUrBJ168DGF8BZS7T/ma8tbQULIe/zwGEVanW4U2BM4Qf0mfduXGW7k3xwuV+AffLQQDFATk9jiCRY4SPOU2lrp8qJiJnYIpwECqNCHMyGARyOcWfASzMIk6k8Eim4kzp56oxkOWMvkKMEBhMI1lrLchSuZ0tNnsrjN6x9JDhqpqIW3I+ffaqlv70Z/P0e38xTt//7Db9+Uf99OMP1e8bynSXFdDa21EeKXX60/Ti1VXqy0IQy/poGrYTqsmtPcmb+V/qAkwLpsKkq9WiPtSZHTxMXWEm0p5oFAgTJu5J4yKsIHbwBg6r6p9iSaAVZF+nq+KTj+SHBvaijGrNc8mMLm8r/zvhiKNVBswwpaq0M5YAwgwtzAgplo3CSYhdXaXUHw9SV4wnQySdnY/ESKzkirnyO2lPiIl2AG/tqsx1JTOq1KW18UNwSUg269KeU2vZwbDrwTH3QWlPtff11bVpgIUgCGuOCGIBB+3nQaVmW33/uXcaQXMsO6QrBR7eeutJevjwgTUq+MJk57QMNCuDUxwOz73XasPE+nHa56tX5+nV+SszNFYN4wRsHmDOPzY9BM0Sh75yxjmQGS67gC9hyhJs+t0XLue9dIV/cI8gFyRDJBL9QwqyugqJ3OuPZBxLftavfofODcgF2XRhZkgAqzFgRFJhEAYp++1vf0sm7oH6ttIsalAAs6nMrPh7cEJlxo/k2F9JY8HESG2OS2UEmobyflDFsQl2F30TGGlRqaaZTKChCHiG6SczD5vhTv4LmaZbt8rjVsyEJFe/92V3kf7yo3n6m0+3ZX6O0/n1SP3f2zSUyQyhQ6CXnVF6ddNRI7MpnAPmYpUWA1OYYYxqSzzpyuDKXXp4eiKULczALD/kADkIhukK+q/UD0Jmn6eUt+vhpZyqE5rQiwz0Am1xI/OfxfWY65jICqQ0VSOYXHEmYkyOgdkVwthbyxcD71SOWhNG5St0ah/hZUf9T5ZRenpD8gWTt1oD9xJmuyys3/OA3JaIuj+Q0BupPG5+mfzqyz8+YhxCbas+8rbcljS/uEUWyDCNZ1hC6pqoHieyHugLM8eMYMGyygssmG/GIor5eJVL1aFPCiNiakNDMF0sqlC3Rvcw8Zm05PMXL2yxEQbBw+BeLKZBEMViHcYPvPhEOEQgcKVrQRioDQoVdVnYkj8j74u53ugexi0zb4R+HTZ5iuc3+eHKPPJlTkx7f0IIbQoTx6LS16BgPIemWg46eYifhFYuYgZEWvJVWCB/2Cjy5F0wHf0YmJU1ssNhP708OzNyWcQAEgHMGb63wvYpLy/TM0SNo9/HKCmNCEMzsIGWZQsaGje0L2ZOmORMEbD/lXtGsfl8IuqSlVOszvFB5nrHnOdN5yzNp+rrLaYiHhGBLLo5i+alQqZiGOkGazk05ZYY/qI3S1c3F2lPpiKrhLp8IEqV2N6ty78nc1xaQBrnuN1Ic0l4KJ5BFawxny4he34xm6pcKhJErXJAsFfSMB31U70JQY6RdIrNIo56cz/NhEgGtzChK9sxusraaIaVtpXHQIIDpt2+i5MfRjN1AdTPHI1lvk4ZbJFAVddgS3W744hcxUdbsy95W+mNZCZ3e1MJB5mlamkW7XfEsH0JLcX2Qo2HrZ10oD4/n6lMt8pZ14nSQ/PRZvRfp9OR4vNpTw5/Y2G/hFQd5ok1xGhDBBXWA+uiB8p/KMsCC0OpCMdYHxIMcpeXF+7/D5QWI+r1PUZ8gwpNH2oXRugZrIJO6D4wx81cNZ84YdqIM6wfPjhVvuQ9NS2yNU+iv2BOVUUJ8iFrnz4qPG+6oHhcQPZf5y35CQ8RfgWrNIJfysBz9uOKgFL1iwjr6awlUk4onouHItJaITbSAdbeC3hGy1IA7mkgInqrlwiOkWP6ImTEOxZU4MRLBk/zyD/MTAkKUSfpCKc2reh+0Hfx6KGIttGoqtHUSA2OzGQbX0X5yLxVXjAzI7Zbkt4MeLmuKi7MHXlXpE2GEhi7ChujkTAUizl6ImD3q1WeLWniHWnt2XwrdUccpi4toD4z0y9sFHD/SDCVsEBT3NKXUx6c6ki+190eXb/Y2oZ0Vzkg2o40CPkiiCA+j0KLkDDXsFLoRvhbryoPa3kpPGbddI5kmfukCuwgjpKhnH1ZBlgZ7EyqClEsqbAprsx9tAtNBbeCV7F7VX1/zsm6uu6k0W1VqJOWEfMhsS7Vv59LOO6ozGxGOFI34cmx8HwoQlebsBpri3zEkIdHHBheTaeP9tVIiu52kiZX+TlXmqOAaAfShzawDBCmtC39Ty8zlLmM5qO8tBPCjP5uXd0Ga221t3c4wZy65z1tCOOyWMarm4QP3gv5FoQsm2VKyIKOuskxIk0YT0WJrjIPhPIpNL/cJoRf+d3qPsfJc8b5GTDNFeAwRX75eTNsUJJA3msvy4E2E1DQgMJ/DbJXDlNAOZ0cjbRcCCEDBHOPFGy12unJW2+L8WomWCSm947SkGpkGAdixR/Gh5hJE3zsSKVVQa4QjigYS2PeVZgqYY6UrWlqVMVbLNRA0gAMjmxvw5wiGCUCM1Muf+ldacFsrHzqy3z12mQJg7u7eZop3FwMyiAOAx6UA43OeVVdafihNOh8eiFJTp9zx/1RbyZQHTgFQrScWBTP2mrqzd7QvH1NyUna74lQWzJv63Eag8JgMtO3xYRDI4FjGBHCQ8tzDhR4WqgoWEbwxoFw2GK+UfdMNXFWFsedzsWY1W31n1XtlszxKmGUb2tPGqwKrqPNmFfeVhrj25pxWldcBF9/iMXBghbxn5j1RCb2+zKLHx1vSwipDnd7qknVhH+rH+dj3XTH6YtnV+n8qp8urrsSzlfWpMyleveU2pQuDnWD2RhBRjPlcQ93BSiTwjByjvaGbs4vzk0nMHZPQpBy09fFSkCzwvTunqifDw2RPru+MJlpd57NvHTwBfSXaU9dTGum0+Jq+i8BeeEyxPvsgNVzjlsOnyH73ZcHQP0JwzsXaxMiEv4E4hnfeLYfj77DrcfffL4PIDrWjOZCAPRhYtCAL8odexTQFRDSMWvp29CfsyZQHjQqDUYfxY0j4mCTQE+NQb+RxvBAlTQhAyY7YsyGNC1p7IiBZV1SEJ/s0BYjH0sL8N7mul7hGL10dtKg4lFLa9KBUC0x5W7F/G7QhfplYlhMM2/uHjNhP5QZphSohxEpAlLZupjxyhPpjj+jyIycw5wIIFb0eOuYys8aZHbqhGUhhlO2HkGGmSiIAM1DOt5FJAZAQ5MXfeMHMv0OWWzBKKzqBhPRZ2URxq6Ytkle8gMXt9LCu6ofXQJ3D9RHZeCK9cUVxalL6+7LYhlNblOHhREqA8ig3/x+ezu9f8zabXYzoS1ljqo/Ox3fppubSfrki+v08ReX6fNn52orptxaqb3fVltUbdJy1MzVjRj56lpxVQb5w2x0dyxQjb8Q8gg66m9Cl2Om4dWrV6IDBsPYTD92HJiYMPTz/SUH/WBi2o2waF62cjI2gIDwrATWT7drAQejKFPj2EJZAENHd9FZO32X4x4w/VJuQQ6XnzPkMOVwwEawtXAuy32Zxogw/uF4XveL6iiZuC9y8bNeQ9T3pRuZhhlSjuNborpAKV1fX5kYabhsEuYzfwkC03KPgzl9FeHvSTM1apwpxAqWlLqDsUy7buqqL8kRI5i9JgIRMAveCbQvO7a2LWbZmokA2YCOaR2Ni00+u92Sppj49L4dETuDNHWZ3BWFHYvQIXD1glUGNYqSvJOqG4pvuoxeVqXxMFGVD+854Gwq7cxnNUgT846pCwQW4tCLVoQKRAHTODATpjFTVdFv57MhQbCMyFIXBvCwaLdUVsx4LATwCQ5I7FDas7lzJ3O4knrCBycXSg6liYWA8AruxLgHqhOdN8Yp2k2EXvJo9/bdVMyKpl5Ik03T9eXYuBuoPwtTPxQe3j/EBJbVpDa4u2skiQ8JLZmyElBX17H8cc4An/LjDOrpsBfdhqKdOHGT8QuEpjezq2wIJdoVQaZU3e9nloBKEQ4mw6RnaStLXRl8ylqZD7GxucKCW/GjPxx0A9NDe4w0M11GeE6M5Mt6aF3WvDPnCxAOXCMw0dK0DX7ZmWjlu+KN9fercAH5OfPG8r3+8KMsXIvXS1jGo+6FXxFwxWib9/ma78mknOEmrIUtIIePKEVcAaO5CmzJh3RkQT2DAWhFzEG9NLIZCcxzmaRN/wbwCKPee9ubCZq+I3tlGf6vWwNh5talcbfUgJi4SPihNMblFQsuFpK4MiPV3d2vc/B2TQSjsolBq9IiHC7GrpwG9wqLthT9efKf0VNKRDjC36ovWVNeUxiXlVWLgTQm7BhAnSFB0bo/k0F/1kfBiCAzw0JAtiB0z5ccOPYGImbEmSNpqAvpgBOsDDM48SBupceX7tgny/eHbmTyMbB22pJr0g1J6aqn/vycBQ91m+NwfENhGuBH5eagu9ODuk+hbAhXmNASi9KG2+lccTFLpaTTQW07vdXaTl+TSfzgWHViv91OK+3UTsyg3gGkHOYShjuyLOiqgPOJrmx/pKHos3O8EFvimG6hItQVIYfQpH+exyx4B1HT7rQvB/hhWYAHNDJdmjB5+XwJXY+Yd4bWGNwiHlocpkVxQHeMo2A2oxxABUIP3OMyfQLLe+GK+00HBL2X3SYET7zm+EHXKlNOqwxrYRXOiyvKGQO8zOB7vVqFiciUaRmK+yLRDJ7WKZJ03LjlgcBGNMCV98TkCkHCrCwu8ES53rM30pKMJBXGDIw5rEYhLcwF7+ZQOKVm0waVZwZXNAnlxMHbJ4dtr2ry2b1qZEYwhzLlLq5HNh0fHDX1fkemcl2Mpn6lOp58TY2yMXRhU3EiJhGBs4VuMGIQSn0u5YM5C0JttorAp/Lvqd93Ox34PYMr9MOpBwMu1h4wrMrCAgXqYQITE3qqQgTGp0mmczZ6w8iYvrGtD+Hl+WQTLydFcJBdjK46njQ8Ay4TpQfj7GzdpsNaJT1gIE553wwX6emVtIzqgrHByqbKneIKn+ynbYsZGxI0LJLYllUwGm6lp8/76ouOJQTELCrPcUPadb+Sfu0x2/jE3G2V+W43jRbNNN2Spr3dTtcSaD0pLNYmwyzghrEBjvJhsI4BOcBWjevPiHEMIHHoOhZGWFoM8DFIGd/PBY8wNQta2IiBIMXiyAsrAIQ+DJ5PryAsmtdCXf6mR/mbca2F0aYwN6vBgl5NzQpj+oRZFA/PlTYkxDrdZ8jvlg5TyKTPc9BxFEIgL6e39FgH51+Kp6JI1mKjW+aG81wliRbw/yvsz549y7L7sO/knef53sysrKquAkgQkk0KVjDscDj84P/AIQ4CRYcEmoRBkCAN60mWX+rfsZ/84j/ACkfYkgxSxECAaKC7q2vIyrx553n297PW72RmN6HwuXnyd4Z99l577TXv6SOWyzG55lyOhX2UYRfe1wIiDs/G/FxDWUvAj9/5DfKDVA0gMmxVCIRUUrfeExzN6KOk1P0hD4T+mF97pNrfFFNfRqK+Oz2LaXZTDEQyb60thznXaw6n4AvtQSPuH9xU468shQAjdFejcTeo3tKs6nMfeEFuMezb4e27izBtfMAQkEisjvdwfjH2XSqOuW9DrAJbU2EacIZiYgIGtw/RAElryVaDGdBsjb1N7urREUpaG1HelgaurpeYxsxoeDCXV15MxFjvpGRFj3V9gJEPq1vmOtrn9r46oKtl1xZnYg4HthDnaczb4zDPSQTCaXBlGqS+12e3SZ/2ubq6HY5Pr4bvY94eps62TFmYeRherc8Mv/58bvj1F7PDl6+Who3tuAqEybA+XN0t10irawMxbp6G45jTp2F0y61adZFrYdvO6+RVm3CnPZnIAkkmtzOvnZFqZR6zatKsExdDDYxis0Bdb77Ff/UcjfRKjWnH4AdjYUC0JKLsvr6fMFx1JSKr3KNEpro+dXQHvybIt4bX9nAX3oglpS3k0bQogw/t1adnTf8OZTnwkL8++tu+11p+Prz3zfido8tqJeeYapMsp9/JKYN8NUnyV2RSmU8KnDwfgRyPMYV8Kk3eS6Os+oX9TlH39X1OkrXN4x5gIEgAeTXyJoAjtpKmik2+voN0mocGMqWK+VOMnyxJ1vJHEEm0sdUl9rY3ajNkmnc65V3fP4v2eRjeHN8PJ/nV5TI/T4Co39OwtRUGj1IQLaUljk/5PYgpDB6VbKABWAqoXNbAhlzPhdBomWdhWppYYEvf5n0I6ylOpeGVAmUCUKbqgVn9i8CSRy0Tk+9UBHNadhTzQhsGugvV0dw0lJ0PVheXy4ecSt6Yn98nYPTN8eXw+ux6OIgAeZY8LcBukjqcncdczevh8Jy5/1Cjut4c3wz7p2HmqOHDizCT/tUwz/bq9PC3frQ4/O0vZoa/Ee36/MX0ML8UVcpEndsb7qZ2Y8rPDvvJ8DCC8uFR4CvwIv5qq6naEoQrYIAIIigzNgK20iUNy0qb8h/raBIJ87Zv6nn13wdvgks0qvT8ekJNK5gpZA/eopWk7+VoDQE1n5iw6OixvDByWQBxIwzCECR1eIdWHf7Xx6ycckXy+z92duo+kcS/xzu/lK7efXhdx4c0H47xmadBZ77I1fuHk3PM5+Nn4319+RHwHx/9bALs5B3EjIArD1EyaWnLjys15mSfHGNtaVKEXMAUmGHOIFXXiLQQq7xCMElLSidv+7IwdUhYZomuGswg2KHRFifBJgGohcX5odZzSnOYmvaT15fDDzEDb/M989RgDtL3JgR8ehbTLtoptJA8YkavWjRNpPSx/FMTu8sqCEzKs67U6WUEiFFJRtrXq9SZ1kh5mEa/LVgqcJY81Ac+mqByHcbjyyLmvCiNJOjS5nFrGH20RuvAiciy8nUtiUKD64ezm5z3w7uYq0cxjW8e2FIM/lgoIrxPBj+E6G+mh7P72eEwWRjpxcfUXbW9Pj98uTM3/MdfLA+/8eXC8KufLw7L69GCy7EcIrgu7zaGs+vN4frWzKO0S1T/SYTE4Ykd6S8CI3O1JzPwN3syvrYUaW5zFEOWKxT4UZ+z2heM6hlo9SwY+aXuZ+c9Y4dWZro64A4TqzvNiRYsPECoGS2FOQm9YsykdWDk0borOgqOKYdTEzSSxnjuQmyO0rz5LZqfPCv++ej45fu/+pDmF8/ON//9lUfz2XgSHPXdx0zVBXeC8ei3/b5v+t2Y0XjU/eSdgxX98XvHmNcv5J/yPYcoUlIAikkJkfU+J98QIcqU6TQBuY98Z1qaMbaImvko1G993lpx8Uy/nh0KEPj9sDxHE04N65H67f9EkoeAr6J1D46YhhZHi0AIAV+cxGS8jzmev4XZ3gOHSTz/LEQVU/cyhKYvl+agMGJZhRDiZ9/k2+RRDB1twnRLQUnQi6whFDvL1dYcIehqg8BYdc61LItB88wp/agJoLhGcT314AP7+YpGH56knoIoKU8iwrEWJc9drN+Yr/lNPZ5mY85GeBihhDGnZsPophDGdLX9ySafdW9p+NHO/PAf/Wh9+F//T5eG3/g1CwpEK4bhTTB4nAqz3m4Nr9+tDIeHTzVhwkR5TEYTMoGnmJyp87hQOLeFFaF+FtgjgEvL5tDevmvffCKQXEcgYUD19K6skcCN0dEBC+vk+KQCcLrHRJh9x3eFS5Fko8cIDPlgXr9Fp0EMpmfRWTC9hEhoiVAgaAn/cXlf1+rmo9HH9cvaGU/1KlrO2Ydv5fHh+cfnLx///rMu21FvAtv0/+W//Ofvl5upX5c5PyTtQh1jfiUXJgz3cSHvr8ffpHEJCV2pSZpIsmbsTudZfVJFka26AC6Hn3/3XfXdBVd53P2HGs1BC8sDEklSmqoaIomDumJuK0b0gmftE1UQJ+m9p23n5hcqaFQNkzRFYLmoAQGBo+aJGkBhGcZA5c9gCgMUbEB9EwFgKGAMtZodZDaOehissbW5UnaMml7ex2+On1cjpwIXOPnqNrQyuKO0cPIg1f1hUFFR6eCuhi0mH0GmJC5T7yzmHPiqeycV6r5bY59PhyjSQi3iNNRvZb6DarpGCBwbOs/mJByZ34b42SJke216+GR7vpj1xfrD8D/7G2vDF7vD8OVLM46YkQ8pNwR9HbN3ZjXm80Z81vkw0GJgfRoOzi5ircR/jWls2KHhlfzuq0mbMYWZsWSNhdK13UgFGJAmU2dwSzsG75jWmBANGL89Rswx7+aGFS348hd5EqETvHkunW+NL2adKMPzoLMYfaQ9BxzzZy/jorx6sRsXykJ5Zla9SPq0SNKjUfBqnwBZ3410K6e+/pDnX3X8/3s/HmNeY/LxO7jBJNP/9bju8eQYtZ90lTT3hdhfKs/tLwMxFiaL+n6Sl6Miud65SeU78/5+zCcsWE80mmjw9z+8ia9nLeKrMFYaOMStIZNTEW4zLM3T/ptCSfPR7Nbf55ckJ5kt1KYoS66Q9rVUyXL82jSMqOlU/DxjbGvflsArWOS4jz8T1y9az2+IzSj6ECkTmtaKmM53dtlbqirdB06+mwCX8c23D3PVnwtuvqlg1VMIaStp7MOjvsmwNAZ4wSpS3EKIsGrz2QQEfrKBB2fBy12onxY6j4ADs8grAheRXotAUN7W2srwYnU2v6Lii8Pe2vywtzI1rM09DbvRpruri8PLzYXhb7zaHH798+3h8xeLw6vnM8Pe+tOwsWAtKuOM+f3DcBBtehHNenQ5PxzfLA1HFzPBaXAbPBnZdBztFDkWvM3G5Belpb2ZpN1/rPH5krQawXcfeJ00IObCVA6CtkzmnCLrKBATc3cE4jCwX+nPT89qBg88iWWYsqgcAq4DWT2Ih2mNXuAaDdZIOwIk7Y4otN9VmPbTT16k7ZaT9/zw4vnLomVqZFQQBu7Us/zXVNsHuvpli9LxC/yU/z4OKDk8+6uOD999eA8G9fwFpv24UInH5PX7S5m76zST5x/B63J8X9fSTc7SWQDvTOtZH1K2lgSHBjg+PR++e/1DTK/DmDwLNXqJn6Whb2KGSYeJETfmJbeNZ4VceSPiikqG2JnJfEmzSOxtU0u15Ht9h7oCbMUY0qtRSAtzyzF/l0oQLCzZSydlGvaYd3kYglkI4UVLp2FpL9tIrIZYjDK6uadh9B+u5BvmsbWgaIpo/5L08a8ssRoi5V8bVmk0EKug/Kv4yhV0yQfh3YpK17IoeSbaSjNiakExs3nslMcywPC2vkCE0hpJpYzdjfXh092ZYXMlZQbm57EADDlcnLod1mbuhs0w79rcXbR+hMESM3luOL24j/k+PewfTQ37F7PD929XhpOrleHt6UIExHoYcz5uxHT1AYeKAtNcXIqTCFfaLsIy+CIYMZchinPBk+VoLHqOabkjrAmMqK0wLctJPRxjHynzXzRcOvcLJRwJuKGEEsvEJm0EHLxqa/GLYozCuch905fnhCncEOzgqABeXhcNhvy4TaurS8POzka1/c7uXspgfVUWla4EaWB5/10O9x+fjvGd3/FaIeO34/HxdR+t0cd08OlwzzWi2Kb/zxOmLbnhfRUSwPqhB6W5+nlfd2aTY7zIb7FdFTYW1abHCLg/90k0ya812XiMlSuTUKMG6d+/fjO8O3hX2ln4hHlbUcHSsIIeHYwCgCBVICzkF2EknWgywIwuoqHk0/7wU606cXh4VNrOHMo1zGiIX/TnQny8tWgiM0GsJKjeq9FaW+ub0Vhbw+723rAWLb21tjF8/urVsLu5WcRgNM3jIy3Ty5je3LeZZmVE2gSjhkYH+6PCwWVgMOCfVcK06zmdbbKHJpNWEKsDNRoTI6jrUfyvy+uYkNHgwjT6K+G3Bl5o3HyzVvNnU9ZiBFYY6WluZ3iMWXv5EH99amm4fLYwHF/FnE0e7y4fh/2T62H/4GI4Pb8fjq7mhu9OU+6wOxyKKl+FCYZo2DDfYwAjNO8iMGir2u0uf/YPfkidvBNlf79tB3GYtPDO4jIiy9BFz0yL00tgcQDCWFsRSkRo+bgTRqzBJ8gj+dGwtVdP8uLnM4WlI7jggVYtYa1dg094LQiDk/Kp8wuHRmz5XuxDngJ6s2mbly/36v3OtmBo2inlNLMCrzilDvSK9pr+gEZZfDi0h3+T1zk+4oXJWU/fJ6gKTu6d0iBZVmbTO1qa/q9+//e+YlIFAzlpRoDkE/eoxrNiLhlOTu8nmYyHIgrkpB9TKvzfAy6ntKPEbDt9cqQcjVwmQN4bxfLzb7+rUL4SLDMCPhqSr6RhSqsmf79jWZDHv5yJH6evzvQrDENDWgnQrmt2grsMwZLEfCJ5kQO2YDQd0QCnjaWlGoxgRNHa8uLw+Sc7w+efvirtwTwjHO6jWY3G0ejMZ3mWmVpdBIggjW0Oa8wvBMov78XdUpM0QC1kFvgek0Y/q+mOjqd85wj7V3/3dawFRMm8vgyR0bJWdwgacjTOa5J24eIhWm1m+GRve5iKILm8vB0OjnVX9dDDs9i6+mgPz+6Gd+cPw+nt7HB4YRBEfOVadTFWSBj67n4q6W6jXXWRmBFFaOjPnKqlW2gyASaBOKOvbuLfq3+8roLJM9up4BFm5UUEKA1m860KQKUOtTqH93levJTvmKZGdLk3/plGZWmVqZsUrAsCUkSYAKc1oU0bcKXGJYdK0xMqaViWm/foBJOCB91wnXSfIUMafinChInM73+x90nKJFwBBq+UlusPNDuh7MI7ups0X35zkbO66HKMdN70+YEvmkFHHsGw6LiFW6XJM2uZWa9LHrX0b28LMim6yvkgOcbnjs6033fCD1KlM/9w1PUkn3o3+dbxy/djWWO+4y8Aj09Ohtdv3oS4Sd32R0lHTFvbRuCyXJOWNCEEGQmUehbjywqqzJjRiJifNFd+reQQ0xbR0G66g2yTcRWtUwMSkrXF0fSzirQenV/Vt+/s2/rmYDg5Oa2B6hjJSgqv3+6/hwmMNCpEqGmbayHKEMjO9nbM7amKTiq7BgckLZOdJhJYEjEOJkpwjSOtrgI7TcBUs7CdOaYddU2zxizH3FbmqBFlsRqMk6ZpCVeR7ceUz8RnebAGDB2sfXTzLtVOaTA1FZPfzJwWiuAuQUHQ5DkzFuNcp3z14ntyOWjC+XmTMIx8ekiaaPXgmFVUCiHH+sZG4T9FlVlaE/zDqDQfvGlTZrBG9gVcw4P6EMAmfVjRg+BFI9KuRMCyQKSlUWlYZZSmrVFx/umNiIBNXUTw+dPvBXzqS9uz0Ma6WUXk5fPtGiP+8sWr1HExME3wnJ+p6ck14sq/4uFcm2dbdJ1E9ROhXfSIWfO+yqzL+iBnH5575lu/9bre5zpSS/+wPI2q1fbSRNP+UvT4o1/Hx9cfHyRA/X6cdvJbJecs03jy6MMBwNaovn1fiSRUSc8qipin38efNesDwx2HMTyDYNoSI44Vrt8qiSTU7aKLpCOGrpNhSVqCwPBIzGCJGdrDfqukszHPM2FkE751VczE/zs8vRiu+FUh7pMLG0LdROvclIbcsIdpRaOfSmvb1KsILeW0L6WOmLFN9pXltSI0jNtjomOyBXbEYt+Z6s6Bi9QfYfFfCSpjadUbQTloqJP4ksFUMQVrJBgICgksmlbwKPnFOlCe/spkngafGZZX4gfmmhBQX2Yj3BCKJRBSPkZU1np8RuVvxifWHpidNjG8sNaeTjtox5G5LLxmSxataVJAuQmVXyyQwAEW30tPq7bm6diFdY8xmndFlCyRyR+Lxug1dKFvVx4VhExB8q31sfKNdaOUmZuqn1VLLGFjeR71gd/Oj1CKYEzbO8ulCizyWI/mtr6XyP/G+urw6pNPA4uYQxgHNSEomI+2K5Z3j77yrXfq7ppxz91RfrUbmCbPCLHSyhjSt/VVU++ojeG7u5seYj1JG6ZNXto4Ur13zfsFxsv1eD9ef/x+PKp7wrsq7sNRd4DLOVZm/N4zvmQxbQApzSINoJPGMxVyr6/Tsf/usFZndOiuwJ7to7RQMN5YZZ2lFfILUd5DLclPY6h0RRgjgWlD5XVgKISV/Mr/inlkraDyeXMuhcgxnrmW+o0xNXBFf2tubPKr6HYan3nd++x03cvnTlrEsrS4XGWrEkJbiYbFlJ4x4XptY0MZjSNOo6ZsRE4AlBagbSbMpPyTEBahI20Hb9QPURNiLcgK8U+NX+Oqy6WYCC6nKCtzHZMKAolQC2IZaGBKn6VfCBQa0XrU/EMmvvLgmfDQH8q14A5gIjjkStGg4C8XJ3jAeExaMJZvnrQsDMxnZpK0no+M67pWkMxvm4sRVnlOi2oH7c8Ks1EWoSWAx0S2ULwIMyFveOhS3tOuUEH4yRvN6FUgnAnPFvKi8CLSgolxkRZna1XGT199nrpEMw9tnTlMwQxbuSp3hNffNJsjv3UF/bkqmpvQCQtQvbwvZtdOaVvXGBot+BAs2rOEonZ1l3f1uDMezeM+urH7KIYcgcnxy9d9O3mWzzCJo9IFoGSWty1VMEC/q58crWE16njUZ5PripIFUMRlxYTDNBDf1FA/QYrDo6Mi9pJYIVTfqlgRdX4rjJ9DuYXelIX4aaQK1OS++0wFMnoVRETEX0EUdxXcSZ5hWERX2hLyU5ZBEFcX5zFXeoqefDAXIEahAx4NYdwsU9HBlyXlx3p3xLNHbSG6ABMYBdZa8oMtr8tnI6ERU5ncyZcf2bODQvRJB601oSDPwGOQvK6S6oPOO2OT5eMbjKIbChMh4K5bLyaHuTApRsQYF2dnJdhoUqa88tZW14Jj7knaI8KDhjXzyDYu/G3aqwM93Z7q6lsEO2o1zzAMASGV9NoaLrSrsuHKaDRWA21PkMKvusqrhF3eWTCBhYbxwSdvMGHCPkXyCYMWWO7ByAJhpmMS33vXVsZ0fNq94YsffRYz+ZOUZrRYB//K13xGkFRz55s8zuF7ddWe4Bt5ZRSg4MYfHrsfD+mU6xjTyABcaLL4LO+k6c9a4U2K7aOZsU+Zj+cvHzLX4M5Ko7B/7/AsZ/510blMJfq3zRy/XV6DQepp1OrWCeB8w93d7Ujg2TKhkrwQ7r08SU6ae3lxqXw/RAHpxpoGCyWdSyvEcSP9mVcWFte3mQ/rGSa3+iNGxxIaM69qtNTR4WFpT1tSSLsbk2k6ZoulWS1JIl1HI8PkyaeOsiQ6KESSMtO9t+L97c1lCQbEaspgme6pBy3Bx6StaYCD4+OqKwI0OVvQSfCM1ri5vqiBEhuBoYbfhZsfYj0Y4G6JGfWvgfgYPDzBd/dMN4zuLr4WwYXZ4Ua6inJHaPELEb5NmyuSinHD3ExiOMe8vXBcD3wwFTAOb4hqerCmNAZAYPKmWUYGoRXL30/9CKjq2oqAJWiKPiAsB/O2hB6yCQLKpA2OLgIPhBConstXHEJcwbhtgtF9DY9MegIIHAaP6Gby3lzq98IkeXg/Ck/CnjIwqqoEQ2AozZjmaRptQe8cqZmgG9u80tRVH75vpsNwfY2+6r5w/+H0sATZBIYuI3kG1nFedO6SR8qKY8t3/gWmdTQTTW4mxweAPxzuill/KW0f/fA9AB9967or1ZLzQxrlAjrMnF/rBOs0/+zVp7U0Zo3sWVsuk0fjYVhmqu0hephZm9sIG1yIT8XrCDh8J9rGIXJIWteGzCF4Epa5b+1cC77Nh9jng6CVXNiW0QJs08l3Y3UxDNNDDpmCse2K2TAfMw1GihCSv02g2vS0IsdcRYV1QQFV2QIgU/meP81H7gaMJkg6jCtfaxhpoqcQkCVRTRiwANpc4MOsmFAfLsJj3mJGE12LYHJJGNw/RAMHHsMlg/BqGX24G+sb5dcSKPCxtb2ZbzAK03mxYNIPTdOydvYPDnOtn3Xin4I3uV2E2S0+TrthIq4ELap9pDGlzrVyfBfs57ooJ58zjRGztu8RTjbSEncwOGU1bY0ZpS9XJn/wpH6EhhlQNZMnzwhu1hLcbq6tl+lMYLAGBPGUxw3wrKyOfFOaOOlpNocAXgex2hwuNym/RaIT+kRSbfJSBszt1oolBPKLBuD80aywCEibdpkwwoz2XFZK49v65aoZS51EdfpR7myEoQh6l6+89vd9X8U46/AwCZyFyPzxLfovB8niXb6sexnWT95Xuq5Q55f/86x+PH9/9tsCYDwDfoGTa6mLcevdEAKaq2VGP/v002rI9xptkhOJOD6rQEyIrQI0QSh/ifRy+PWOxNfVUOZW0hi6hsgwO6aCkLs7fm2IP0g3gf3o4F11oZzVxkxhqIvLGvjx9t1RymiG02AaT3G6iMDCUkBUTOurG+Zgm8pwRZvpjqDNSNkYAa15U3eaAYPQNA7ahIY7Dayz4Vj+mjozz2sXupQluopw+P1g1zK0unoZ+FCbXoVAmKCECfzAMa2I+O3mwOwmLBzf/fDDcBSN/8P+fnWtwN27MG69D/EiNmOprajoVCd5ImK4RQc9aikaNTgoxktbFXEHZ9KMTCEd/1mbslzgUeDLrJsWahN6SB6YEr7BZPJAM12YI+8JcyazNt2MUJIPPPXexL0cEQoDz7hu9IgHFgcLQBuoIwHQOAyM+aZiMaHTEnLFbqGxR66Auk2sreQhUGT7ztrHKc8ILaeDJQiG2moz+DHCz7VuNAsMEiLyGt07jKb94FQdwWfq6fR/9fv/7CvAOatGgVAlKj6mUd//et6Os7Mqkud5WIgvApBPfit1nnkOMW4hdfJVzj4gtbSkb73Ol6NPiHh9A7m1AHkYzUJgIpQQo8+2GiXUfnvbO7DdpOJG0WgIA+HL7E4aQRgHIhnrWHWocoKYNFT5EWEGhCtCfJ5G039HgDw+xVSOf1d9jXlX6wrHxEYwMtQhb5aRSkxF09kOp4IbKYgWsPqD19eBq8z+fIdRNcZFtDv4TedTHwIFbDS1Bq1gRQgErCa1LxI+oZnbMIAI9NrCTDE1YbRo9BaBkcQlmGai4cM0F9eBN+Z1TyTvaWld9RBO8qTxdSNxHca+Tel002DcGu6H4JKnIZKlbZMOIsHM/H5vQlbrhxIwSwrRFrXNaPAozcgExirrKkKMoy8p4IahRdN9RzhouhaIvrPwnsn+wSxcgSG/2k+djKHe2dkazqPtLQdUPQbJjwZn3lv5Et7RAYEqzxFO1pDDu9qp/vnW8DwWnmmOGCqlFOzhqoIJ02I29NvT9sQ8mh5UEKwEXQegMHkLcoIHTeRftS+eKdM5+aUqhafqdSAQoq3lp30Msyy85b+gLgSW/0rXBQCI70PhAPKhuw9BnL/qrDQfP6sn/cyBGSGkgg+5xtAacfxVCxIUAlVAiSqkMb/8/PPh01evIkV7t+9qWF0WaQASGly+e0xjBsIqJzmW+RIA6r5IKUgEDalfjJrfoKruMaiJ6HZ7Zx5BEinNzzJ5AcYu8l7XDuInwHR4zyC+MApTvTV9E7EGgeDy3fJNKpj0Go5vlUZO3upi/yJATZGwye/mibQPwyX/haCKOTwTbY9kRYNPTnvooF3U10Jc88ljPebkuv1xmc0hLovGSW5jKZmvLJiXmzZJmYQE7UXTW+CbBurIdw8V1F/NzHWvO0zXGh8S/mrCQurgQPDqqj4Yo4RyGkGdpHfSlJhPmjqKFhoOZclJu3mGsEXVBcpcl/ZMOoxQZmh+CRRMZ2BHjxzTP2/gxWK18dhN5luLmteqFsmjzWGwEnDdvlUq2ghsBGNba+igR9spy+ok4Aej74uu62xLrnCQP/4yONxjuFFZYTw8RCgxkZXBnfHb+ZoSOFlNo+gjIKSs90Iq+Ti9IOA7VlAWVZtVPoLTETAJ+4PkE8Iss7fusUM/d0j58VHf5vWHAj/kOZ7FrPmTlCarDyZlqzSiJka6U/spkteKfNNl/ggsrISQrMavgUnb0dzj22m8Wh0/WdZwQHkGSX41IOEEATReMW9+R3/a+7yq59eXPTRO4/HX1FNXAsHWVkPq4v+CubWkkU6z+ZVPCZzUH4wY3WAIwSQ7wkd2Rtv2NEGjqJCvQfePdirwm/KvLqLpvQ8TIb4SeoHRonC23dzZXhmWzQtO3fc21ocdCwfEpBZNs6riQsrlBVbgLAy9vrJUOGN2MytNIDcYQ4URqfrDId+xiXx6OD45q/rRWLpbRIG1FfMdvVT7BlYMqhVLE4EzeOizhfRMrAZdLuYuW6oH/PI1gMGkDRpSn7c8+OosqZqllW+Z+/IQCGRNMe+1MyujNVf3GuzGhXKcRuCgFYypHTAFfB4fn5ZAUldll2AvuudW9TrJ1ecdfBAG2tQADe1KE6JJWrVWMMk7VdceDvVGEp4VXaOj/OEVAr7pYzp47a4tVguaLHrM2b6rGWwCp+ijeW9MU8+Sh0LAXqPmAF5sNEnoRWXOnk4BI5CeS1/fePBXHJ53ul88x3d1prT2W+tx5e2kvVrK3URqGobGDLspH8VzZg4Ny9+gCTzDHDSuXDWWfDRyMVHSg7J9jcBRdWl4pB+ZtjRJ6si0rqjdJI3vMCgwMa/vBa7ysuBuItUX11rHZPbVWAM1EijvEWLDmTLyLX+U+5CkFUQiDG/i68KxUUnSIYRi6Dy7TvlMURYCwkesD3n/mO+njZHOubEW6wMRh/CZdZvL88PO2mItHM50tryOrYZChik7hBhthAj4jgJx4Cu/i3CKBi4NkXKZ266rP5V5nzo59GOrKzO8VoRI2e+ZM0JS0Et6gUNaRWCH6TmXujN/WSGELE2pbYza0ge9s7U5YdhmKH3XKzGTMS0hgWF9x/82SYBGRQsYpGg1bUgASAf3GOBjl8wl5iyG9E3wi3bQuLoXLYV4dOtJ54CjYu4wKz8VXQbA+hYOZIpuQikFR+MITdTn+a5H55USelJ/ygSNNV+VL5wy3FNSXAbZNo/kAA9YlYFuvMwx/V///u/Gp00GKh6zjA9pSB0GKgc5ZzGtPOqv8vqFQyF9QJKj1XsT9eTRR4dcmhXGU8VIGdE8UiVEnF8Ai7jxV0h6Pq0B/iSW7/wRAN3Xxn/iK+r6+YB4eRR8Wm1ygs1RpeceAdar3NNoiMeKhIRGdfinIetlND+pKW950gbvTbQQ6SafMgx2EcIyKmg6jcYXB18KLcsybVbfVvvm8ON9RRDzUJ4lILzBHGDHqPcG1yO4PLOk6frE+rAIWxiamc6cXtYdFDislLi3Fk02H8sjMIZffgEXunhoKAMp+K92NlBHBImxEbzZTVoKscAphimJLyE8Ji9EXcIt7QV2gpIWbAbt6LYdDPnonrmWny4oDIJ4la+nQBeN1UIwkIEf5UvT4imHhVX4Cp2UGxLI1KeYKu3BGnBNsIOr1pvKffUzgzt/I02UIE25BIi6EJaED8Ejz89fvRhevtyuwSMGxqBBeCDk1RtZY1LflgJIeY1WjaupKZHgJXRMg6IJWhrTFpPiJyQov8pjglOCNRmN1pz6qKs8Rx5U7pQ9am5vLlKxs5hjZ7H59X1ZrPkyDWvDo+OYcWdhmtMg11jb63za6r2O5FSE8NHRlfBifPDhmYoRDg0EpmtA2hehzdrf0Ji3dzRqJHv8sd2dzQpQiAJb/7iqW3kVeRfiU0BpEQ2nLNfyL+ZS+XylQfNhwdS+BiQHxX7lahxvbviRVsrwjbrKy7eIZz6NzecUWbbWkjWXmKCYRR6WCBWoqrG9gasinPIwjhnTxV9GZDUzJ1qaEFNUafIILvD6Y+IJPhl4bxOtmZRpT57w52D20draSszcx2FvW7fU9PDZy7XhRzlfbS0Oz9fnhlfbS8Pu8vSwuzKXc354HibeyfVSFEB4OXAbxMDvTVsgkggrWDLBAgEjNO8xEeYr4soZcix8hm0KT2Cqbq5o2lq4LQxAe8Jj9ZMmrXv92wSIE271dZNiiPvsrP1oTaBdyzwN48E7ondYWhah1yLkwZH02pmQG/s4XZe5nudwDnZHdX8lL4LOieZKOKY8zKxqpbEn6R2ENg3L2mu3jf+vL5h2FiEWPW6TlhCAn451NF2jBeUoA65KuyooR9fRN62gaHzXJQySvj6a5FPWWX5LYyef6X/xT/7TrwCif9KMFYBgnjIJJpoWQVWHfT7yTkbMwpERnUoCSBVY932QcIiyv+m08pk8qQqLCF7HTDRUDnLblzQ21DWp2L6JYX7ffmdjLnAx65hxop0ttUUjNaycK2iSo6RyHtgyo2DLUd0/OT8gJmfSQJhrxJbqhzAw/gciIAwQUG2FGCI0h5ZfiWmZpZurSzUj5sA+r2FGE901ZC2iHrpbC3wYezva5vr6clgJgVsUzqZbyyEcc1Ax0mrK2WHqBZbaQDllrufd862V4D8m8cpiNMHusBBz2GZeFEZYPNp3JZQXHz+CR/RcxYsICY7Ashi4CQTam5ZhihMo2kjbGStbJm7KhxC+Lea0jAvkIe62LMI48wuFB+8rrpDnhGBrOy5DE6zhkAgW4TGJaU5p4VF70YbSGkKI8JUp2DS6OhiT1qG9jdZC3KNfK4F6cUfApm8/YFZfMRpSjjgEBu9uvY4YE8LlwwaWooc8G60vVsPL3e0oiV6Abm11QysU3nxHcGOuZj54y0/wIT+/aG/0gR2jclI2Wqp4jjPv5KeOlcckLXOsFEu+8b/f4qsc8uS+Tf/Tf/R3v4JcGo1vw7xM6cUUo+OsUavA1KukAm0YgqhpS+SJTCtoBI8BCAKqxC4QOuRRPkbOqkhVXv8lYdFmMe1DqunWcYo+np1eDKenZzXQgJnzs59/V8xqAIIiSParwC445d6ULQJIufSGZ3CAEcHQAiAEEaBKQuc9JEnD58OsSVKEkJZMekxMK0+VGSoKuxgmRRAb/MgQE2bDjDb5Ojq/GI5s4grPQfJSCG3HQuhRbS8N1Ahz24H+4OJ8eLG+PKwYqhfYFwPTaph3LVbEWvJ8vrpajG79YZhlbXyxtRThY+G7xWF9Y2UwJ3UrGj6kP9ycnQxPc7agnC/z9tnCciwmgZen4TzwHAdfC4GZlgtvjZgpHFQMIKcF8ZhwTEttY81lgTW+K0IUaMOolo0Nb5cQ8BwR+x7OCdEybVNOmfw5DJgYXRj4JxSq7bVhGgJjapuaGRQB076oQKI8acDOB+NqF4yIBgTVXDPjqxsrVUJt1RefdHpFxjZHWxoXjNV3LnHhAEmGVlJPjM+6+fT51rC3szVsrK/VRuS1CHretdsoHtA+LaaTP8rCUMXIyUuPCwGkiGKF/IIXnly//65gIAgKioITTP5aMLQWH5m7XJHk30yNoIvZBHBIuTRGUYoSIVUErDPVaSxIdHV1nmsSuCutUABXFQrnqZR732H8fMtcwKC0dfnPMX91m8zOmtMqaDFTEUULhC8uRONEI1mA2hxHDbiQ58srVpJPwz7QfDGTQwmBMjDelJZt5uzynYYsVjQ4wqHqkesWGs2M1YhBjNRghwP1foYqkxcJWmNygxPbRm7YQiTuASbEUOvLc8NemMki5xjL6CD9wqBIdWIqxt+NVlhXh+RNKM3ERLYe1VWIYH15KQxruhhJHFM4jHMZHB3dXA53abiVaCDe3P114AjcC8P9sLcZLRyf1XdbazvD+vpOzOXVMFdwFwZZWNusXdnthBf1M8yEsedEaKP15p49DIvP7qPlY54uxMcM40XnBh+MXsQVxkXcaSNmbq3llGysrEELtjAzZLKDV/qu4QxT6n/GPAZqHJ3GzQrz6DYyogruz84uehfA4FTACDMTftapxhiGIdbwT9dJT/vZ/hT+lcXC0l6I2JKnFZBM27UWexhM3rgKHRQ9ozV0V2RJy/dkD9/2GeoI8SujFQi6yKepT2nNXCsTU6EZ6SWomEsuHfAy5leKKoduO/Tl1q+8KEP0htcwY7mBGLhyCn9IN2FyjOm71tT9nhndfNPCYvp3/9HfrwkDiF0FAF5mgwufVGVaKowIc02qzKUhzVX0XHq/fDEHLSdNSY0A0HmkMUKUAK6d5yaVaX+hK0OKYF6NyoclXStqvGyB6vkyfUhS0l/D6ENdS+MfnhzHF1usYXXmhIpO1+CH5FdSP9cIq4+GF2wEAH+6AlhgDQGGbgJznuHkvBeSV6PaUS4SdymwmRS/HTN1OQ7i2tp8fDYMOwz7ZyGotPmcekzHNI5qtEjYejTfWeCW6fr80nAQorT42e7y6vBgb1g4Sd4WDIc1gzxIZ6tEIJjNEO7nOyvDu7PLYdt47PiD2/l2ZXWzNNTy0kaYLQ07szI8pbzp24vCz1xM9o3VXnTO7JXp5G7Vh7vg5y74Jq4uLICVShOUw+NtTN+O2EaE510PrNfuxn/XYne5r4EYga/6rXNfz5x5Jj2SgFs0JYAFf5iekIV/NKEbhDmqrbVFM2ozje9F2O0aCAGI2UQIwl/bS+8Q3yCQ0RcBT2sz55nHNVouz1szRbCn/HJ9khfY/JZLNHmPBl2Zi/zFl58X/e5sbyUfFkXap5JF2IfuMQ8YaWB1czD5lWU+cgefJjyTfJRL6QlMSk5YEXLwShA44cp3+aLyqwnvyV87KhcNB8ph+nf+i7/zFf+mGFEGJBcGUkCuW2p8kEaRRXKrzA1652cAGXLyNFeTQ9pi2jR4CLIaIia0DuvuLNewLYnkq9zKPgdkjo3iWUudlJwKLKTB5sK8hhwioouri+rns7jZWvzA88vrSVdA0icfGahXIzkwBm4EAAmel+bNX40kCpF4VSOKQoykPqTNxgTHyHwcQmkjputmTrvRLURjzeR8Fia33MrV3fRwdhVmDfgxrkEdk7N9N1K8Bvrn3TdGWKXsF6sbw37qEKxXncENjwJQdRZOboa99flhfWV2+OHkIvlES+5+MjzXnbOymfziO8YkjToeZsK8C0vrERo3MVPDrCY7pLxnTxo/R+pm53aLskdWDPYKUvfFwDgX3DABL256kv21rQKTN5NYHn4Js1qrK/jQ76sNa6BDGMQgE4y2El9/e2Mt+cZiCqOtMfWThsVknm771bRS/E8zpoJjDEXjjP2axfABt4RtzuqTzb02xOTaBVOWWV5t2OZ0qlNCHb4JGG2MBlrrJl3yxqj9uNu+rMDQR0WT815Jv/IrX9S9qDYaT9KCqy6SgmVS8LgrfpiYrggo907vRr6SspQVoZXX4G/rNTQygcO3Ras+Z/1UOf293FoDhy5/9x/9va80GlsecxSDJN9GRHdcv+/bKuSJEvYzogfwnilAoQoxzk4ApSJrYUqmMLOaJmWnewe7fOMaDwoZdXSFCIxm9sCQ65I8iCt506bvYm4dHxzXmFpDD29iFgWgKAmS/7rMKWV3BFRFA3dgU0cwtlUxYeIQQ41tzd+IfGUqC6HQ8AIrBMSz1AsRPt/ejBkfK4PPGU07jQsD8eLSShgYfBdlFpoVc3PPX0zZIcaFhZjIYYqdzdXhbcy7m+vbaMvl4bvLkxokYZjjWbTEZUz6s5TntGbyU8q9m4ofH1VeJvrS7PDF3/jbMdVDvEmLUWdT34fFCITAsbG9PTyF4O7j097Obg4n5/a3nR3oOz6g7Se5QYi/BHQYxFIyFr8r6ZQ8Sgvlcit++mZcEqfJEkPK0R9ajFe4i5uAab0LDg2AsZ2LhcnRAuFnSVLuhTgJRmCq8odpZ7g29U7/twkCRkX1aCfpTFywjtZlGDCmd2BnLXE/xoEcBr5oU0EojO6gbNRNv7NjVDjalwXBZZKfsr0ruk261dQRHIJmn3zyooReT8APHQUOAr4WV5ik70AlW4U113OHg4Jqb+/LdfNd6HsUPvx59O3ZODoKHtsimAie1E1ZpBaYtVEJm/y5nqrlPPMBjVdMCaB8XJon10ovKZQC2lnPmYxVtP+98WwAAHvmSURBVAY+RCqP/aYl5sJg/KGHRyF2p8ncHdjAwMyhNgeaiTFkM22/T01z30CqeA8q0N8nKBGmC21gnMUgU3qVBPBq7i2Lwg8TrMFHTynbvFcaAEJEPcPHVVdwVLn5FpIQgc7wh/iBxbQzuhZoimjJ4CfuasxiS4POlxlnXxp4eoTUvHuamhvucr2+tTysb1gFP5ZAiOgqgo1ZfBziem2JmuACXjaYdSn/MgKNpqTlmE43+eZdtPB5NJ1yTM07vYxmvHoKgd4Oy2Hel3s7w87G1jAVjTpNUCzuDtPLO8NT7q/i62O2y8f54bvD2+Hrb08CY5hha3eYi/97FY98//xmmApOl9esskjrXkejLA+7G/PD8uzDMD91X33OW0mDmI7jn55dnA0npyeFc0JKVw9cw8+tYGLO6zCXazTC7Wkr6nEyiKO3LS33JsyHaFkH6k1zcztsxbkcvCykTf0uRWAahWWDaBMBnLp7CBnDS03584u+DMkUrORHM91ZNaWhtG/oiKKpA10ENpRazIemc6JnNGBIIvNWkAxD8mvDU/nMF8346sQkH+vXMZr2SUfmHI/WnCBoBpRHUFr5yrWsiqTxTcUIkoardBPeurkJPvNL4BNEYKSIpn/vH/+nX2Fahwr2HrBdCIDqJDECOQahVc2D9IUMqgsgvypPCl3dXAyXl2mYVMoYVz5GLetyepaGN5azG9FO3tYhtm1D92eGKC/saXPdvxf5jf/2GO1ye6Uhgpg0hl3gSCjbTJ6cnFWDEBxb66s1rpaMI2VFTstPDTIsVN5StbWDOsGfOnSQgb/dlsJ7/zsNVTNmkkqf7O7G6vAypwjvXYhOAG0+QmJ6LmfgWYjPOjMf8zk+2HW+v4sWfSIANMJDBJd6X91UACvgpZ73w0Fg3A4RpqmTJtCEwS23CgcBptqj6hP4d9aXhk/WZofnK1PDp3/9Pxy2n39S9SPgiLyHBwvVXQ8/HB0N908zww/vDofv9q+H716/ruVLV2Ounl4+Dt//cDzsx0rhvtrB/TBmsgkRn+5thfGuapXHo8sInMB+EoGhXU7OTXSn6a3KeJc0pgk+1N6/LArL8zxE4NWmWjmvUvez1IHmLnM3+GX+MlcxA61Y7TK7mHa9LwHMpK0Ib+rrnWsCG0NiGFpX+9g65TZmu3HVnrFmOGYEnPbU44BBe0WMCMH45G2GNmPU+OQwfTFs8At/+a/oA8OwyqSjacUAaN91y/TEMsGYLAVBM986MBxiaubtgNF44Bes1TTX9BZQUw8xFvEOmrZNeDQnTd5q+oKj4POXF7S9+svg2Z//t//3pxrYoPAcEpTUiQTE5aQj5sTpCsCkvTObIIAJxvrPRPeE4s02SQOHOJkqpGDnZ6mPIDVAVPAhZTGRKpCRtCQfP3R/fz8mUHeY+xOaN2CdRIMik7SfxX98Sln/9i9+lvdPFUWkBXYjjfdPDkrDGtJ3fHwSZBms30ErjVecmLIIgEaEfkoaoc3+yLxqAKwCPbpWDGhYj8Z9ub0+7K0YO0vTmlEzHdMpPv1yGBuOphbzG1862iMu7bD/3f7w7of94TQ+vODSbTTgT77fH351e3V4vrkwHBzcDF9H8/7NvefD49TdcBGmPotwOrlOWzx7iH8uANN13lmdHl5tzg7bszGnY5Z/8rf+N8P68y+Cv1gDd5fDQwhrNmkvghe71L1MGT/55nXq/jj84R//m+Hd28Phf/G//I1ha/ez4edffzf85M//aPh88ylm7PRwfBMTOb7ns+D49OhqODw6G37+9njY2lwa3rx9O+xubdXk8O3d3cHSp5hU2/Nh08TF3CbJ2xHfPrq6X9APIheA0+8r/mEmEtrBvNVPHu20tBxBcnZaq16gHcywurZegh4T0eTaBP3NRxhSDrSfqYB0md0Fvv3+++qnZ6KzSrCGzdYwLRoMyVbbI340VGfgQ8voCpK5QphOrEKQjs76n//t3xi2YzX92l//1eHlc0uqRvCzHlJ+0X7KLHPYm8BVJu+Eh0r4h77QVH5Sf+Zvv6PVBbKY+vqb0ToFh+7AhD9s4wIe9448LXw3A0fg/OQP/h/5jXRJgfluqPVpU1jsi+pCgUCRx7NajZDDPlWhe3ugyhKgvuvgQEsvQ/+2d7ZKkrT53avd8UeKIVMTDQh5vYEy1c/0JhyC8PJ/SGwDO5J5zvtoZd0JJJRJzT/96TfDD28P0lAihTe1t87h4X7B+Bg4zNYp6Zi8dXXcFEFZjsXAhx6QjpgwMGkPniemUZCC0OYDj+ielR82FmaGl2sLwxe7G6lLvhnuo/li0i1vxCzFyGHx6ZX8wgFNAc3Rfnfnce/TOMHDfYj9//b//JPhk5WtENjc8JM3h8Px9fnwH+28GE6fCLfA+jQfX/d8+JVXC8N/8NnGcHMe3yxlr63PDWvzMcfybmn1i2Hnr/2vhqswxFRM66i0YWZtLc3V2gVBG4Osm2V3d2f48x//ePizf/2vhr/1G39zmFndLhPz5PjdcLH/s+R3mJqEYeNLXhvYcpS6x6z/kwiXtTkrehiUEp80/ulZ8G+p1/Pjg/KXI6FKoFJUi8szEZ5JHwE1l2dz8d1tpXIfDY4prWeFyzZXFmK+B9dJsxNBODu/PBwcHkabWXButmYXEaS0p64lQgJzdIAotJM2wajo4ihW1vPnz4e3b94Uk3326pO0/3HKiuJQXoicRdeDctIGocniWFyUC2RVDEh7pn38CmhK+yJWyRc/ehVXZ234m3/zfzI839tO+ok1WTzQ1oCjFVzTUsVg0HboAa0rajS9S4OnTh+/9w2+MONqHB9B04JNnTA6FULZ4JtWgMnzX/4ffjPmcQAJw4xasBgL4ybR9zGv+Apv37wtoLyzuvuXX34x/MoXpsy9HD55+bzOvd3tSKeNYSe/ELEcv6j29Ey5bSJ0pYDmviVSmxWuEVRp5BDjfEyj5TBbBXzCRPpyV5KfUUDOVzFf1mOu6i8eQnorC2ncOJ5BSUnAMixTsIaBAJYC4VAzKfKeFNYIgiHVP536Pgti7d26vmD8bny1NNB5tDkGNOJJkOnp9jgIjskaWB8wqUnpswtlRYRXQ9ArwV20b2DhaiyFMGMEDXP318NhCPvo8Gr41a3t4c3p0XA6xQQNs+TDveUQTCyb65jdv7YzO7yYibkYgl+cCiOQwM8WhvuFjWF2968NF8+WIqzOYrpbxzimaky+k/PTEnrcAv2V8/NL0UC9kuHq/G0YZBjOI/QQQdBZPujVYwRQhE24JEwW2FMeK2Y5guLNyXlwNzscxo2ZWV0rYW4hANo1SeKSxLXJhfE1BCWBOjz2VpPLKdv+vqYOrsQEt2bx3vb28GJns1aSLH/9/GJ4xw2KcA3gRXeYTQ+Dvngnon718kVpGYuZa0OMKJhGq/JBtS+By+JCc8zfUfgjPPmOjFXrXhMIExMWDeozLoYIjpnjaHE3TLuxuR65ND18+umrGi9Q5mzBidlMpOglc9B2aS/tnzRozBEyr/xLAebA6KwM9I+PxmesNoKpFV7TrAxLcycZpYWqwybFK+Cc/v1/+g9rNcYPkqMr6iPayNzFly+eD5999mlNCn7+Yq8CA/N8s1TKAAujqSCC/1JMGiIVgOoZDCktcBAIkG9Cr8KZwcXAAZQJDqk0lPG41xbHznva8ibX/FsBDD7s0f7J8O71wXAWoqLtv/n+h/KfDo/PapRUCi3NmeqV2cF00b+rTszYaqD8tZ/T/gSJBuFlAtn2MXBgbEw3Hy3zEIb74rMX7f9Fe84trAxLadjHGRFSAyPS+BE0xgQ/RuuLkFt6czom83wY7TrabHPvxfBsfW/40598N3y5thKz8mZ4c3Y1xEWtPt/VcNIcMzkN+2p9OkS+Ptwt7w1PSzvD/NrLYWHj5TCz/knM782KOi/HJ2UR2OUPXmkChKoNVpcsuP4Un/O0+i4xyOPl/nAX5kytckbjXZ3Fz44pOB+mTZkWJz86Oxq+3T8eTqOtvjsRALsbDq9Oh/1YWVPP7tMWERQRUPBFyN1Fk97etQVGUy4ur4TptOVCaOI+wiTtkLT6co2S2rK/EAka/H8Zk3N+cSlW12P1CBA2GK+6muKL8s9pJP4pLcWSs4QMk7JjKG0qW4MZcV/lFwNoN9qY4MJcmBRDKFPbK126UXmMWlMZfGD8tBKL4lWYVd/sJ69eFP2gmiSKKY3R299kgRbv5Dn6pVXbpKURRYEpBXmjt1ZO3EJ1qqGxUubbMtdTcMddGkYCqWg03zjgLa/q2fTv/eO//xWJ5kED3wAU9DlUpruDmLT6ONNYEcu6VM4ny3JUGDwZSFtaOwXIQqQRIzIp0prVuHaak5dZO8wc76zmdxaz7t3B0XByel6Bkrf7B8OROZBBPpOPpMfgtmJcjdny8tPnw6vPXpb0eghxzIdoF8MoGGZ9fbVghBymVVyRNLSGg06N1SaL9/yx2h8nzyJqhpvAKeIL6TT8et4v5f12GOvTnY1hY9lA9/WY4/G/Vpdjxql38o12VY+5aFjRaxLRbux3YejpxbVhZW0r5tbO8N/+wb+qYY1GA/34dXzcMP/szNOwfx3cpH2ekv6vb84MM4shyp0fDXObnw+PS1vDbbT89Gx87EDKGnh8EF1GzMtVn4Pjo8Acl2ZCkFb7OIo2TwsOZ8dvh/vr02j14HvKbn5p65vT4eL8rJZj1a3EF/7z+OEHp2HY+LWxtCMQWCfG/cYCSh2PzyM8CVGBxbSj6PjFBUbhN+oVmI51YjSTgTPBdNrLqDffXqRs47+5Lpbp0XUlAHYfjW19J8vHbK6vo8rQ2WzopIclikibOKC9MKAVNowPQG8GbRiAs729VbSLvLUzuqL5aTnfEdyYHm6k8y3mL3pA5ggEFlMe5rCon0AUWvkslqQuK9+0G5nvQxtwTAsW8+VXOe6dTF1l567u8U2yrTS+o6EJDt+Vbxw8N88AgAxtfhrzHWNKXsp3+l/+9m9+VVooGatAaZ4gzrX+SRqIxGui74icgj0v3yFHmQn58w0AMKqIMGIm/SFQd4YoJvNUgOPN23c11Q7jG1sswky6WH3xk5d7kXQvYno/H168iHZ/vj3sPd8aNkLg66tLtXzLfDij/ISUa0Hzb77/vszLpVBbSaXUQee/daBEmzW4ulleBUOpA4BZAzUHNKeuFyZWMqjBG7ozjI5ZDCO+3KRFFmIS3gyHZ3xoUfP4X2VqBXepM7OYn6bbQEBsajb4CIy1K1+EyFQk83/3B38YeOIzp/gfHxwMn8X0mku5353GNw9OaaxP90IkMTunV9bjj9sjaDKSjFBkvWhQRBzcqs/jE2skFkA0grLf7u/H8jge3sSlyUfRtPvDN/unw7/6y8PBDvRbS9PD1cn+8JNvjoc/+rOvh+/fHgwHB/k+8L/aCwOEy360kbJjaTxfnhp+ZXet6mPAxOfbq+Xj76YdzCAyaWJnPZZH/HQ0ZIXGu5R5GaIUXbY3sOVuBCqvL/VfX5YbsR2texCGtyiAoZuIswgo31rlgUba3tmpARmWzj0/szaVkWIUiEDQdAT6RQUwWWrv3h0MS3EF0ERrJRZIuz2t7VoZYVrMoQuqXLGUhxGKCcOMaBzd0Op2gtCHTDAwu/VCKN8oPekwbDFV6L/4JnkoCy9wu8paxTuBRbkYTxV9M8KDXyieouU8k07eI6ze48fcqn7ehC7+xT/5zZjHfVMMGgBkLCECro9yMsEMrfPSPEear7RcvknSQlJX3nAxEpq5EYkcZB+fnA6HR8fRpAdlxpCUX37xxbCbRiHRbHhkcWga0ugjk4F9S1si+uoPqwrlrErzt2k4KweuDP/m3/zx8Or5i+qaMSpI5z4tH7lWXQQqtxRJ7gAfs7hMrDBnR/C6/hBtraZaxibMX10UITZ141+/PTisXQfsnK4v9vIuMEzHXAyj+Ma43oip/CW3aECapoIouZ1JHtdhmL/42euaqbQRX/3t9cUwi0F21oY3wcu7mKML8d2XYybPRTsvbseSiGltGht/u60YgpQ2E6zJ+UxpTxUPqI73lGO1xc3NzRqJZCWH/QjIr384jha9GT7ZDZ6XHoazo/1ovIvhbZ5dBQbk+uX20vBpTpMADGXkty1NPyafleEkpjxXwbxdZvVVzHsjs6C3puOFka2rvGgLzc3F6iLT97omsj07VxFiwlNZZ7cWpVsYzk6Py28sJRDYjwJrEJ+Ty5G20oapb61bHALWzUNDqbsdANCDyK/VI/WbokumsO1a9Bwwa2tIbg5WFSYu8zL4RNOYuxguefONdSE5BPLG4BSafBVti24QikkKmF3+5V8G3vf9vCm7NGTu++hrz/RiYNRxaKU6e65eYAul1nuHOiuOeS/fJKt2pYEx8vT/6Xfbp20H/SEM1au8C5NbtBqwKuRQEGmBiXxcjnExUUsP70mM7p81ob6XgrFcp8DRy/jDNKnxnIY2Ut78smLOEEKNQ06+4FAmiQXw0ow5BY/gw9krGhjVQ4BcREsYrZQMK+p8FWnZi4CrAz8a8mrbijASnzXZFfLUVT3ALWL+EGHgjza0EoWVD6dm7RZ3M/wQzWE+bPUz5ptYi7UdxfK8yLj+Q9H2+LQpw6CLQJ86RdKnMQz/0y3y7fdvcr4t4nsMAZyK9i4Pww+nMTeTx/M1kjnm6sXjsLK6lZZbLGLgE6YSPVk9dbHca0BNvjFRz613PFcamAlKkwjmPUUD20jK6KTttfnhR8/Xhk+3IohjGocnYy1EW8UiWl1aHnbMtZ17GF5uLJSZfpy6XN/HkggxESY2hoYvG2qZdlibbcXQErBUL4MB0prt7wW3NKQNvwhwa2thLqtUzIe5jVj78sV2mazrESw1eirfcL16ra6UmgYSk0Bv6JNPWIySUuB6JYxljDE8Wo7I79n5eRi1u4YwZRF80mMG7cLfr+4XhJ9fGtNva0eWZUeatyNwfvTZZ+Ubn52fDj/6/LOJ/9rqrrQyOpx8S0M6SojkGYsRnOAuxs1PBT5zUUqi0qbM3JdwSH4ViMrzXOZ5f0/ItJmtDmkUF/lv+p/Fp5UId/M52d+AxyS+xMyYEJcz3yAAocuE6i+pkpIgwgyRvCgASEejV2xjqCIA9Cs/GdOE/GKNoVL8B8zjkKVnZedX9u0/KMcaQ+BSrgYFl66c77//ttIjYItpC0SYccOv5OMIhpDQSij/oMqQfyOytHjwImJcyI5vvDr3bHgek9D0QcEYne2/9un2sBktaUDF8lJ8sDDGs4cwczK85d/GrgXz3c1lcBIhl9N43sv4drSxhbe//eGwBulja8xvk+qbMILlY77YnA0DLYdxwlUzS/GVCQgaoYe/wTHro6ZNhsDnIhQEcGojrAjA21vzRq2+aP3hk7SH6KqhjzPDykKEEYcieMTszP9Frkbqu7G8UBHzkPRwHG68D55vrlNu3p1f39cwS4HJ6IaiE218nfrSPOHv2qiMoILDUFEJ1CQqPx+TGd5omp+1hW+iCbfXYqncopvAkhNTmKNL6PApESwYtT3GMAFkZEx0RBgbIokOWG81WCInCw3Nhb2CgwiuQNwaLI2SQ9ugUbSmnQkZ13xLhCXtWhifebwXJfPi+U5FvpEE/BPa0rPWmhC1YjMwWF3Ll9Xmve88hK9iqeSB5vGQQz3BLB2tj/d80Dwpz/62BFASFYP/i9/+BxWIKo4GgEJyaB4+KxO45ibm9KFDmnKac0Coo99UcUEek5AWa19CQU51DFqKSdpOb0lDZWAaXxtk7remtwE6OfOPaxxvfu3nagjhcczUo5PzClwJwOjXPTw8ib95NRyLliYPo4vsmC7Q0ruRRzMjpuRK4ICRkGqfNxo35Rn2GDArDb9qeX5x+PbtyXBy9zR8ubc6LM4shKhCUNZ7iia9jYkMdkuVhleqY1/Q5TqEzgQsicrcSX3le3sV8zkMyxd+imlLAxuffBPLY2PByooEXkzrWYEnZppobRoqmp92fRaiCXeU5IbT2wi/jdW52hE9YKXc8+HUxmERtGcnZ+HZMF2Y5Crl3kc7YsD8lNCMjixr4vHZbDQ4gg0Oo+HvAtN8mPbq6jE+ay9ps5L6sW7WF+x1szrsbJrZFE25OBfNtFL92YivCDIER4MTjgQlxq5oc9qB1VM7AaZdaWHMZxIB/1T3S80UciatxQMIKwSHXu4CH6JH2GIkaA39sKAMrkAjqBzOLSivbCa7b4sWk7/vkbG2aBpp7ViR6uSFxs1RnoulMMXkT7vYg9i2qUXzEa75bMIr7ZO2UooPGvgoP/daGz5H4VAUhc7zjGWJQfEcIawd4cq3pWWTvpSUb4p/cpH7yiv5Tv/+7/zDr0YuxtGqgghtSXAZDaNSKqMAQEtXGeZfmQHJsYFu86byyglRCmPve9cVEGE00drsEEwLe/yZRqpgBcbU1XMezabbwD0GIDVJbZFJXR63key+p7kXFmeGT17sDJtba8PZ8VnyijkWZvRO+Ux+Eo1ZP/bLFXIKLST4TQkfvmIyLYSuzD4Ne9Zhmp4bjsL4xjV/EV/NIm5WmxBUmiKvgtQUVn2lZ9Hyp2fgV9f4SIGrJOsjExLTPAzv3h4NP/riRxE8orfWPGYKGv0zM3y+txJtFnwH3qlo2ekwx0Ik/rPpltgnx+clXCwYx+/UXmfH8d9ixGKwOesZpdzD/eMaaVaMkDIfb5ia0faxOFggNzdp25i8l1cxXfPd2zMLoV9XF9pJ4D/0bcq5ju95l7YJaVf7hBSG4yvR4CZKY7XtJAiHKyv8QXW2ooV5zh0TgGPLxIacihFFfzG4ATR5XUFIwaSDw6OkQeARTqE7mo9PzsxGO61tn2IWBy+ptxFWoveeuQ4wzax5r57WvjKZ37PScskDEtEeKwANlObM92IGHTBqJvzR3vrw/OXLckuqfR6mh8WVmN3Spc7GNftuVEgjP7jHC6PPij6btzq9MpUNpuapDjZ5J4NSUrl8rwiT3jfvj8ozfPr7v/OffaUQH3uAmwuY/PX+OQ0UCeFIkqp8a8omcIdv8iD/hDRyn+80AMCA5B7j8F34FoGgzJuzM+vwWk2++2Zr1BP/jyYKsSijJ8cvVjfJWsyqrc21MOjqsB6m2txcGbbig4Ab0c0xh0OsJ8enRSS6dLosXQjdsOAijBANQQM2SFMHDSgAQSvLz9jTsVFWDKRIfrpORBb5abo2ZmPW0eaX8XsNWdTwZqoYVECjMM8tJP708GzYf3MwvHq5V8MB9S0baqhvOxZ3TPHFYrbCK8KeW5oIkeAQAwA4/0j9ZFZD7i71bYYh3x2cD598arjddWnalcW1YW1lZni+szish6Eie8qkrpFmgfPwKNaKUUxh1oNoZCPLRI1tIn0VDqPBj0+vi4FNeL9IPcUCDooRYg6nvtr24sZkhtZoZ2k/gy50lZnwz/fHfIJktB6fVBRcOWYVEQRMXvvMYhC0pG+0LL9UEb0wUzGlARUCU2IVRVNpM/kLCol/6DIimDAtrSVwOtJsqK/aW1sQQdUF2fqi2pZgFzAsnzb1+8QY87XQ2O5W2pHrlHwER4O7gJC2nyivfMcSQD2VmZLSLi4xb9NUM6u2q29cJ0HlKcWE2Ue+qWzyXzFrzqLNeti+fG6G6d/7J7/5FYlTTFbpaT3+ZrReNFVxe553xq1R5VGVxYT5haRmUspbhRQxKRiikh6iSF+ak0l7jGCDZOCUFMxV75I2X0xovSMBBkMQq58rOKghghopFeZXncUUPju3LrDFqRHTBL4w5fGZyfJ2YOttFgkLSFYPiFRnZvnIrCXtAt9sGqR2co9ENdpofU3UuQmWNtSf+eb0MsJhqGVjmDy6N65iDfAVF+IXGsVlCljNGkrVQp4F1300l4XcLq36kbQCOCdnPQNmNWaxLhZm/MLCSk1R4xsikiUTEUKElj+RG5OaZphnoj+L9RBCv402fYjfbCbTn/zbr4eTk5taPnX62W35vN++ORm+fn0S+MOAaYPTCCSR3LWYv9vxZ1di+ooY3z3eDC+2N2pFC225tZr2WI1NnAospk5399dxGQSrlM29EHwSWBFfiFbPN7U8DdwGpShixK8Icg3oj7msza1iwTwu9yL1waxoyS8GghffYew6EEv+o80RMPrjvqHQjTCZHQRYNmC6FPzKexqtGCT5yDvqrOhbPrIjoMs0LuEYiyi4/HRrI7BGEcw9C/3NRklsholXyyQ/jmXz+GRJHStO9oSZ5g1M3LSMtNpE7qNgyENmsYdl9eUefygbfJ4VDaYuzWctGOrZ+2tWcPDzu7/1d8O0XSmFO8ZfPkp/5K4/VCoktbnMjm/N/OF9Zz76s8zZq0jzo6OTNJjoKjOxmca0K5OMNZw1bpejESqAAZYwiTSqUaFu17kxKKOi0yGQIpI8a8Q14799+y75rA5HxyfVBwyZpmsxl/uYaFtIysfddH0EVcOjOuWaCWwFROEiI3vkbS3x10fn0UK30SYhiDLBbofD+NZWGlyNNhUMggVWhMZSX+UbLGA1RgLjzeFBMY3+V0yLiASrTLygAR7CEEZU3YURR2FDA9TaQ2k0OKLlTTm8v7+qeb2Xlw9hzLfB9c3wbv8kRBgf/Iu94C1me0zgb74/iuY07jrQ5Z91tZ6S70bMvm3dMggjAusisCzFj47xP8yZKLFkhlHM7gjL+am5mOZh1Jh7Q/xg+9iIA4hDEFJMTzRA0DKRDaHUjaLtaslWblGu9f/zQYtBSyNGw0fItgVmIMZFBTHRUK8H1fNj0RxcYfAOHHJp2rw0Fxe9YnDukNgH7RogO03w3haVg0KZ/OZ5LeIeXCqDcN6L475soEfaz1I4LCQDOCyCQPkEbR1gDTwViJWP/9Ft0WlboZ6V1ZQ6SoOAfVP0l+fqglcKmJwEBvw1g4KRtiYGHQ27/Kf/6W/9na9oCAllNjLsiKD+mAnB5k+Gk4JrBcSkhYj2aSeIzDMEKzhgAPg40wdTWUFvMSbjerTo9pZd0Uwwbind3SJgj6QJfJhR3nxIfcJGRXnmntBQaWaiTnb5il5X0CzvmE2nJ8fDdRhcWgTOjClfJnWrho80r0atBvQ+TKz+AEpDLIUw1NWE9Ns0pCl5fO+LMCFzdWd1rQIzF/EN9dNup060XA0iuBZgCqGI4oaInkXj3sRsdC2Pd7EyjsOsp8ERpqbhq4ss4BT+UsewRrWTvkc+N1xr1IoxpB7yZ3UgiFQtGj4mZtrEWOyVhTDbbrT1XNft6VHk1xjpmOhyzvcCblbeECxLFcvoYCLPCsCk/OWknZqO75XnovxTceCN1nr1ImZo6kfbzs8jLm1gt/TgMzSgDUTgESsrx8G6gn/98oWXlG1MsYATjerkaxNM6Ej7gHsceQQ38tI0TGBt2P5qaytp0ACmR8OWljW9UTneYdjRDUrqOpnYvg2vBi95l+/QBIG9pK98bWN4Cp6shhJJHj8cg5r5tdYDL8ID8m4zuK3AKksZyVf9R5O3FI5655oAFmsBr3qSoNL6bVO6Gb6YM2ldy69h72P6d/7z/+SrPK2XY6FdICAmqVTOx4rNPwzjWafHSNGKQSDmqmVQI+WCgyI4fWFWtIPI9ZhrVp6Xdz5PVhDapoWMqrJe5DkJVmfuVUAZJCgJPUpaDajixgjTSATJysZGaSAbP8/PzIXAehA7qQ0xske0no11kEeZLPk10L8mcIeRzPoRsdRVYaaLqDHtC9ytWAbeM3FLkgbG9sfbP2Ii1oTwlEXa6Ks0a0U31PdvDsuXvI62c8wmH6OxdA8VcxNA0cJWQ6wAWb4xU0hziL6qLILUyJSTqOje7l403HTMRN1sM8PmxlptD3IWv/Qswmt3O0ImuJdXWjPmvW6e1CF5ngc2/a78TGaf1SaXREuNp56yX+1pXAP+KxxHG1/HBw/Orephp/SltHEFViJtjVRL06RdofdZ3JeLMs8XFrX9QpjpshiGlUWo20sWHTDxRcRpOycaZAHWiKa0CxrA0OX75h0Lh2YXOxgVh9lfOEtbdleTumrj0E/+MCZmQW+oGZDqq0cBI3FNCNXHmLGLKz1hYCHMupi2FL3nm8/NcFWaH8aAUYovuoVL9KTevdVH01cpwxIgRXIFT31f9MY6wW/N/N41L44Kxf+Vc7V3chim//k//vvvo8dOBdSRBAAZo3YFwORZB5cQDuK2uJrI6WWZJhBuzxYVNNmAb1ajgnJgQt+MUWdI7coEGBWqRP7VVcOUX98zt2jDsHCedCU0gPKYLaVxi3AiyQS0og0O3x3EL71I0sAKEYggBG/UFbjVtc0m1W0zvwSIUgo/kXjRloJOYFlPvTCPxqZt79PI+n81F8KpfJKn2U2ywaAmjx8HN/snZ8NBfGHdVSdnPfE/X0QgzERrzQ6bC2F2sId4aaprUfIQUk1TCzPzhxAszSdYRsAgshQxHB2eFdOcxAXhapD6l1dh2IuH4SBa/S6wwc9F/G7uilFiiyFG5v7+yeVwfHU7nAZfJuqbw7wRs5bOkSYYKY1uMIMgmy6jZ7OWgQk+g58WUs0oRXZ5RqNjhNFfNWE+mA8uUk7MYF1Advc3youWRbjoyeCUblNm6VLVWRQ4WbaFl4txtwICcjG+vkEwosWW0GXZXLNSopkNj2y61prRToGnGX/S1slP+xMANdov9Ub58EPoWC0TTvmctWxsylQeoYke5F3Mlb86knGyTF24ja2VleFZ8U795l2uweMrCgs8paic/TRn/s8PeIuuKt2Ed5J3rVyh8FHdN+GmxEoQwgxi86jeY7oqNCfG0zHNbDWCpfzSSM2SRmEkfWwqBBbIQXBloweYBrL+FbD+qszJ4brD3yrdlej3fU9TikqKJJbUTEYYkgZSSeY5zfH1118PS2nkcFLB6F1p1LSKXNvcDBOESFrSIu65lM3fbemsTM+rgVNOaVW/aVQNan9YFoA1kOAIQ/sVxDoPI+wfnRaznkegnVnxIZq/+ioDf5lC+TMdDdEYs4tJaBDdQ7qg/AqolfkYzcmKsY0lrcSnvw/+jo/Pw6TJ++q+BChcvHt3Fs3zEAGacsKCl9cRrjdhoHyDFTHcuzCrbT1J8KmUSXvV9p55RzDbD9heQ9rLqhzcgNvCC1qgAbsrxkR9wo+ZbcQUBiFkMVgJteBDGQJIlhkS6Ds5jZaNICDovYP30/Ozwm3hur6ZdI2k7cEgLfxrFes/6UqKWC3LhLluYf2z4MiyQEFd1YEQqDKCWzCWoiD30WDSaOdmYgxr8E2oMWXUmPGUyyxfXLTcq64n35pX3IE0MI6wCUiWkgnuuosHVeOn5gEVK8bLX9Esxs492lJnuGwtK02OPB8Z1YH+86TeTf+z3/p7X5W6R3Aedwn1EpBGdvjA+5YgHzLVYCoszP4+iJS3nlUqTJQ8itEQeH+Z//tXWZ1vM6xqOqT37v05ef7xIY0G8FuSaHyWK0Gsq0jpo4PDYTWm+cHb/WgJpl7KSnm1Sl+YrbodklYUFoOAQzAI0WD8FP4eBvcpZrBFh+/UYGwwKyzQfAaEwNdZBMSJ6YRhiqMINbu4V5CF8NO9E61Am5i8PxPz0+T1u/i9ofYaMcSy0BrytV6SdZQe8/1tzGvT1qzphNlqTaTkPReCPToKk8YpFkMwaOHa8hmBbWoahU6XtrtPe9hn6Dyuw9H51XBoQH/uDd808ELA7S4EZxlaZuH2+moxVzijhnJaXvbuQf8rM5KV0d03XAHEJ8KdypSFQag/Cz2cnZ/Hskkd8173iR3pCfXTwMmsJmxO49/DMcGFebSl+8ojpyfabQw0MSvDE5WWdVJrHxPAKfcseAnLBAyDJXpndwNNkl0d1W7Jq3za3LHMCAI0RglJiK6UGTKOpbgaAR0ft8x4gj504C+FF18EJ9rV9ywB7enzgj/loCXCWXlF+cFD3oAw75q30GWZ8Aqskvt7yqngyDeO4tFcTv/z//3f/4pWw+G0jUJUXmYQhJhV3seQVV9VHoo128LQKyNJ2rTWx4qQx1MaEskBkGLi/GnkqljK8QuwBi1HNUjJvP4m175zjFpvPHzfiAhEQaQpckLzCI+ZbJaJwRiLMdPLlM81wSMPmqoaMIzBrE1hVWaVBYb8iopWvgGOJhF9lQ/mqci4/IMnEw1Id4MSjjFECFFZIscaw6B6xK0/diXWCNNzeWUh2mht2NvbrjHZn73cHXbiixrGuL22ODyPH2oS+cLMY57ND1srxsqmrjHPeg4zc9eII4NMCNBo3TMLuYVYYiYa2XQQM/QydrApctfxkWl7goTGjfyoVmzrITVPXXVFWeVjd8t6WKGL3JtMX5NEoonv7llY2pApHfzk2/LP4lcLtRg2GvSU+craoJH5jdXHSmuGeAk9o9bWV5ejwVZL+BjOqRtP1JgS4KvqKVBH7aBEGrzpZULAIf65MJQBG9pEDwTzPYW1QtF+KVNbswasXYXJuFngxbQsArTrnnYkOGpEUur1kPqxXCoQmNIIEHk4LyLwEAmh0IFOCg0Tt4Ljj9PGpVUBnKOZT96tZdUNw1b3YHi6rMvALJV6VsDQC1+BKaffZ3/83/xfKyvIxPkjc0hcHdqpCMBUXL8ZjVkVz0mCjM54btIYqXguAe5oEJmSJEbn6YmxsRBQbJp/3RCYgbSJkEj6kTE9B1MxZq4driFmfKZc/Wyur6IBjuLLWh3hIr7eN2/eDO/evBOgjYnci82VCaJcZaaxEEv1odE4iC9lM6ukF/UkBKAFs6eQ9+VXxHliRnV9wtTqFwKqhsGsYTCEPWe4YBhlb3Mp9zGtQ0yf/OiTfD9bUw+ZdiLrCJg/OI2ooomHmKfHR4e1fGlaKMyg/zyEzH9Lpa5mVur64jJlLa0M+wf7aYAI2dSlVkkMo5q3+miD48B/Fwbmm4LfliXGH1MVCGx9c2O4imZ8uD4f/uP/4PNhaykthHBv813qVFpsdqE0m2GKRgoJPCFaI8JE3s0fHk1CuxPs7u6VYL+NIOCnMmuPzq6GkzD0q73NYWNza/h3/+4vSuD5TrDKChkY/fj4qAhZMFPbYjw+N6LRRo+xTuwUKBKv92EjJuxPvj8Y1lYMqbwrptA149Bt2BPrW3DUYJs8R3vqrv1oWsJG2yzM28ki7ZgyZmKtbG2uMjhKCBh2iYD29naGLz7/tO7NOjLGgMCpuEqZuwRpScbCd42Tz+9I5+BrOjKbrrtX0ZJftKQMSmqkc8qD4Jr+l7/9D2o1RufI1TKheSpxnpEGGIdkEoBxL3MAQV4X0RLkY4b1/ciwDnmMZQCiAEka+YxANlv2e0fBMEnbx3jdp/yUXxPZA1evkmCAg71N52pDrHf7BxXY0ZCmdxE+Vg0E5X20EROZhMP8mFbQQRngZWloZA3Ij8a4NRg878F8n/9oHnnAVfBa3xq3zAfejDZhBmp0U9W++Oxl1RPD7+1tVaBlzRDA4MB3rB1dVkb4WFZnfWtjWNneHubiD049BbYQ9FKI8uXeer6bTbrebmRpbrkYf3tnI1kJEBVGIwCm2nd8NIi/o62ICu6MNFs1vvbxrtZv+vyT5+y/EP/88OVnu0MUV/JK2qnANmMlfz5lj3Q6v7it0Wk0FeLjt+raol1ng3cDEhCZGIdf1hoBJ2BZW6LE9w1oZWnsHxw0/vLHBCZAQTiaxG3pmQBgcEIvChh9MRydng27m+vD6up6bUOiRQTxRMlHDQun4ilgqO61pDI5ARXW+OW8hyvKp3zfwtvEworCSoL8E+zS7RiBc3w+vDs6rtFs7w6Ph5/87OfDN999X9M2LeKAMQn6ipuknWsqnvqHD+DOEE40hrbwxkhnbR43rXvevnZ4I78jz3hfPr5AFMAk7JfNCGx3mkjC/Jd/jQAFl7rPv8owxEdylGakbSYIKKA0cBpVA7gfj2I0+U4O1+PUpRFAh3x9Nz73q4yGsSVUC5RUNmfqrSrxGWcjLUWcF4LMk/hlvRRNzSpKfoYVgqngyBXLAcx93yZVRWuTmXv5Qz5ar3oEXhKyJF9+WRwjjBhCtDEIqU57GzmRxNvbIa7llVrwzsAJY5m3wmAGnmysR1uG0QgDs2H4uIZFGl74lLTGIFs0TuBtJgS6sLFTMAqCLS5gnGdhYJtFLQwvXm4ML54/Dw7mhi8/fzm82t0aXr3YGjYDw27Oz/YiBALXYszsv/ZybfiVzYXhk6VheJ7zxfp8zPHZmkO6sMiairsTTStKPhNCp+Tg8OHByouX7asGP3BlhUHanQATIxG4MUNI2yJSA16qj1VkO9qMgMO0iHs/BE/IqlMPJ2yFoCuPQKBpaxZOmJ4grhhK0r85PBxWwsDrqxvDPq2ctjHBwmJyaZrgplec0A0p0KUNCQEMkUYMbBil6YywBGuduS/lk28NWVRP/DsbOHQl1VDVFGB+ue6sw4Pj4c3+4fA6Ft1PfvbN8P3r/eHw6LR20h8FA6VSbmKutbNrZVAUxTuBx1E0HhjA5EBTzgr6Ja1vpv/Fb//mVwgY8CSKa4eEjvI9J/c+QMit8jslHdlslPv8U3Tlk+sRSAcgmsCbSaSlzUff1hl0Vb5j2VXe5PR+fK6sqlxOzAb5ghYjA2l4iGD27kf6mYBQ0/UuLA5m4IOSWouqN7Et0OQZIVMCRV3yi2GZZITDKL0bDrA6SczUp2AYilEN6K/+6WjLFYGXCBdaFYy+29rbC1P0Kvq0iD117HgXvR1zM40bZoRikyRmLSej+yF51ACKhfUQfszFFP04FeG0upt8TQAP3M/46A9Jq+yFaLul+KYmwy8Mi88uh+m7i2Hq5jLMFO07+zRszgRHzMFwzzq1Gk25vLU1zIbhuBBRUDUd8fp2ajg5v6mVMe7DsJbJpW3Di2n7pwiL1bJEdBmFY8sc1sU0+sqQaUWO49OT0kQLMeMtNL63u1OraxC+pUHy7e72Vn2rfXUN1TahrBFjgTfWq23tOEDDY/47Jm+0l8ktNPHiouGfrMIWGHo1pG0qBl7TECFQbYsG84umWxl1JFtgSz85bW8bVlHvkbGtvc3iatM1GAjceEzf+lUsu/23B8Nf/vTr4Wc/+3r49vUPtaqGXhZMV1vMBP/cr7LgUjZcqy+FgDbLXEdMaMyRcsABT2Xe/95v/d02j/NBMWQxQZvKRbS5xwwYCBMi2iL6AFtMmcpKp5Aq2HUxLYC0GUEwaqRGnOllNJL7Uap5JSVpWOWCoVL34ctKn+cdZVMhnfJm8uTLQmLqkKd38o9fV5IwPqLBBd9G+jGDyr+iMpJyMRK7QMp3pL6oazUkqRZpyMwDv+AaZmJSM52JKrD4NuAkK3BFMyQTw94WF81EmavI9UII6jGNvxKT0wSCIHZYqQXQIjTSOBoOs2iUxTDRTDTF8HBVfaEku21PgKgNMWs1Y8qa1t0xb+XHheFpJn7y4uYwt7yefA1OsNt6Gtlop/idaYk0ePz0nBtbgSkMFw4crmySubw5rL/YG5b3Xg43yWcmwoQ2w4zGMtOEFrK7Cayz0VwYk7bZMg4awQU+47UROWRYT4rJfnUZIs+3NdE8QuTw+LT6Qc8vzH0NI8RFoUnN8tnejvaPhSFQZ1QaPFUcIfltb64NL2ItmGqnH1f7MNMFi0yWmA7xn8VPtsC9iDomtejCWXxzE+Frh4i0YU8vRbttFUbGFMOGmqotQ3Ewq3kCM7+9g7LgEBX2GjNhPH39tS1qtYwWKUIvgYBuejmgmRqqenJ2Wd1+f/nTb4effft2MHWyxlTnK5aAxQ3QvCGeTjgtOo5F0jSmlOQ9oZHc6vL5u7VyhQOnOzFsMWeQ5tf78b7NQ5VrRgO39xDcWzxi1mZklcDY75kw6eo7f5PvnJ61lKNVIxhoGnlVGc2oY54O6cffURu/h5MJEYkk/enpecyUo+Hg8CTSWdRPF0sqnfcYVB8c4eEbvlczaBqDQEn+7VsQYK6nK7gAPnAgRr8F0qQufCWDSfRvSmvhMSOTmHXWX1I/S8Ho50PowVppGFVXh8fbq2Av7BJzk/ip8pO9QFONdQ5R0/pcFdJZHSvqnVTPonURngjqs1gruikwpyCU6YjhuOFxJto0zH0XRp+NtltcXBk2wxRmIKWxUidDF1Nivlfv87PD4fg4+Jw3GWA6boZyn2I9rMXUZcKFkVNn2s3IMLRt6RcHJuIjVv93SEaEt+MjxIEBIUfDr3zx6XBi8EcEAXN3ZTm++su9tKXBJT0E1OgsdYQLUzUNHEkmBauuI+1mpU4+J2FpxJXuJZZACeKK4AeGlEnYYHq0UnGJIqNua8xoZNm4aFzR2ySttacEqIyf9q60c74H12g9FW0WMVBQ/aws0qQvXzq/rIu/+Ol3w7/9858Ob+LH12qhc4J5hpm2BkYLTkIGrNX/X/Sch8mvBP0/+0d/rxZ2qyOFSiCQowuhYFCppJcBSVPPJhnTLphxPBVKo9aRewzbkdq8TwWLyFNWST4moee5hwhHX6dhy2zovB1l3yeNvDW69M0wHzS49K49QxwaHoORuOcX1/Gp1kKAx2UG6yaRH0FRS7+GsEbfwtQ7DSivEgQpXz3t8UObMJ308TZeur4jHLQ484UQoNV9Z0jl2mqIWhdLGrImFMSEtXBcBYTyrQi2w76wBuEjHiWMfr6+SGtU1V45IeRUr8qkSRAQIHX36MNRduEgZVc0H6zM4vzpgiqf05zdlPB4Y1x4tFbKUmfdSGVNpZ3V4+mJNtyu4NLBgeGgqbuVK+4sz3o5LK9Zp7qFLhxOxQq5u5uqAI2pk5iKicvqEbnVjWJ+7MHRYQ1jrN3fUy488JV1NW3FPCcg1Yul8+mnLwKHJXUu8y7WhD71kMNB/GD0KH8TQ9DISvxm392krMUIAXljdu9oKYgaJyWgDfQFR8FmYEg7ThiRsDETiZD0rfZxojHPiid9FcSleVBCveOagR3dwIdfc4K1YU3Qzy/M22blu+/fDF///OfBxXEtDWxxO8yL/rgScKZhLClcmlebVx9dYP0//vY/+ArxamiZliSUONKPnwKkwFMVxAgyUmHSROMCjIbF1NQ8JKX6YYjWrDRh92ORJs3ESZoUAGnJWzUvJExgmGAFI0BSaWhn0o4MC0mORlZ/75DOoQxazKEuQH+7/66QoiHKDM8f6e0LeYwEr9zW4N1v57caPWmUp2HUp5BR8HRZ5XdGA/DBaOJ8VufGWszh5E0YDqbS3RmbbW6oSfUhpGgAzGWZlSC9xnCXiRWhMBvzTreRQnRBKdMY6wroxCystgmjT0fTCproyrBTO8HCDKvIeL7Vv2wxAcT8LNqyFkILvAQNzfTsKf5zzFjTHKenYoUEP8cxaW1z8ubNu+QzHQ1rJs1NNEbgSHl3D7EIyIQIJFuY0nS6eWhVG4BjtuOTmIMRdnBkRwCCEy3BlSCafufdvc2YwRiyBaYJ9erKxFyNWwGnp3ZSCB4I4bR4vhuS92kFt6h4Y9JPonEJA1pXG6ubnQcIuppgkGcGg2D2kX7Qb1kr9ZuctXVgK7qcHNYaQ5MUGrjRTZMZ3BYJBAfGNCSf3MPrSFNzlECec7l8r7eirTdCcXr44Yd3w89+/t3w/Q9v4kJY8jZ+eKwHiy8Yddf8yIpMmd6mwOn/8nf+YW0qTbo4RqaoUUPJgGll8IEK02AEusJrRkuACYwtlSffqiomLROzCJ/Z1L+IXw31+blGfO4hUEMCS/4wAQbHCI80ft2Pz52ek5LK854m7/JI1phJkda03g9v3g777951Ocm6BE7StjCw697y+7x7W8abMr1oAaauwEE1SvLE1MwzBNZIbVgFN/hlcpFGvnwsO/rRfHZJWF1bChHdRbrybfi08b0jGD4Ez/iCqWe+78HwCA1TtqZQT0imqXX6pxmiIcKcYRxEfXcTMzR/4+ALPqQ9aJjqxuaaPujXlo66JirCmzaenckZs/no+CLX9nCaGQ7eXQzX94Y3XhXDY8Do79Ju9rU12soAkzjVgWumzFA4XYpfz1dj4hkdRWsRFmXepY5Gz+3tbKdOEUqpt+GNRnxtb28OOzvWME4ZRVO6wG5rDPtS/FwjmwQPPbPoGppVFhyxnrSD8osY82316eadBtd7AM/VdmgidS5CyEm4MJfRBHqinES84bGfdfs6qj1Sh5EuR5pBd74laNGYdvSMYJW+otZJSkjpt9c2FZVOYxphZg+lb77fr6mlafzQDtrlIsXSQlflyrUwmf7d/+Lv1MoVbXY1ASoEmNiWmqdV/Y6A0jQqKzqbj/I+WsfzEFMNV0RYSSs/v75xkm2Vf5CQp+/LU9nxUC7Hv/IAQd5J4xgR1P/3vXejZq7rPMO0Qa+iS9oKeIge02okXjF6YNYg8qKVSNBaZK2eaYxeGlQjGSA+5l/MFYRrdERXJhrpW5WLxp1IWb4RAqKZCASMZ+iiRLOz87W+1cL88mCtqPX4vaR9jSWO+a57JOIkZxNSPg48BBF0B2e5v7m+iICYG6zSsTg/Xb5cdWmFgXXTIMTauR2RX8UMjr8c9zAqIVoj+ZZrGBNZPVgiTGbL0BwcRlutTkc7DsPh/tVwdBqzeNqUuWjeaNjZENJCGOWmVlrMd2GCpfjRBha8fnNQJrgWqkkWgZWJW0uTBjcmwPP7dX+sr68NV9eWz+G73g/bMX3zuHBukYRaTiiNICK8JDi2MDMcHp4Fr7QQc964apZKfO8LwyCngoPerwlj6oph6otE60bDeFYL0f+Ktm4mM6zA2vSOJidH8qxn+QZzEZ4hhMqDVaLNuXjeFw2mnbWL61YKTdvVVslOWjRa8YgIhHqetoIb9KVk+J2emQ+O7JZxNBwdHVTbgAnMM9MCViLysQJ/+3/3v63ocRNy+4yI0LXn7yuT/wqYAFaOdgGXnzxvSdQEXd+NX6H8yVF55RxN6V9m2rFsBaWOk+tJmbn++L5Ky6+j3kFc7qvs5IV/NN44pBJiaC/1YvIJKoCty27zCLOVD4hJkh6hjOY1ZoYss2NoToRWBEFSpjyrCSqbZPYckTj5cOMyrrdXNzHdFovQLs6tbhkCrWjsTe1JZJuTZv7UN0xd8rDUaAi/pLNx0bp6MFzqQ5MSRCnf2GlEbHB/apvyet1nI9qWllYrgp6MYqrZWc70QG0LhywFloS4QPzUc1tz3IZpI1SOLoe3b05reObhwekwv2hngsAGxjS6esqkBoKs2rLSLhE3w9r6egl1Ao0lpU4dIQ1Ra5dIC0LSkrpGVun6MmWTsNcFxPdl8ppADxfHR6fR0kxFlojWmI6f2AEndWZBiUbTuMxlVEGQYHZdRISBNacwg+Cj+ooFgL0VAqbRfq0h4QmkY1s6mecP+TYf1L3vSjnU6TEFESXlRg7Jxr0DwxK8lXWO0urJq2MeuUeXESwEkTYwYYMVJkB3kfawBBMrQHbqhc7eR4/bh5tIxyBa45T2zbsyFVI4qTOmZUI0gpJbSmdGYpQGVdX7kL4YLGdJoclzla/y8n48IdSXI0M2Un+RuSutl7l3XaZ63jtUqiRkYPWufdTkk3dHafyvv/2+opojo0IoYpCvoEnlnO98ZNSNNZWeb20Nx+fHNWgfeKQuXw5eTJHjOoANxISD/AyiAIdrmt6uaMxpJp8iBB6MudVY5tTqIhE8AbNdGIzaAjQBwgfT9yuKykyvPmOaMnU1gYDfk5YPw8QMLkJAgLNlFsMN4jV8knlN+KifLUpZ207a/foq5n802dlZ90uahcQUtkDdw5OhqwvVzbK8wvQP0cwIQIm0zk/83F50bzGMs7Ao8ESriNCGKZPGhm0GW1hCqCyZtBff0875lnzFwJjZc3nBpSGdBJ/JEAgd/ZVQy0sT/Wlt2omWhlT58dP5rm1KPhu2NjfKRLeTBRoo9kwGJWzzC74S9PmD+xq2SLikLHQIV6wltOJb9OtEp0WHlbZNaLQD7nqekyWXnzrs+uBdH2gmeAzsVU5esJDQFnqhBKUJaMW8Rl+dntnLOZZBysY3tZdPSY4J4RdjyCEf8gHcVwBqfBdIAF2VKWQCsKOoI9O3P0nKNMNK41tHmY/JfmREjOO9w32dkyp2WRNhMsmjJNzknc/Ga98VfIEjVF3IyFdVlyLCmFyvX78tzVBBg6QdhZCGKiGUZ2PUtwZhxHzciXY8PjseVqMVTZ2TJ+LvIsI8QXQKyX0LrrIkkpfndjqwHaR+YkKhB3BAPGLTCMFhysTAgg0LC3MlXefmgtPAxSLAtAJES4sWRetAGVP76i5El3oYZ6wr4ubWfUzhpO/FvjW8xe6ifR5iDoag+XKi16LTQUnV+eTkIr8dSDk8vMz3MYmPDJA3btcoJv7tdDQ9oUarW3EhVY6vFVDqkA+aYDFg0sJ5yiHgjLne2toIPrRha5XllZUSAjs76xEUp8NG/FPf6FGAN4KDoMujwXadBK12MtVvKT55tdEjczhWQ4BgFntf5mfg0a4WaUeT+2FYGrb0Z9IwOQlSabRxuVb5qLpx0hZJVHRQWtc1fHsOGEcTXF1Oql9p0EC96/+KzisiXX99UHasFHAR6uARlJA/BjbwpLL3XS5M3jDhxNJJ1WUZOjK6a/qf/uf/yfsuH4WrDPNV9NJzGY4M7VCQdE5AYFIECZACYnK49m7MG5Af5zMCjfEdH+frb2TU8ajyUgYEjO/KtCnc0j0Ne5kveVgTGvKsc7BOVHf1kIAik77TcY7YNGI9SC4LMekEAZz2qTmPVF8oDRmoRPz4jSEAKz+Q1PxlE6kJH7NYIPrqXpBHJNmmT3dh5DQiwRaYmXQ0gd3ypWHNGDllf1gMBTajmgSV4MEBPtt49ubDghq9C7tn8tD/bFXIGkoY05kpSGMfHR4Xw2lDzGKFQeZXLUt703NvrdtlfLFusdrT12ZgBxdhOtprdbiKb7i40IPdzZc2ZriWQI1mrMh7BU3atLSRlgUQwGQzrc3N9dJqhNlyhJe1n5jP0sM731b9BaoIA8Kn27DbA+1UF1DuBQZ9Q7sjGbC/Ozgsv5CpTCDZDaDxHmGR/Cx5xASXJ8Xie4KuV6XsCQXl2oVIyvoqGmimdxAezbzM+q5nHXlGyHhFQbUaSTL0Kov8Fm8UjY402Ee/bt6SvI9WXtL2QSF52TggFAkbW+zs7x8OUyNTvWeY+rA/BqR7vyMQflVkfO4cgXAy0cpEzfsxb8dY4c7/f/wAanKUsE739UzZQZxTbSuXkm7N+JXv5Np3I1yu+VAGkecqvsJxaQAMpSHbTE9+YUZ586VEgDX+Wsy9q9RlPaYX/3Ylz+dCrPP5bmFuqlYsXA0z8DGjvop5bcxlxpEA1EHKOo7GYK6CbzSlMSZGM/jB1DfBJCs09mBz/mtgSx6YHNoQ1HWYS8PR1rWLwgUTfzqMpp91qpZNxXzdvz4V8zaMl3Kds/Mkd7QXZr6y4dVjfHtreIlUR2NdifqK5ttaxB44psXdVX+qNZGYteb5Ev8BN+/nyk+vIXxpnbX1jTDXdvJghudZcCmgtLm6OmyHSVeXjI+ey2/M3eCAEKLhav/h4ODm6qqEbE36SLMKvKyv8o0th3tZOOCuGE5IA6MQGgdzYXoalitUlkTywbBl0aVdy9oLXATeyLDwP9KoPPq6GbNoLbChHe/rPgBQDG02h8ySlvAtuvEhOita67TMXGU343nl/Qf+qnwnn4CveGNy7z/vwYRZtQlX1T6+BPVB2m1K2BlyaMU2bWXgaxkng/yV5JlkXkyTw6/70QR2FtNOrsfCHaSItGMlHMr0bPz1zlllTPJ9n1o+k3PMQ95j+vEaA1ZgqExczAp65ihTTX8fid6d5tLQeAhFUyEkWlhd1c17TESrVpdP4NTFYhbJenwtjGIKFyGh2yPiIviLvxR4ajX+NJrBArolRK7hNlCGsMOUKVeDOAReEN7leQgw2o/VQisjj7J4Yrpap9gQvupHvaOtu3/58lKfLz83jZwTHAZPXEW723tnMWa3LSkPjq6KifcPTsK45odaisZO/tqWm+BKP64J8hZ/b/9bEKiCdqmjEUurJhIQNBgu98thSv3evjbGumf0BGNpIlYD7QmvfvNJW2Rpp4oLMGXTPkaPsZjgwOCIniHT8QA+rfHi47pS6MKoIhu5Ccopu8z3tM0YN7A2Nga2NpV2JvBMRsBgfN6iizwrhVJ0g1TRHoZr5YNeCVjPOn1rRe/9eZamztE0+54X0FJgaeb/oEzGQFTTqzdjXp3/eLZg6PxHXnLUAnkRutr2MjQ4VSM8cjbThvAhGnJTsKOYZwJYSf/8Yo72TfudzIvZ3n/TTOdZ3SNClZoANaatZ5OzgU5e9QFY+vSceYfE63oiITtZf+sY4XAopwh+zDO/iMhsG+aMIAafiv8J8RjXom3SMmeZyJhU5PQpBF1D8JJSY0tv5BKiLrg9SXkVLc5zM1TsZ7oSAlpIWaCjbc2TRXz6Mi9DoCLLF5GcjY/pYjz3NtTGVBjp3gr/SUszlAWRcmqgSLBxG3OxRgIxm07O88owS/2CMXlFHJN8/+h4eHtwNBzSqvGVTZ7gIvSyMj2aSlQ9CrMCOAZB8B8tDm6lRT4Z5iJYAvCwsb05bMQ/FRXWzbO8nDpGK2sCmljXlfqgH7jpfYu1majtVDER/BJKFsqrVTHy3jBB5dCCLBp9m2BjjhO82otAEnQjWAmwsa0IP5MJCFD0SXigPXiusQY5CQKComkHM2hLlmHTRxNdmCx5fcws73/zjDAf3zlHunN0G6Ltpm/vR2tUvp5X+kk6xFTp8rZL8E2u80w/dJnskwPM2LtoJNcETwSGj5OoYA8wJBoEhIhpwTI1gmyMWv5JPe93mMr9CPQIUOUVKAohbvPrLMKrQ6WCgPoNIvOXeiVhw9HIcZ/vfqGyjZDxcD3ej2WpnLTNtNKMsHQaBKujvSaSpxzSEZEZGGFQhWDHciS4JVOjFoZ5DZFfE6ydC/H1YsvFz3UGPymvF7oOfGnYYtzgh3YyhNFABhMGdGPQ3ISFLTAwgaigBbxp8oAR5qQFzUa6rwARQqZhFpdYAI/DaZ7xQeWDaS1Xwzy2yv9Znp+EiQ3M17gdcNOFZcD/TDFaDPQKbDDNDfQ/j1ksSqxPkx9MOPTCdcFXTttU7uzuhCGXyuIwKGJtfXmYj4CiUSyqRhg6zGziWlh/uPzO4L0IfdLmYIJ/ROglwWbQh/pKH8TVtXx1vV3eXFabaU8rVFYwamC6L0VYWBOZ39kNrA1fffKymNughqK1FDtuRG4PJPQwWoXoQxrXzbwTZiw6RGcjU3dvQPm27sFeMHUaOKrvJnlqq3qR033TIkXWjFvHhB5djMwsTTF8/sb8mp4bPhZeDb+s71K+F1T1WBEF+Ejifqdhkil1PsmonfoAOfnG2em7Qh/ySm71rrWjE5NrSMglgUv65dt6X4zWJ5NCnq7Hoxo8x5j3mHZMUyOjPK93IbOCo6pYaTY21of1mGPVrZB7DTmaXXwq6BU06VUiele55RD7coiXyUVyL4fBTYMzod3yLGG30tL8SXUr3Zqyb+71h4L3sczlZ5Ggxp+KeBrZo+9N/+FC/D3ESnDoQhDYArupXI4imphGFiN//cNRzL7kq/1SDgI39vf26Vmt1HEaTW5kknK4AchgdWm1tC+tZ2I9q4UZ7JdQwPiIhcCas95vmMkyrI/3CO4pAmMx1tdSBHngC27GlSnRTHXjrC4V82pDzxfCUPYCFsWv1SwgP8/LWgj+CP9iuDxmThtVp1um9qlNOlpRl5S1r+CpmWaqBlwQdrS+SQo0uG0yRecv44YUSeTcf3eQ/MQwOrjVtGZoaEeY+/xApxWDqXZCI95NGA9dob/cSVfKKb+e+149Rpp3wCH6G2m/85nk5aqed5n9rJkZ6Y70Cz/jsxFG/jh81WboecHSKPsu9SrgzQ7xQh8bKe30vgpMdlVA/gA3HgAfT5l/XJEuROVaCCT3knb+EGL7upOKAkVZeabSY57yUHZJuVxXRSa/oxR379C4HSzxXH0g3hsR1B719fDQqx/4vgg7mVf6lDn1LGXSeiFM5uWC7PL1wtxCTNx8m3cFS+pZi61p5PyuLVmlIgQXBof39+OZA7/1jGuDakJK5Dkw3RsYkbzm8l5XlHHJSgLqw9PccBTNZ+K5vry76/vh/CSa0KJt0aanZ1chXKO7wnSPM7VAWw2HTDl8ZRYDHNOm6moJGH4kGAwQYAIaJdQE0n792tLCsLuxMjzfXSu3Z23VwgVp49mlmhignhg8jkTyjhWWyhnlVSOVIpDEDKwyWaZcsoXXMVIOj0FSrrUngu+lVP0aWMA1QZDE3YV9naItH6XNO+Z+CVX4C9wGf4ieop/aNKush2clCE9jalsA/zQ+L3h1qWHcUWHcF222D8+k9sxfH6GZvKuBNZ6W9dd0X0duKg4y+cbYBO1IA7+n1bRHvQtcpeDyh8blXTgLsyWprKru48Cdkcb7dP0hqixvN10u7kET4Zn3jJGXlSi5fsiktVF+ZFGVGM9+96FAh18NpyvEu/EZieWb6n+q6zavy3TIp92Ynf+Yb30LzMlzgoJ0G33lsUxppRm/yZNKQ2NCrOBQEUoI/Sc//Xo4PDiMxlkcjGWVDwbrfrwQCBwFfg2wu7EVJr0Nw0azJp0B3qKftaerhHlmcTaRZP7vchrB5l+EQ2nMNNKKoI36JD+nwRBb8avtph4Qh2dh5Ps80xVij9XbwHh0cDDsH54UTAJTAki2HTk6jWkcWAWZrKMcuhveHp4ND8loeSEuzLMIhdurYTqCYYj2tHaTCPfF6UkxFq0jEEe4EE7m/tZaVIGZ4NKvCW+pWEzzy+D3cVheXSsGq31s4m/q95VecMiqlSLI5U5pl/wZoUW4ItWgp9qsRvxwI4JHhM8U1h7lXiUdJjcWl7BOoRMLI+Ih6Zn7x2HG8GAJUm1m9BSG1LZncS8M1QQ3pmSeG2Qxztg6PDwsYeNASxMqrbKKLidnP+3fPkCmTDTK1ZoEouCuaGHyTCUnx8g/cKGvuuYRBzfqzt8uOCrNh+/LMpswvpNVUfClQYDVwqVy91/B6rup0WF2w2RyyHTMyPOxcu4d473TUY02qUBJRlo09+/z+Si/ySeFVN9/nP+Yh6O+TwXH73NTaJUOFH7LHM57acd86rvAw8xCBxrbCKaffv3t8PNvXse/61E2tEGNdAmTdcLJfNKUw3xkBvN/P32+O6zq1I9WUU9MazmZWKXD+sJcGDiEGSKx9EuZWk9WaLwKgM+GlTTc8kx8PcTKxQh89npdCNMvTplMHpPNdzRSGrWm2kVD1s59SSvCe64/9ab7FAVT1LciycmzN48WPQ346h1j3QZZi2Gok5Pj8je5NrpZ7lMXv1ub64FhIdo1pu1y/MoIWIEfODYgAzOdnT/UcjLgMN82lQleegAGf3J3Z7vwTXsIwPlm1GgFR079sgRXHtZzGry6ZTDt5K9MvdSHmawMjK2eBIa+5K9//nr48V98U2OOixFiIfi9LBfBPsBWYWT9dLBK8G53b7dMYYROILMWa0SfP4wHvtBo0WJSua8BHZPnZY7n2vcBu9KJ5ahDHvkHVC/KalFfWrNcRS+SThp4r5luEdChihIybE2HPDHkyLRVdnANj9rV+zGdd37HZ4VjS6i68HAk/DHx+0TJuBspBJo/78ucnqTzO57S1Ht/k7zGfByIw7XGaWD7e/k7xm+cH8NQZ64LOZPnDs/HdDRxDegO+coueEhDPKtV/f/gf/izwWJcuggww9npZfIahpX4ZIjfHjzlT0FaPtQERoRtRNscnpyWANFIU9FkDykPMTzL/eKcqHG0aPDBJ6pCc4h2MkMFfAwMsOp+kBbmfTYs5fkSoeE+5ikBUgw/5JsZy42C536wbxCfTyCrLYiY+PHfDOxYWbZBV8zkpEUAGzFvk7wGE2yurQ+MWaM6FpdXamYPgUCA0bYIBAOtLFvyxkJxixW4ur2LUDEL6Nns8OLVTnD4NHz66mUNQ5Sd77a2t6uNa27xxPzUMKUVkh4DEha12kO1Q9MUYrQkKg0tH0eNAIv5LRinDcFSiiPvDQL5+udvYg4fxQq5KV+b9cTkZgkwifNRaVXdUDQZC2Bhcam6e5RVQa0ImjY5wdM0WAojv0Wb9dxNPWj/uugJ0zbdqYO0YjBoIzUq3Kgv051AMniFEikmDsPKGm7UG4wsNfjA4COtqy96dBRvpSxCAy4/8MAHHut65F5Cx4dETZyeu3eMwI/P/En3nkEnlaqCC6DOc8xb2l88+3unY8xbZcZG/vgcnzlIrF/W0h/fN3FriyDXN9H6ZqMYi2stYAuHC0Tp/C84AjcChFim4FmQKLhzGWaYnVoYLkIMzFY+laVNbu6DwJRj+8mbNESUU+qexrDre5nwPXkZ8xiYgQhpY7NU1kJcC/CVP+Nn0+bDdQhNAOninGB4Gq4vz4Ldh5h+JyFMkeCbtEc0RuASRWTJ1DBEBJEGtpmZtX/14S6GcFajPR9TvxfP94ZPdk1/s6KG1SlNgNBXaeQVS8SEn+thb29j2HuxWzufb2/vhslnh09e7Q0vXu4WXgy0QGgmc5eZn7IRonxpee1NQ5q147djD93mzGeEaUAImiKgECWB7Tl6USeE6z6oqTaBH9aSNsWQ8tH9o51ZBUZq6YbzgYXf9cPu7O7WOF1zpkWqyU95S4MORF+1RVkURStNy/BZFt1Ih0lTwhkcqa+jaB5wKD+/RVb5HX3a1vbe58g3crN+s8Cf/GtRuZQL75VEBjnUB54KhpQnf8J65I3xZJFIg86qXBlAYhF8rj0kOcaMIXY8qlIfnePh2vcjE9W7nAoc773rCuc+f0V8eTYyXL0L0Lms6rsfz/GQTvrxGyemK9hzaAy+YFI2gSWvg5hWP7w5HCwwbVB7acDJQuGIga9rkynrEjFDayOqnKbMIU6zcPQPWk/q/DKM9mx+2AkBra9t1q5q0bslDPguD4gw5fP9+FaGFaqVnQL4vnchIsSd5otFkPt8Q1gI2uh8W4hWNt/SQt4YZSka6wHhRZonS4ozMihSPQJDR7v60zyrtOfjZfnau1trw8bK7PB8Z31YDDNvrc0Xw2I+mm1za720gt/Nnc3As1x989NhqKWVpeDuYdjYDowpp0YapRz4Zgab1+oZ4jNjaWxD9GL3PZpX+uoHDv4CXh1FX7kRude45d/H/9W2xl0LkLnGbFoS/dL4X/zoxfAf/voXwycvt+jspBmiRc+H67urGgdu4AfGomFNhUQ/MW2KfnrEVn8j749ps5hBItdhhLLQtFQIRi/CyA/MYl1YhEoFkirntghGhqoyHflhpWl3ZZhZVV1rSWP1yOoSDDzKBJP27YEnc0U72nGkbWXD0cjIdR/Yur1DL5ab6VKbKUgElYVvBY7adASS3Y/pyhf86PCtzEEkHYlWeU3eOeXTv3mYk0RzeF7AJTEm7MBPfyvPsfzxcN/fjN82rJCvTIEgUpUJ/N/8v/674Sc//UaTt/a7js8Xv4i/JlIMMfLQf6lOljN1zEcTWU/XBHNRXPgzYOJJ/R9jcsWEvI1WBLfGWlmybw2kIurJyCurJdqW49lDLfNpbO/u3k7twi6yex1TcSZSWpQUIzDtdNmQ2+agWsxM7fSBdtuwCu5q1s/CPDjiV68tDxt2I0x56r79YnN4jICaEtEOnHNLy/FnjXKKD7thAgPmivaMby1vffK3D8F3fq3RzLS9iXS4ug6j5tnzFy/KxJS20sNxcLAUJjfKTJvxU/0ScpizaAHDVJv0WG+uBmKH/9Vo7ZPTk+DVt3M1hphWQpC9d1QLZ6tZ7G2vx9S1Qbhum7gM0bQmbBjS14NejFyLcHmyQ5+9i+PvRjCXszERHEWPKazoc3Kgs/FZMQq4c+3XO7TnuxcvntdqiuXW5b06ii0wvY27hgtCq8ze0DMXixsCHwQr3xsQzHvtpnuPteG+3SJ5hmljwTQttiBsegdFa2TPlKUVfsE81iBViUJcV2Y8vHeO11UASs4h7fjedTGm56gqR6dvptMgIxIxv+uPAazgROCAOJUd83N8DKvjfT55DlaSmnnB/LWw9I//8utaysPKAOcxQc/NeAlMAhhnZ5eVfi0EX1Pgol1BcXMl3cVAriLou0hLm0d7t7ywHAaNFEXUt5fDVhjBRHSmtj5J23DMhiH4dcYtL6kLHZHyb+KX8o8vIoHvwb0QBk35tVxn8JhqxkyOJk/aqTz3pQjqZjTz7uZGNOdmfteG59GQOxEsm2tLw/rS3LARv5TfuxgtaQ1q82GnIwxEpBeXY6LFZ7dsJ6mDgawESRsgroUQjknyUI9Z7x8tlL5cUViETxsbfF+zkMieEGkNVZy4EwY6lKbgt4cYMSfNRXhoN0SMyJUnHY1I4zfxxTVIm5Q/mryM1MJ8YPT9wbvD4YfXb1pbRUAKPhm6tbKyPhwfn4Uh0VZ392hPa0aJ3NOKBm0QAGihaKNoqIpMHSaaNb/jMdKVo+kaTXZE+uff/Lz4otPwa60hxYVq60A9wbwak51JrA5orwaK5Llx1AQJH/vli70KpDkIMLixHCzrpCzG5F1Ka/JOkd5hppF/wFFXxQT5J4rmSc3nTKVGDn/PFAHUWrz60PzVZ3U24zjrWp4aLi0dtqs8PK9gziSdU+P5rQauNJg4wOeZgIDMfTeexeBBxDizZDzG9wIBBlZfRyL/6Y9/Nvx//tUfhSFmh+OLyzKNbfVgYrRjOhKeeas7xZpCTGYrJGpQQ+zOru+ro/72KZIzCLwIAZxF4xhsUEubhEFvHwNH6oCQRYEfQvRGR60VM4SwH2/i14Y4LWMacE1XszGYPlNjmF9tb0D6sLO1UVs0IkRrK62vzJUm5eOasH59H/wHqVEmJdDsws681MCEiq6py2j9T15tD9cnl8F4NF80kW0+7RK/E/92JqaDmTysBgM4pmZ01wQHGjyw89utXEF06R6qHQxizvJHTRAw4SLYCUH1SLFaVGDWsqcx46Nxad2AW9YAyyMNW8RNSArItE8Kb/rL+ZrWQuryl2LRaB/PRbTNR56LuS2CbDSU5Wjh5vr2IhqqF223QViKCk7S7oHpTN926NP2GmZModeAUIfnrb3RSuob+qEJczGho/Zti/7dyTcJip6TrtzFokcRdCOumvZYR75vJUHgRkgFt+IDQW6Va5gnTYqfvo4CwYwEmHdotqYy5neEQx+xS3lh3uJBjJvDtbP2p3XhI4w4MgMGG5lrZAonwCcwV2YqUEB5kcP3lS5HVdTviL0cXmnE8gvyLUkCQGnGspuBW4p5VrBN8pDevMvx/VgWX1Y6u8P9yZ/9eNg/PI1Zc1wEaiI46e29bgDERPoTLwjFb/l80SqCKSkMXYYZ7suMyYOS4IhZv6Cd1NajfSxbWmNvU4+gPYwwU+OW7UVD0lrL13sjphbnA/fjfARACG4mTHJDE27VSJ/NVRMPOpIoUmv86UyYRFs1frRMz5PlG81MWTvqKnSh3zNmeHxcU+Fo1OnZZ8PGxlrSh6hSd8ub0p7wXRoj+ML4BJwpcfC3HNPeFDja1X0PXZ0btja3QrSEarRWcMG3p/lD/vXeDCARVduXCNTRtPA4H99ZPt5hhKOT49z3oBNCQJvYUHp7e6tchvl8f3Z6Gn/cSoz8fHTzrAZMYHralsSytO7BwUFpLsJZpoj+KHkpDyMQ+o6K9OZZ+bX+ct20NKZLm+VaumZIads95F9SOnmk6QNT4817JxgdRX/5K7zmGt4oFRq//dQOuGH6kVaNP+cKuHeK2lch+UdweFZad/K+69C0X1aoOrhxMR5jImcuc/QvsjGip64m74uYJtedvitQX03ui6CDHNeleT33vkVdVerjb0ZNPN5L+zFMBcz4bvK8y50dTmOW0LB//Gd/Mfz4L35a5qUG5kdhVF0kBJT0zDnMDLGijyW9QwAECjj39vbC2L3erYZ3f6Qz/yomnJFKIfqjmKA3ub+KRtiP2Xt5aaD+1HA3pBFD1PfxTy2gbYc6AxXACtWYW1Dm4uK8+jPVX3+eCd+CVxZFt6oh7Ypg1MHAFI1tc+zZhZnqennx6sUwG5MsSI75TZg9DKtrC/nuZnj16afD5uZuTXrQTssx1/nohIAoeflewZlvlFFRWFohsDDTLLq+vWE/HtZDmDztyAqxo79F1bSQYZgEAOEyti/B4yyNkHcsAieXoxZjyzvHi/jKLCblW9f5/Ow4bdGLLhwdHw+vX7+u7+HMekmYH61IL+iUj4uZT2y+lTZUPi3WtMDX7NMzv4QxpvAevRctOXOog3ttX99PynLmthgwid/nrfIdEaax2yd1lN+eMgSYxumHBoBgVO9MyiAM3h0eVnnokrDSr6zbq/LOgQdcf6hLM7PDdx92gp/wbQOPw7uCuOZ9Z3TetVZx3Q3VCOjvRuYfCxgP7yqvHICQnwMBjc99WwBOfutQxkRyFkweJb1KhJoKYYjPQmnvjk6HP/zDPxn+6M9+Mhyfasi8S4PVON80KrMNcWogWXqGSEQHTee6DAOenJwUTFtWUkgaUhgMAiJmoGAYjEQjMamtNOi9sb7qOI486pUQ7Z5u97brYSkacClMy9yzIPf5bYRXGP/x7jr3yzVx3sCAZoAQf2wyQ/G6bzKEF4Ljr4r+boSR/NJSofnUcT4gxKeNtjSwA9y1BE2sgPI/yz0RJDJmmtsDiz2ZvNyM3NYC6nP6kXWx6MedGj558bL89bf7r0tbL8dk9a2oLIIVYOk+baPN4nemTVgXaanCLSuMZkD4vhVo2VjfLPMS4zm++ea7Eozakna2wr7J+a/f7k9wJXBmf9n4kBE8mNTibMsRPmYksTzGvNBHM61rjN2LmbdviAla87kuWg0dl/+a9OPpyKtct+8qT0Ms4YMJTAPm9SRf2rMFnjHQ1nMmDOmiG5ZB8oPvmt+cPzjDNxSDPOAB3aF19+YHoz1lwV1bvy1MCt48f3/9sQnrLEDzy5j35yiNmmQY2at6nQrIyO/IeA6MlBSdRw5MJ10x6+SbRlhLkvEY8xvhcI55j9f57326kfFJpXeHJ8Mf/Os/Gv7g3/xpETvE9dS3q0Iw4qdBKg/MnjpCmm8xSkcdYzIHiRrBc6beu3fviugQi4DHI8YPcVuczRA7kU6R6pk0BBtEd0yAq6lxxvxeX/cQOoEiVoDNpvnXoqBra5scwBqhxWw0bhiOREf1KbquqW3Jz6QCmxrXerjxu5nEgoW9gkQ41/jmEIgJ7je3wdGUeaaxKmJOMkX1a8K55hSV3tqwCVivt8R0Rjwi9qYu8skxDyvEKhU9emyx+nB1V5kaJhJu8rphkNV/G3wSjgQfrUozVVtr55xwuBahVcI2TUDbagtRWW2p7xU82uAwbYm4Nzc3iojBaM2v12/exmoxAmoYXv/wNhrsPAzbtCuvoq/kNTIjZu2obgRVDu2NkQWGpEOXKNS3RReTa/xQZSIiz5JW/fwajjim7zRtyl6GztARbUlgVlwmsBGUrSWTOHBxMYzcKh85j8wNRp8sm9FFdc/ndRAMI2zejYKkhjG6+ZhZqlJJPDLX6JS770w6o4+/Ge8LcZOzGbWZpUxkZ64lV7hDmn72IR/vXI8MX99PznoXePImKS3YfTv89//DHw3/+g//dJhbXK1+PHkycZZqMrc+RSsvMH1Tpkonz1FL84UPj09qTC9cSGPZkyQKgXRAzC5pBkAw8XQTeba1vtFT9SbarAg1BKJWFjjbjEbESIiVn0rIzC+tDjMLBEO06LJFwwNT6sGUukvVV2Iy1xpKETJ2JUDsfGLdCzPR1jSeReA0LMkMfv4XlUtTLdXmUwJn8c8Dl3G8U8/mGt+F2sYn/Njvhs/Kt9+MJVGDGIKjao+kNIrsNLi0nKv9hRYWVwKXKXFMSMMUBVgwZGvwzreFLrhreGNwQpsfHh6HWHvWjiiqNNJySzwzmf7dwXFp2R/evMmzy1gzd8ObN/tp31g0KVOgyXrZQWS1ufxGevEj/oBRaD8WAC2sTiU0Aofn0mur/iZXofu2uPxinNDW5B1aUyftJo3rauOiC/SJkdOOwTmBc3R0HMHQwhOtpeBYIIZTIqVo7uQhHRojpMBGv9XKlmlHs6xGnvAtHGJ2z8CSlNU2zgiKZkAHBi1AnalsNXJ+P1TiA3ONp+P9bxCiMn2XY5JGweP5sWb/5WOEZcx7POtZKlDXOQmZevYUCfz67fDnP/5pPp4Z7MDOvGZSMVNJQQwomsicVS8MQoIx/UhHW17QhLXUSvIuRkjjiQbSoEriy86EURaSBt1otJW5aKAQZFzYIkBbd+S2rg0ZNFF+Pog3zI0ACfTFbMxd6Yx0wtDqsxDGuYh2ZgLS9LSM7xA+lNRaVPkWQ5Pe1n2CRsTk/uHBZHUrNEQbWxc45cKkeM5lfG7fImQNTojBj+0wP3n5sjSlrh/lYNryF/O1ieWurSvFHNUV5d7WnBeX51UfgSL9reatpiLlcwtO6Y9kbtNOiPUiuJRWXMEOe4aWElqfffZZETABaoI+a4YQsLbxeRhX22BOW5UasGGzrh5v3ITcQraHSBYzpSw0xlStRcyL1FrYc3VEr5WlrtoafE1zHymq/GpD78bnzSwt6EcaVLa21LZwhZZkrFuLtdGbsE2YLHkUP+Wb5rHQRejMtWGcYKznSYO2jUQrXkl6bem3rY6+T34BKmc+K6D95V1dFwNOECRdIyC/k0q3T9CM3M9yJn1JiNw4vav3dXT/mXuoGr+tUnM9MrZrlfVb6epLZUxgzXOR0x/eHg4/++ZN9U0yoaTSV4ZAVXJEoDIQ5HKYACOI5mJcTK086StwkPo4QMuPhCCTB5SHuNejsRfzbBtTRfPVXND4XqYy+kZkNC+GuKwxTZm+8Wnjq57VUqQxd+MX30YD2PhKgEvX2cJizPiUgREFJgyCWI/vh7OZpoihBmzkV3+wcvQfEx60A4lteKD2QShbm2GyWBxMQVHu1jzTNaKLQEDgulSWAoNuGku8mLmTSqY+2iYMFeZbXl4bPvv0s+S5mjRhxMBCQCTD4SJCTN82TQzHuqaMlKItdINgqurrr5jA0/DyxYsaTZVHw8baRnUb0oRnYULLyVqEznS8u/j4G1ubJTRN9reyyPfRtlZUrOVj87z7XpM39y3v1Ru9oUtaEX74vTXwIwWCrzUluJr4K4+Cb2Jupu5FYRPak+eYLzwbeCJ/+FYAGkSVvRRq06Qx3YSV71lvNaAk1kLTu82/embSyIxmIBVDsrUCt7YpZaS85FGUn3Si9wTGyA8FmwzGzJgXuayz7Odc5LISS6eyuWnGIThUtT5Q0IShcvp970M6vM+z2stnfCTvnFWJ/I1ppXsPXH5HxFqZHQJ64EcY4fx6+NM//+nwl19/n8ZsWKwUAe5ehiXaM4zH/6thZIGHtBU1lqfi9AvXIuBBmFk4GtZR3Sj5FnzS+VZwwRxa5qlnD/n2MY2GgTAYDWLHdzicj0mrEeAIoS+EeWzgpV+StpqZ4utM18oRS2tL0VR3w872ZpnFtMxZtEnIJzCY1TMVn5PUJmDajNMORTBTHXixppN0NlQuQRo4Mad5wEZ4YWz75mBu2pDmDaaLCQzg57NKw+9T5u7uy8CyXMw3N213gLR/6tuzt56F4Paj/UR7DWRh3YSXk1dFU9M2AjL8/bIycpa5yJ0JjCYCYNjz04taWlbAyXhhZrruIhYOq+jC3OG8fxvT+mpCd4RcKCN5Ne2gE/WHF1YInLMMaMTbMImRS8XglTZ0lT+a/D3d1S/KkX0RRD13jVEwlaOYN88d4zPaUl+1zwXv9FWjJb6+thEgg79k2uXkHMttWu9uRgKZJchVwAesllrrOjgzZbHoOGWOCtL3zbQTgFw7KstAo5ISYqB6mIZD6IixnhWrVF3rvp85FO/5By08liFNAZ2zge/D9cfnWLnRr2WG+KUJBHr++E//fPjZ19+WVKWNUlLSi8JZgrTT1tIxE4YlSPgUz5IPRvONtMmuumCuQ7ACIfxWfqSZJRqGP2oYn2BUBXVWlmuZmDPmc74rEyvVptFJcVtFGjeLkASDmIG7u+vF7LpLrGFkMT0rLiBQFoOpf6Ko8rdId/VLFvMVouub0jIYIwQBkzXXMycmW1ow4qhnzyCwXprEpyHS1HUp2nRFhDOMwWKAi+peCUGUiRcYRJpVpKKuETSaTV7wxOIq8oPDlClazlIoUz9Ix+xanGYx8MR3ovfaivCAJ0ylfXxn4ARXgKBYiE9ICNk1XZCPZXN4dFKMSzMqrxcfZIoi3oliCKw96OEhbPzQQz6Tv5U0zaiyhA4Bpx5osOkqeNPewUvTemtq+fltExY1/iI9Mldron7SGBgTsIp+5cF1waDqWVYNRZETLciMoiDc5DPC0bTd5cK398pHq/IZy+8d9DBuW68OMESZTbRazjHjOpNgvHZ4T/oAZCx8/Kbs+bG2OQBFQozfl62eRuyKfJSvc3KMz+Q3eVIS8722fw/fMHz3/duKFtsykA9akjWEo8sB80gHBshEUN5hfg3PFBYsEC214XOZRgSREpMP6Xl0HKYM8wruIER+leGAEjF7wIBgETeGM5ihkAoXQZEADXjDVRMBEuIL0XqpkSgLyZdXTYfr/U8xlyGQC8uRsIGrzPw0mq1DmLaYVaCmVqcI0c/PLwUvzdgEwJz9Z0M0JRtTD7ONyjcL7gWSpK+gUoggX5WJ6iDIMEeuwtAbpZFZHLQ1xMNbDyxg8tMOLI02NQlSfqR2a5+5BSNmLaGXsudiOYgWKxfzYdqff/tN4cW1BdiMhnrzdj+Me1pjwI+OT2vEmO41NDYKcG1bAinwqx8ip60IxnUrRc7PVrcd+OHG0FWmatFaDrDKQ1+q8h1NU013noGzLYamVy4PxiwE5PScsMCcvpHm+Pik6GTCV3WUpZoHTunG9OOpnDFqjgZrP6LgGqOiO8WNzDwyPYbFDbiwXoyZjcC9ZyJ/eU46Sef8cDSDeVaf1V3/+lYFnYXEj/J8fyZd5Zn8P37uWUtmDNXn6I9o4EN+0JVZO6lMKj3u2s06KGIIY2HUo6Oj0qYilAorJGjwEBPTo9Y3Rpz5rlZxSGMy02p50RRLa9hikblsGB9+EMVUbcICfJC/Em28sbkV4dXjcOWD4KIXKxik8Bp5kw+tbwQnBsC/+uxlm/DRzIJDLILyq4LrMWrsepS0hBKNqwx90yLz6lttFwEBB57z161DzH/nPxuFxdzHbAiFxoYPExt6BE/37S6EYUWomfv8XC0E1hSUdlGfXv60YQnzpNwiSvUKLhEmeAjKt+/eRWMeFzEaxYTwtYN0FVQMVqz5ZGTUYX75rD/56c8q0KT9tZ96szrUq3EQtybvaLLqdw+ebf2hr52gYqKX0M6feIPrkaZUALXWFhzoa8SbhzmkIYQIdIe8ivF8l0T66KUJ6GUhYCACeOyeoSAoD/jVXdY80bSszpXHJK8Wps9KmHElCLZaQSU4hTuHkW89xvnDgvqFO3mOmVWGAQgwTs/rnb+8KyzngHANVd9o0BwaVtrxKO2VowqY5OU3F++f57/3zz8+x3zypu6722CqTChSUxSxIm4hLNPgLMOZ18U8voFojOpXGWaUqDSiUS7JSVJWJ3fqwawyGkqalu4RMkGYxb31s4p0Yqh7s0yCZC0PLkuIQiTE136yYX7aUD/oYszVqmLqgtCt4SS6ywwtuIJoUwW3tterbjSQeiunfa+e5gWvrAP9e4gFY9Uay8YPR+M6yuSHt5zNwE106+sbpa2r6ylwtUXSKxRqSmlTuXwXQp1ob8JVP6b2pSUR6ihw66OcvlP/MpkDHzjdu8YkunR0R2G6N/v70aBva+inetGs8LW5vVXayUARgmjJrvTBmTbmotgojIBtOtS3vJBy4q+GOasvOXjHwIJMxUCBmQAw8ggeyzoIPCMDOMA4Hl2dCQ1PnjVNexcBm7w9L/osBmsG1J7ozOFLbek5GoOHWu8q+YzCoum7+UsbjrT9sTChYByumfPqBW6/SukBPg2T+2oblanMJwVUpSfneO+QuM5JYU7HeK3RnK4RkHzHvMfnfT8p76N38hyPD/n5TbnOSbka9Sx+IMlccERmnF+clzSC5dGHclb5QSKi5+Tz3zSkTX0RhHLH8jWMoAGCRFgkZu2DGiTSsKs2mcpzWok24SuvmqMaJrs8vxjOo42VZ+wvPxbcasQkLu14KwgVszJ/8secCE2QJuRU5ftAIEpfq/xJfASuPL61PJnQBhUI5IDVO7AaTghPrBNMbF4r6W3sMdOZuef7apd8Z7yrCf01+SLPvMecuYl3OBHik7ZwgFK7Gb5JWBAGfOjCab2b0E8S0hAIjNnKj4ZfvnpZGhFWlzcmsS/X/jQ0W0WdUw9tK/il7aobKN9hfPnCC4Y1zBJNVkCRT566l0Yvhr0uK8R3td9N6lWmbtFA11P9DBNVu9aMTWuh2LwKLTSSqq7apE740T45XKt/4SUnba/utG1ZSsrJPSFc+eZ8T+PKyy/YWQ09wAJds7paM7uuI3gEN2Ew0jKabcYNHIXwPNQwY0OVWZAE7r1zVIFl60n7i4w3vnciTNJmPLwfgdcAHf1NPr6blAUgadw7Rxj8limVX0QFeUwSZiNTAoCeM2VKkqGaHGPonnnBJANNn/m/nrdvZIFtzyGUOaWLgoCwL04HXzByTLE0tClUDoPC0wzJJ4Iof6KfvoEmdE9KPhRsIdYwsbrBkyAQgUMQME/5jgjn+fO9qpdGNBGf2cZHAxjJ28/1O+YM44Of32a0F5NXkOQoRGuMq/u958+HTaZ6RagNW9RePdaaFhWI4pdW29XZxAoPJWCSXzUNGyHfWulCu2kD6Whk1k/dpx61nnPqmCJKaHAlmOUrgXd3Zyfnbs1fZiobeabpLdxuJNcPb/arPLATNAq+jBWlL7iYKomrffwGxzSrPl9lsla0X3UbnZ6HXlpZsBwIcfVSx7bUmrlGl6aArWMioCZnm+Bd5vgMDtAbJsKcZVbnj/Y3lppbhRHRZa2AcmdKXvvLvq/8Kp+RD9oiUj/PxEVgu62sVjrj8EZ4H12O4sMARglF7zdSPkZSvq4CJBwL7fv2I9SZ+dQIGCvocSPEvQdjY1ea/FXfmt/k6RzLeX/kHuI7v5yYX7pc6/9THDPz4sIomZuYdWkUDRXfETI0VK/pm08K7jBoaeeLMm1EameitTBpLaSWX6YxqWw7D6iu8H0ku4bSyDWjJAxilFHtYhZzBhxMNH62gQnzC9FkA8GT+gQOI6NoPGVo6Dwu4jSndmdvJ0xjNNTDcH56Vd1ES2GEluZ2LLfigS4fTBA/NERYUjwNJyr9fHe3GPid3QIiMNTbQIIfYoqqwfbey5ide8N9zGQbEc+Zgpe8mGRL80vDyvJG2qVH5kBv47/bWl6CZhji7uGutL2BIrW8TXCrHklQ5qvPtC9kuK7pmrLKYT7u7u5W9QcLyt3cGhDxbPjJT36e6/saEEObfv3NDzWGmEXw+HRfUWMuCKEp0NTaNf5e2pAmNfuHWkjByTd4LdIQx+j6wD8h3j5/C5am4RG2/FfpKpf3mtRjaVyoa7JPtT7kVaO+cm5tblbbsVYWQyfrscD4yFw0tKA8QrvcmdDfWHaVPIFFvk7t3bgXW2jG5255JxjHymLuw3GNMUibB6riierycao0E7EbsyVC17HfOxTqGpvIAEBdOcA085fP5m2ejUD6HfOSkOT45XzHvMc0fY10A1PyHAXAz7/5fvjh7X6yk++IAKZdO+s9E6m1BunHnGkHv9cX4u9qLFE62hYT1jjdcLryLLhmVYvabS7Ix/zMOaaKQA6CZr4ajeU7O8Nt72yViVkrYYATAMEHabye90/Jj8b3nSl0/DDzd0lZm0Lp29vaWC/hoXE8NwidxC3hlkOAhmaraPXmRj0rvObYiTb7lS+/HOZC6ITNXKwD3zHpaQLAVNeE9kFEgZ1pjCgROhzmInVtBq3mStqkCm6Z9IJDLVDzYTGSo6yh5Ec7yAJ8FeCLNVL7ET0TOOr8WQ8GUbx9cxjNejF88/Mfgo/l2vRZ2xyfXlZXntqyOHpwRCuMtvAcTQPoE2N0MExdWhONp3Rgb1rKP8DlaLrOu3yjjTwdv6kobn6rTvW8+7odzF7vmPnqTiAQyJfR/CMtOwwdhX9pPXMqbzwL9kl7okn3ymO9oTXtT7iPQz1HE9pfjVYLbSanMG2TWBX0cQHuHRI5fOxQyJgWAE73H58qUu8nQPrWczz4sYb2bizPUb85IaxMndwy09n68krRw2vjUdO4GqoZreHKRRGpPA1Xc7guJsVQuSbBBJo6L0vArFbLkY5m0dhHlUZ7zP1DToSzqjsmhGeZl9JWlnEhxaM5IH7W5Pk0rrqV+Y4hc19jhCON9bt2YOG+JLWa2iVP1Boh6/c2msZyo9aKwsAVeEkDdReF/tBI4FRTg8Itab8e5sUcG2sr0Wq7w6/96q+W0DKr6ObmInUMA8Yaqd3hk2/7RvAbIqs2+HCWRRM6sAjA0clBBJmuNHU0YMJQSCtXIsQQsCV0on3AkUdlAY0awjMEXWtepW0eH40IYvqtBA+zw97ebq2uKLJNc/7ql5/GPdgd3r07imDQZcf/jdm5mXYJ/PBtp4Fyd1IYJVFtnl9CsmAPTB/TZNFZHo4KRbujISbzffBJMY306CwCSDrP4LcPNNl0LI1pi/LSJUX4GgILP4Ka3ADBR0xc/f5VdvPEWL5yPR9Pzx2jMFDP6gqcwAF/Tf+droOdcfOeHiq+0pyZYyxkTOi3KpXbMoNyjIUW5eXn/X0OacfTt+Nzx5iupNjk9/3zQupHzAdhaRD5YFazaDDoSSTx//cP/rCWj8nLfDP2hXWUsPOGrDDPTMNAUnlfDJDfqh8Y0yD35Xc+1cB3AY4aIhgQSHCwGCW1t70V5luu2T66Ll6+fBEmNSjiqsqMWCh4jZY6vzhLWd0BDznKbA30rAZH8PWYVLSWwfAvXuzW9LqKvgaeqm+0HKY1gIO0PTk7neDzqb6FKwSzHZ/V/F6mL7PUVMLW3nOBxZjd8zBXvonPZwtNgkpwxGAMJm9pzDBvWrjgwyCPD7pWbuIfv4vp/S5Vax/fDuTHRwfJ9yLpg8PgSF+xQSfwjEnBiAAdTDruCEKt4XwhNkEnPvWv//pfSz1MXbwL8S0O33/3fXB5VmrjJhYHOEf8AJFbUFP3AiLCLWtB+xRDooHWWsrHYEVPRUcURre3NGhjpLkqDB2od9L1d/WmrgmkMkGTZymPpBu1HNwzy1lYYgOegccQTVoY08LtyKRjnp1XwzjCLN9RgBAWgm4YH4DSYVJLBo30yH11Xb66j0ft1xX5xaMqK00KHY9itCBF5s4PyOqjmecDoO/f5VfjKsfzynNSZsOB2UlSxN/MW107tw/Dn//l18O/+8nX5QPVLueRuL4fyy5TJvWghUY/otIkTwiBLMhP5lUnzGXDZD6bzaC4cjV2GDwpu7phIjCOj49q8IP9Yl6//jbfT4ewT0vD8i2tsaQ4JTKjpcXgGo4pRVOAwb1yO8TfI2eUOVojHTnshtSICF+mCMh3ItMYhM+9vrZeJvSnLz+tTblMR7SUjIhusBZma+HIBK5VG+E1uKyyqpyJ5ZMrVgQtJAp/HiHxcBdfKoz0TLpIdvC8efN6+O77b2MNpD3znf5h7UhQyAexOmtaYXCoLU1NrAXrAnNpomjRm5uz4eUnW1Xel9GyhqLyb+8fbiOENofNjZXK32imgFoCjDtA4HVZTYfOkRnH9h/f9X0zBtxJ55kDXIh+PNCHkVt5PMmjvy+6Di1ZJXJR2aGFpdDOr3zxeQlxq2piqu3t7bRnBHYEVWvpzls+4y/TV35eKb/hw6gRQKHLsS6UgIkH0mqn7spiOVlwMG5RXCX0ZhTd9O/+1t/9KtlURkU8OQvp+XV4PhbmKIBy7U4BY1rvESdJA2nly0wq4fC+opNBtDxGLTS+c4z3vVZUa9PL67vhxz/5Zvh///f/urbLENBoKdtR2RFeUhnBgM17OcmXtoWg3NVSMExKk6uLsBWQNNtbWzVLZ35xqQIhhbQ0Vm35GOawLyu4e8bQXYhpaVjfWC3NYPSOhlNe170FHd/UmGB+MzxslDTu2TZm8RAgtgIpEynw89umApsoNt/75CyNE6azXpfB+ojFVDqNubq0PpyGsV7sPc+3UzXe9iKwmWw/vRBYU4fZxeViSDOVTJQPSYchOmATBBXOirijZU9Pj4fDCKfLMK6ACHwZo6yNrnWpRQt++/13w3b8boJB61sPCw6TWc4+aFlUwzIiyIygwvQElPWRrILxItbKwWHKOzwcVtZ3hm+jbbUTX5/FU5YHaIPLQFiwEDysj+ol+IjQRzryPUE90gKTXTUtSzQ+y78cna9g6theda8N8iudtuCeWK1DoOnLzz8bdsOcZUUF1+Vn5lvj20vx5FRv3U2R36GF28LPeICjhEvgA6f6gEmZrkvZ5LmyPUOTnqEfv4RDt1W+z7uHx8fh/wfBu30uycE/twAAAABJRU5ErkJggg==;" vertex="1" parent="1">
                    <mxGeometry x="50" y="40" width="237" height="233" as="geometry"/>
                </mxCell>
                <mxCell id="2_cIXfLltD0loI_J2MA5-2" value="Kato estas tre belaj bestoj. Eĉ en tre malnovaj desegnaĵoj." style="text;html=1;strokeColor=default;fillColor=none;align=center;verticalAlign=middle;whiteSpace=wrap;rounded=0;" vertex="1" parent="1">
                    <mxGeometry x="350" y="80" width="140" height="50" as="geometry"/>
                </mxCell>
                <mxCell id="2_cIXfLltD0loI_J2MA5-3" value="" style="endArrow=classic;html=1;entryX=0;entryY=0.5;entryDx=0;entryDy=0;" edge="1" parent="1" target="2_cIXfLltD0loI_J2MA5-2">
                    <mxGeometry width="50" height="50" relative="1" as="geometry">
                        <mxPoint x="280" y="160" as="sourcePoint"/>
                        <mxPoint x="290" y="160" as="targetPoint"/>
                    </mxGeometry>
                </mxCell>
                <mxCell id="2_cIXfLltD0loI_J2MA5-5" value="Miaŭ" style="shape=callout;whiteSpace=wrap;html=1;perimeter=calloutPerimeter;strokeColor=default;" vertex="1" parent="1">
                    <mxGeometry x="108.5" y="40" width="120" height="80" as="geometry"/>
                </mxCell>
            </root>
        </mxGraphModel>
    </diagram>
</mxfile>